<svg width="24" height="24" viewBox="0 0 24 24" fill="none" xmlns="http://www.w3.org/2000/svg">
<path d="M2.75 17.25H2V18H2.75V17.25ZM6.25 18H7V16.5H6.25V18ZM2.75 3.75V3H2V3.75H2.75ZM21.25 3.75H22V3H21.25V3.75ZM21.25 17.25V18H22V17.25H21.25ZM17.75 16.5H17V18H17.75V16.5ZM12 15L12.5966 14.5455L12 13.7625L11.4034 14.5455L12 15ZM8 20.25L7.40343 19.7955L6.48569 21H8V20.25ZM16 20.25V21H17.5143L16.5966 19.7955L16 20.25ZM2.75 18H6.25V16.5H2.75V18ZM3.5 17.25V3.75H2V17.25H3.5ZM2.75 4.5H21.25V3H2.75V4.5ZM20.5 3.75V17.25H22V3.75H20.5ZM21.25 16.5H17.75V18H21.25V16.5ZM11.4034 14.5455L7.40343 19.7955L8.59657 20.7045L12.5966 15.4545L11.4034 14.5455ZM8 21H16V19.5H8V21ZM16.5966 19.7955L12.5966 14.5455L11.4034 15.4545L15.4034 20.7045L16.5966 19.7955Z" fill="black"/>
</svg>
