<svg width="24" height="24" viewBox="0 0 24 24" fill="none" xmlns="http://www.w3.org/2000/svg">
<path d="M2.21978 20.7197L1.68945 21.25L2.75011 22.3107L3.28044 21.7803L2.21978 20.7197ZM2.21978 13.7197L1.68945 14.25L2.75011 15.3107L3.28044 14.7803L2.21978 13.7197ZM9.21978 20.7197L8.68945 21.25L9.75011 22.3107L10.2804 21.7803L9.21978 20.7197ZM3.28044 21.7803L8.78044 16.2803L7.71978 15.2197L2.21978 20.7197L3.28044 21.7803ZM3.28044 14.7803L6.28044 11.7803L5.21978 10.7197L2.21978 13.7197L3.28044 14.7803ZM10.2804 21.7803L13.2804 18.7803L12.2198 17.7197L9.21978 20.7197L10.2804 21.7803ZM20.5001 9C20.5001 12.0376 18.0377 14.5 15.0001 14.5V16C18.8661 16 22.0001 12.866 22.0001 9H20.5001ZM15.0001 14.5C11.9625 14.5 9.50011 12.0376 9.50011 9H8.00011C8.00011 12.866 11.1341 16 15.0001 16V14.5ZM9.50011 9C9.50011 5.96243 11.9625 3.5 15.0001 3.5V2C11.1341 2 8.00011 5.13401 8.00011 9H9.50011ZM15.0001 3.5C18.0377 3.5 20.5001 5.96243 20.5001 9H22.0001C22.0001 5.13401 18.8661 2 15.0001 2V3.5Z" fill="black"/>
</svg>
