<svg width="24" height="24" viewBox="0 0 24 24" fill="none" xmlns="http://www.w3.org/2000/svg">
<path d="M17.1513 14.8516L19.7876 16.3737M17.1918 9.125L19.6836 7.68636M6.80815 9.125L4.36924 7.71689M6.84875 14.8516L4.36924 16.2831M12 6.25V3.5M12 17.7031V20.5M9.48045 4.136L12 2.71875L14.5196 4.136M17.5703 5.85202L20.25 7.35938V10.25M20.25 13.75V16.6406L17.5703 18.148M14.5196 19.864L12 21.2812L9.48044 19.864M6.42973 18.148L3.75 16.6406V13.75M3.75 10.25V7.35938L6.42974 5.85202M12 14.25V12M12 12L13.9485 10.875M12 12L10.0514 10.875" stroke="black" stroke-width="1.5" stroke-linecap="square"/>
</svg>
