<svg width="24" height="24" viewBox="0 0 24 24" fill="none" xmlns="http://www.w3.org/2000/svg">
<path d="M1.75 5.75H22.25V19.25H16.1L12 15.575L7.9 19.25H1.75V5.75Z" stroke="black" stroke-width="1.5"/>
<path d="M9.25 11.5C9.25 12.4665 8.4665 13.25 7.5 13.25C6.5335 13.25 5.75 12.4665 5.75 11.5C5.75 10.5335 6.5335 9.75 7.5 9.75C8.4665 9.75 9.25 10.5335 9.25 11.5Z" stroke="black" stroke-width="1.5"/>
<path d="M18.25 11.5C18.25 12.4665 17.4665 13.25 16.5 13.25C15.5335 13.25 14.75 12.4665 14.75 11.5C14.75 10.5335 15.5335 9.75 16.5 9.75C17.4665 9.75 18.25 10.5335 18.25 11.5Z" stroke="black" stroke-width="1.5"/>
</svg>
