<svg width="24" height="24" viewBox="0 0 24 24" fill="none" xmlns="http://www.w3.org/2000/svg">
<path d="M12 6.00005L12.3721 5.34887L12 5.13624L11.6279 5.34887L12 6.00005ZM6.75 9.00005L6.3779 8.34887L6 8.56481V9.00005H6.75ZM6.75 15.0001H6V15.4353L6.3779 15.6512L6.75 15.0001ZM12 18.0001L11.6279 18.6512L12 18.8639L12.3721 18.6512L12 18.0001ZM17.25 15.0001L17.6221 15.6512L18 15.4353V15.0001H17.25ZM17.25 9.00005H18V8.56481L17.6221 8.34887L17.25 9.00005ZM3.25 4C3.25 4.41421 3.58579 4.75 4 4.75C4.41421 4.75 4.75 4.41421 4.75 4H3.25ZM4.75 3.99C4.75 3.57579 4.41421 3.24 4 3.24C3.58579 3.24 3.25 3.57579 3.25 3.99H4.75ZM19.25 4C19.25 4.41421 19.5858 4.75 20 4.75C20.4142 4.75 20.75 4.41421 20.75 4H19.25ZM20.75 3.99C20.75 3.57579 20.4142 3.24 20 3.24C19.5858 3.24 19.25 3.57579 19.25 3.99H20.75ZM3.25 20C3.25 20.4142 3.58579 20.75 4 20.75C4.41421 20.75 4.75 20.4142 4.75 20H3.25ZM4.75 19.99C4.75 19.5758 4.41421 19.24 4 19.24C3.58579 19.24 3.25 19.5758 3.25 19.99H4.75ZM19.25 20C19.25 20.4142 19.5858 20.75 20 20.75C20.4142 20.75 20.75 20.4142 20.75 20H19.25ZM20.75 19.99C20.75 19.5758 20.4142 19.24 20 19.24C19.5858 19.24 19.25 19.5758 19.25 19.99H20.75ZM7.51398 8.5728C7.15434 8.36729 6.6962 8.49224 6.49069 8.85188C6.28518 9.21151 6.41013 9.66965 6.76977 9.87516L7.51398 8.5728ZM11.25 17.5C11.25 17.9142 11.5858 18.25 12 18.25C12.4142 18.25 12.75 17.9142 12.75 17.5H11.25ZM17.2302 9.87516C17.5899 9.66965 17.7148 9.21151 17.5093 8.85188C17.3038 8.49224 16.8457 8.36729 16.486 8.5728L17.2302 9.87516ZM11.6279 5.34887L6.3779 8.34887L7.1221 9.65123L12.3721 6.65123L11.6279 5.34887ZM6 9.00005V15.0001H7.5V9.00005H6ZM6.3779 15.6512L11.6279 18.6512L12.3721 17.3489L7.1221 14.3489L6.3779 15.6512ZM12.3721 18.6512L17.6221 15.6512L16.8779 14.3489L11.6279 17.3489L12.3721 18.6512ZM18 15.0001V9.00005H16.5V15.0001H18ZM17.6221 8.34887L12.3721 5.34887L11.6279 6.65123L16.8779 9.65123L17.6221 8.34887ZM3.5 4C3.5 3.72386 3.72386 3.5 4 3.5V5C4.55228 5 5 4.55228 5 4H3.5ZM4 3.5C4.27614 3.5 4.5 3.72386 4.5 4H3C3 4.55228 3.44772 5 4 5V3.5ZM4.5 4C4.5 4.27614 4.27614 4.5 4 4.5V3C3.44772 3 3 3.44772 3 4H4.5ZM4 4.5C3.72386 4.5 3.5 4.27614 3.5 4H5C5 3.44772 4.55228 3 4 3V4.5ZM4.75 4V3.99H3.25V4H4.75ZM19.5 4C19.5 3.72386 19.7239 3.5 20 3.5V5C20.5523 5 21 4.55228 21 4H19.5ZM20 3.5C20.2761 3.5 20.5 3.72386 20.5 4H19C19 4.55228 19.4477 5 20 5V3.5ZM20.5 4C20.5 4.27614 20.2761 4.5 20 4.5V3C19.4477 3 19 3.44772 19 4H20.5ZM20 4.5C19.7239 4.5 19.5 4.27614 19.5 4H21C21 3.44772 20.5523 3 20 3V4.5ZM20.75 4V3.99H19.25V4H20.75ZM3.5 20C3.5 19.7239 3.72386 19.5 4 19.5V21C4.55228 21 5 20.5523 5 20H3.5ZM4 19.5C4.27614 19.5 4.5 19.7239 4.5 20H3C3 20.5523 3.44772 21 4 21V19.5ZM4.5 20C4.5 20.2761 4.27614 20.5 4 20.5V19C3.44772 19 3 19.4477 3 20H4.5ZM4 20.5C3.72386 20.5 3.5 20.2761 3.5 20H5C5 19.4477 4.55228 19 4 19V20.5ZM4.75 20V19.99H3.25V20H4.75ZM19.5 20C19.5 19.7239 19.7239 19.5 20 19.5V21C20.5523 21 21 20.5523 21 20H19.5ZM20 19.5C20.2761 19.5 20.5 19.7239 20.5 20H19C19 20.5523 19.4477 21 20 21V19.5ZM20.5 20C20.5 20.2761 20.2761 20.5 20 20.5V19C19.4477 19 19 19.4477 19 20H20.5ZM20 20.5C19.7239 20.5 19.5 20.2761 19.5 20H21C21 19.4477 20.5523 19 20 19V20.5ZM20.75 20V19.99H19.25V20H20.75ZM12.3721 11.3489L7.51398 8.5728L6.76977 9.87516L11.6279 12.6512L12.3721 11.3489ZM11.25 12.0001V17.5H12.75V12.0001H11.25ZM16.486 8.5728L11.6279 11.3489L12.3721 12.6512L17.2302 9.87516L16.486 8.5728Z" fill="black"/>
</svg>
