<svg width="24" height="24" viewBox="0 0 24 24" fill="none" xmlns="http://www.w3.org/2000/svg">
<path d="M20.25 7.75H21V7H20.25V7.75ZM20.25 20.25V21H21V20.25H20.25ZM3.75 20.25H3V21H3.75V20.25ZM3.75 7.75V7H3V7.75H3.75ZM2.75 3.75V3H2V3.75H2.75ZM21.25 3.75H22V3H21.25V3.75ZM21.25 7.75V8.5H22V7.75H21.25ZM2.75 7.75H2V8.5H2.75V7.75ZM10 11H9.25V12.5H10V11ZM14 12.5H14.75V11H14V12.5ZM19.5 7.75V20.25H21V7.75H19.5ZM20.25 19.5H3.75V21H20.25V19.5ZM4.5 20.25V7.75H3V20.25H4.5ZM3.75 8.5H20.25V7H3.75V8.5ZM2.75 4.5H21.25V3H2.75V4.5ZM20.5 3.75V7.75H22V3.75H20.5ZM21.25 7H2.75V8.5H21.25V7ZM3.5 7.75V3.75H2V7.75H3.5ZM10 12.5H14V11H10V12.5Z" fill="black"/>
</svg>
