<svg width="24" height="24" viewBox="0 0 24 24" fill="none" xmlns="http://www.w3.org/2000/svg">
<path d="M2.75 6.75V18C2.75 18.8202 4.55425 19.5379 7.25 19.9311V16.0689V7.93108C4.55425 7.5379 2.75 6.8202 2.75 6C2.75 4.75736 6.89137 3.75 12 3.75C17.1086 3.75 21.25 4.75736 21.25 6C21.25 6.8202 19.4458 7.5379 16.75 7.93108V16.0689V19.9311C19.4458 19.5379 21.25 18.8202 21.25 18V6.75M16.2418 16C14.9713 15.8402 13.529 15.75 12 15.75C10.471 15.75 9.02873 15.8402 7.75815 16" stroke="black" stroke-width="1.5" stroke-linecap="square"/>
</svg>
