<svg width="24" height="24" viewBox="0 0 24 24" fill="none" xmlns="http://www.w3.org/2000/svg">
<path d="M13 21C13.5523 21 14 20.5523 14 20C14 19.4477 13.5523 19 13 19C12.4477 19 12 19.4477 12 20C12 20.5523 12.4477 21 13 21Z" fill="black"/>
<path d="M21 11C21 10.4477 20.5523 10 20 10C19.4477 10 19 10.4477 19 11C19 11.5523 19.4477 12 20 12C20.5523 12 21 11.5523 21 11Z" fill="black"/>
<path d="M19.9294 14.2679C20.4077 14.5441 20.5715 15.1557 20.2954 15.634C20.0192 16.1123 19.4077 16.2761 18.9294 16C18.4511 15.7238 18.2872 15.1123 18.5633 14.634C18.8395 14.1557 19.4511 13.9918 19.9294 14.2679Z" fill="black"/>
<path d="M17.3676 19.2942C17.8459 19.0181 18.0098 18.4065 17.7336 17.9282C17.4575 17.4499 16.8459 17.286 16.3676 17.5621C15.8893 17.8383 15.7254 18.4499 16.0016 18.9282C16.2777 19.4065 16.8893 19.5703 17.3676 19.2942Z" fill="black"/>
<path d="M18.9269 7.99998C18.4487 8.27612 17.8371 8.11225 17.5609 7.63396C17.2848 7.15566 17.4487 6.54407 17.9269 6.26793C18.4052 5.99179 19.0168 6.15566 19.293 6.63396C19.5691 7.11225 19.4052 7.72384 18.9269 7.99998Z" fill="black"/>
<path d="M10 14.75V14H8.5V14.75H10ZM9.25 20.25V21H10V20.25H9.25ZM3.75 19.5H3V21H3.75V19.5ZM8.5 14.75V20.25H10V14.75H8.5ZM9.25 19.5H3.75V21H9.25V19.5ZM4.5 12C4.5 7.85786 7.85786 4.5 12 4.5V3C7.02944 3 3 7.02944 3 12H4.5ZM9.27283 18.989C6.47789 17.8975 4.5 15.1788 4.5 12H3C3 15.8172 5.37607 19.0775 8.72717 20.3862L9.27283 18.989ZM12 4.5C13.414 4.5 14.7344 4.89056 15.8619 5.56926L16.6355 4.28413C15.281 3.46879 13.6941 3 12 3V4.5Z" fill="black"/>
</svg>
