<svg width="24" height="24" viewBox="0 0 24 24" fill="none" xmlns="http://www.w3.org/2000/svg">
<path d="M4.5 4.75V4H3V4.75H4.5ZM3.75 9.25H3V10H3.75V9.25ZM8.25 10H9V8.5H8.25V10ZM12.0053 4.5C15.4755 4.5 18.4299 6.99523 19.2716 10.4286L20.7284 10.0714C19.7374 6.02879 16.2279 3 12.0053 3V4.5ZM5.07048 9.46031C5.91785 6.55967 8.84242 4.5 12.0053 4.5V3C8.23958 3 4.68215 5.44033 3.63066 9.03969L5.07048 9.46031ZM3 4.75V9.25H4.5V4.75H3ZM3.75 10H8.25V8.5H3.75V10Z" fill="black"/>
<path d="M9.36084 21H7.65967V13.9604H7.60254C7.06934 14.2905 6.22509 14.8174 5.60938 15.2427V13.6748C6.27587 13.2051 7.03125 12.7354 7.7041 12.3354H9.36084V21Z" fill="black"/>
<path d="M10.8843 16.9692V16.3662C10.8843 13.8462 12.0713 12.1704 14.1787 12.1704C16.2988 12.1704 17.4414 13.8335 17.4414 16.3662V16.9692C17.4414 19.3813 16.3306 21.165 14.147 21.165C12.0332 21.165 10.8843 19.4829 10.8843 16.9692ZM12.5918 16.3726V16.9565C12.5918 18.8101 13.2075 19.7686 14.1597 19.7686C15.1182 19.7686 15.7275 18.8037 15.7275 16.9565V16.3726C15.7275 14.5317 15.1182 13.5732 14.1597 13.5732C13.2075 13.5732 12.5918 14.5254 12.5918 16.3726Z" fill="black"/>
</svg>
