<svg width="24" height="24" viewBox="0 0 24 24" fill="none" xmlns="http://www.w3.org/2000/svg">
<path d="M21.75 5.25H2.25V18.75H21.75V5.25Z" stroke="black" stroke-width="1.5"/>
<path d="M12 14.25C13.2426 14.25 14.25 13.2426 14.25 12C14.25 10.7574 13.2426 9.75 12 9.75C10.7574 9.75 9.75 10.7574 9.75 12C9.75 13.2426 10.7574 14.25 12 14.25Z" stroke="black" stroke-width="1.5"/>
<path d="M5.75 5.25C5.75 7.183 4.183 8.75 2.25 8.75" stroke="black" stroke-width="1.5" stroke-linejoin="round"/>
<path d="M18.25 5.25C18.25 7.183 19.817 8.75 21.75 8.75" stroke="black" stroke-width="1.5" stroke-linejoin="round"/>
<path d="M5.75 18.75C5.75 16.817 4.183 15.25 2.25 15.25" stroke="black" stroke-width="1.5" stroke-linejoin="round"/>
<path d="M18.25 18.75C18.25 16.817 19.817 15.25 21.75 15.25" stroke="black" stroke-width="1.5" stroke-linejoin="round"/>
</svg>
