<svg width="24" height="24" viewBox="0 0 24 24" fill="none" xmlns="http://www.w3.org/2000/svg">
<path d="M1.75 18.75H1V19.5H1.75V18.75ZM1.75 4.75V4H1V4.75H1.75ZM22.25 4.75H23V4H22.25V4.75ZM22.25 18.75V19.5H23V18.75H22.25ZM4.75 7.5H4V9H4.75V7.5ZM5.75 9H6.5V7.5H5.75V9ZM18.25 15H17.5V16.5H18.25V15ZM19.25 16.5H20V15H19.25V16.5ZM2.5 18.75V4.75H1V18.75H2.5ZM21.5 4.75V18.75H23V4.75H21.5ZM22.25 18H1.75V19.5H22.25V18ZM1.75 5.5H22.25V4H1.75V5.5ZM4.75 9H5.75V7.5H4.75V9ZM18.25 16.5H19.25V15H18.25V16.5ZM13.25 12C13.25 12.6904 12.6904 13.25 12 13.25V14.75C13.5188 14.75 14.75 13.5188 14.75 12H13.25ZM12 13.25C11.3096 13.25 10.75 12.6904 10.75 12H9.25C9.25 13.5188 10.4812 14.75 12 14.75V13.25ZM10.75 12C10.75 11.3096 11.3096 10.75 12 10.75V9.25C10.4812 9.25 9.25 10.4812 9.25 12H10.75ZM12 10.75C12.6904 10.75 13.25 11.3096 13.25 12H14.75C14.75 10.4812 13.5188 9.25 12 9.25V10.75Z" fill="black"/>
</svg>
