<svg width="24" height="24" viewBox="0 0 24 24" fill="none" xmlns="http://www.w3.org/2000/svg">
<path d="M3.75 3.75V3H3V3.75H3.75ZM8.25 3.75H9V3H8.25V3.75ZM8.25 8.25V9H9V8.25H8.25ZM3.75 8.25H3V9H3.75V8.25ZM15.75 3.75V3H15V3.75H15.75ZM20.25 3.75H21V3H20.25V3.75ZM20.25 8.25V9H21V8.25H20.25ZM15.75 8.25H15V9H15.75V8.25ZM8.25 5.25H7.5V6.75H8.25V5.25ZM6.75 8.25V7.5H5.25V8.25H6.75ZM5.25 15.75V16.5H6.75V15.75H5.25ZM8 17.25H7.25V18.75H8V17.25ZM15.75 18.75H16.5V17.25H15.75V18.75ZM17.25 15.75V16.5H18.75V15.75H17.25ZM3.75 15.75V15H3V15.75H3.75ZM8 15.75H8.75V15H8V15.75ZM8 20.25V21H8.75V20.25H8ZM3.75 20.25H3V21H3.75V20.25ZM15.75 15.75V15H15V15.75H15.75ZM20.25 15.75H21V15H20.25V15.75ZM20.25 20.25V21H21V20.25H20.25ZM15.75 20.25H15V21H15.75V20.25ZM12.75 9.75V9H11.25V9.75H12.75ZM11.25 14.25V15H12.75V14.25H11.25ZM14.25 12.75H15V11.25H14.25V12.75ZM9.75 11.25H9V12.75H9.75V11.25ZM3.75 4.5H8.25V3H3.75V4.5ZM7.5 3.75V8.25H9V3.75H7.5ZM8.25 7.5H3.75V9H8.25V7.5ZM4.5 8.25V3.75H3V8.25H4.5ZM15.75 4.5H20.25V3H15.75V4.5ZM19.5 3.75V8.25H21V3.75H19.5ZM16.5 8.25V6H15V8.25H16.5ZM16.5 6V3.75H15V6H16.5ZM15.75 5.25H8.25V6.75H15.75V5.25ZM5.25 8.25V15.75H6.75V8.25H5.25ZM8 18.75H15.75V17.25H8V18.75ZM20.25 7.5H18V9H20.25V7.5ZM18 7.5H15.75V9H18V7.5ZM18.75 15.75V8.25H17.25V15.75H18.75ZM3.75 16.5H8V15H3.75V16.5ZM7.25 15.75V20.25H8.75V15.75H7.25ZM8 19.5H3.75V21H8V19.5ZM4.5 20.25V15.75H3V20.25H4.5ZM15.75 16.5H20.25V15H15.75V16.5ZM19.5 15.75V20.25H21V15.75H19.5ZM20.25 19.5H15.75V21H20.25V19.5ZM16.5 20.25V15.75H15V20.25H16.5ZM11.25 9.75V12H12.75V9.75H11.25ZM11.25 12V14.25H12.75V12H11.25ZM14.25 11.25H12V12.75H14.25V11.25ZM12 11.25H9.75V12.75H12V11.25Z" fill="black"/>
</svg>
