<svg width="24" height="24" viewBox="0 0 24 24" fill="none" xmlns="http://www.w3.org/2000/svg">
<path d="M3 7H9.5M21 7H14.5M9.5 7.1483C6.41503 8.16228 4.15837 11.0018 4.00799 14.389M19.992 14.389C19.8416 11.0018 17.585 8.16228 14.5 7.1483M3 7.5V6.5M21 7.5V6.5M9.75 4.75H14.25V9.25H9.75V4.75ZM17.75 14.75H22.25V19.25H17.75V14.75ZM1.75 14.75H6.25V19.25H1.75V14.75ZM4.25 7C4.25 7.69036 3.69036 8.25 3 8.25C2.30964 8.25 1.75 7.69036 1.75 7C1.75 6.30964 2.30964 5.75 3 5.75C3.69036 5.75 4.25 6.30964 4.25 7ZM22.25 7C22.25 7.69036 21.6904 8.25 21 8.25C20.3096 8.25 19.75 7.69036 19.75 7C19.75 6.30964 20.3096 5.75 21 5.75C21.6904 5.75 22.25 6.30964 22.25 7Z" stroke="black" stroke-width="1.5" stroke-linecap="square"/>
</svg>
