<svg width="24" height="24" viewBox="0 0 24 24" fill="none" xmlns="http://www.w3.org/2000/svg">
<path d="M19.25 2.75H20V2H19.25V2.75ZM19.25 21L18.8877 21.6567L20 22.2704V21H19.25ZM4.75 21H4V22.2704L5.11231 21.6567L4.75 21ZM4.75 2.75V2H4V2.75H4.75ZM12 17L12.3623 16.3433L12 16.1434L11.6377 16.3433L12 17ZM12.75 6.75V6H11.25V6.75H12.75ZM11.25 13.25V14H12.75V13.25H11.25ZM15.25 10.75H16V9.25H15.25V10.75ZM8.75 9.25H8V10.75H8.75V9.25ZM18.5 2.75V21H20V2.75H18.5ZM5.5 21V2.75H4V21H5.5ZM4.75 3.5H19.25V2H4.75V3.5ZM19.6123 20.3433L12.3623 16.3433L11.6377 17.6567L18.8877 21.6567L19.6123 20.3433ZM11.6377 16.3433L4.38769 20.3433L5.11231 21.6567L12.3623 17.6567L11.6377 16.3433ZM11.25 6.75V13.25H12.75V6.75H11.25ZM15.25 9.25H8.75V10.75H15.25V9.25Z" fill="black"/>
</svg>
