<svg width="24" height="24" viewBox="0 0 24 24" fill="none" xmlns="http://www.w3.org/2000/svg">
<path d="M19.25 2.75H20V2H19.25V2.75ZM19.25 21L18.8877 21.6567L20 22.2704V21H19.25ZM4.75 21H4V22.2704L5.11231 21.6567L4.75 21ZM4.75 2.75V2H4V2.75H4.75ZM12 17L12.3623 16.3433L12 16.1434L11.6377 16.3433L12 17ZM9.88033 9.81968L9.35 9.28935L8.28934 10.35L8.81967 10.8803L9.88033 9.81968ZM11 12L10.4697 12.5303L11 13.0607L11.5303 12.5303L11 12ZM15.3803 8.68034L15.9107 8.15001L14.85 7.08935L14.3197 7.61968L15.3803 8.68034ZM18.5 2.75V21H20V2.75H18.5ZM5.5 21V2.75H4V21H5.5ZM4.75 3.5H19.25V2H4.75V3.5ZM19.6123 20.3433L12.3623 16.3433L11.6377 17.6567L18.8877 21.6567L19.6123 20.3433ZM11.6377 16.3433L4.38769 20.3433L5.11231 21.6567L12.3623 17.6567L11.6377 16.3433ZM8.81967 10.8803L10.4697 12.5303L11.5303 11.4697L9.88033 9.81968L8.81967 10.8803ZM11.5303 12.5303L15.3803 8.68034L14.3197 7.61968L10.4697 11.4697L11.5303 12.5303Z" fill="black"/>
</svg>
