<svg width="24" height="24" viewBox="0 0 24 24" fill="none" xmlns="http://www.w3.org/2000/svg">
<path d="M19.25 2.75H20V2H19.25V2.75ZM19.25 21L18.8877 21.6567L20 22.2704V21H19.25ZM4.75 21H4V22.2704L5.11231 21.6567L4.75 21ZM4.75 2.75V2H4V2.75H4.75ZM12 17L12.3623 16.3433L12 16.1434L11.6377 16.3433L12 17ZM14.8284 8.23678L15.3588 7.70645L14.2981 6.64579L13.7678 7.17612L14.8284 8.23678ZM9.17157 11.7723L8.64124 12.3026L9.7019 13.3633L10.2322 12.833L9.17157 11.7723ZM13.7678 12.833L14.2981 13.3633L15.3588 12.3026L14.8284 11.7723L13.7678 12.833ZM10.2322 7.17612L9.7019 6.64579L8.64124 7.70645L9.17157 8.23678L10.2322 7.17612ZM18.5 2.75V21H20V2.75H18.5ZM5.5 21V2.75H4V21H5.5ZM4.75 3.5H19.25V2H4.75V3.5ZM19.6123 20.3433L12.3623 16.3433L11.6377 17.6567L18.8877 21.6567L19.6123 20.3433ZM11.6377 16.3433L4.38769 20.3433L5.11231 21.6567L12.3623 17.6567L11.6377 16.3433ZM13.7678 7.17612L9.17157 11.7723L10.2322 12.833L14.8284 8.23678L13.7678 7.17612ZM14.8284 11.7723L10.2322 7.17612L9.17157 8.23678L13.7678 12.833L14.8284 11.7723Z" fill="black"/>
</svg>
