<svg width="24" height="24" viewBox="0 0 24 24" fill="none" xmlns="http://www.w3.org/2000/svg">
<path d="M8.75 13.75C10.5449 13.75 12 15.2051 12 17M15.25 10.25C13.4551 10.25 12 8.79493 12 7M12 3.65628V20.1132M19.0167 17.8991C20.3271 17.3617 21.25 16.0734 21.25 14.5694C21.25 13.5629 20.8366 12.6529 20.1703 12C20.8366 11.3471 21.25 10.4371 21.25 9.43056C21.25 7.57553 19.8459 6.04846 18.0425 5.8542C17.5934 4.07047 15.9787 2.75 14.0556 2.75C13.3067 2.75 12.6047 2.9502 12 3.29999C11.3953 2.9502 10.6933 2.75 9.94444 2.75C8.02133 2.75 6.40662 4.07047 5.95754 5.8542C4.15413 6.04846 2.75 7.57553 2.75 9.43056C2.75 10.4371 3.16341 11.3471 3.82969 12C3.16341 12.6529 2.75 13.5629 2.75 14.5694C2.75 16.0734 3.67291 17.3617 4.98327 17.8991C5.5365 19.8338 7.31815 21.25 9.43056 21.25C10.3813 21.25 11.2651 20.9631 12 20.4712C12.7349 20.9631 13.6187 21.25 14.5694 21.25C16.6819 21.25 18.4635 19.8338 19.0167 17.8991Z" stroke="black" stroke-width="1.5" stroke-linecap="square"/>
</svg>
