<svg width="24" height="24" viewBox="0 0 24 24" fill="none" xmlns="http://www.w3.org/2000/svg">
<path d="M8.25 3.25V4H9.75V3.25H8.25ZM9.75 1.75V1H8.25V1.75H9.75ZM15.75 20.75V20H14.25V20.75H15.75ZM14.25 22.25V23H15.75V22.25H14.25ZM3.25 9.75H4V8.25H3.25V9.75ZM1.75 8.25H1V9.75H1.75V8.25ZM20.75 14.25H20V15.75H20.75V14.25ZM22.25 15.75H23V14.25H22.25V15.75ZM4.21967 5.28033L4.75 5.81066L5.81066 4.75L5.28033 4.21967L4.21967 5.28033ZM3.78033 2.71967L3.25 2.18934L2.18934 3.25L2.71967 3.78033L3.78033 2.71967ZM19.7803 18.7197L19.25 18.1893L18.1893 19.25L18.7197 19.7803L19.7803 18.7197ZM20.2197 21.2803L20.75 21.8107L21.8107 20.75L21.2803 20.2197L20.2197 21.2803ZM2.5 14.5L1.96967 13.9697L1.43934 14.5L1.96967 15.0303L2.5 14.5ZM9.5 21.5L8.96967 22.0303L9.5 22.5607L10.0303 22.0303L9.5 21.5ZM21.5 9.5L22.0303 10.0303L22.5607 9.5L22.0303 8.96967L21.5 9.5ZM14.5 2.5L15.0303 1.96967L14.5 1.43934L13.9697 1.96967L14.5 2.5ZM10.2197 5.71967L9.68934 6.25L10.75 7.31066L11.2803 6.78033L10.2197 5.71967ZM6.78033 11.2803L7.31066 10.75L6.25 9.68934L5.71967 10.2197L6.78033 11.2803ZM17.2197 12.7197L16.6893 13.25L17.75 14.3107L18.2803 13.7803L17.2197 12.7197ZM13.7803 18.2803L14.3107 17.75L13.25 16.6893L12.7197 17.2197L13.7803 18.2803ZM9.75 3.25V1.75H8.25V3.25H9.75ZM14.25 20.75V22.25H15.75V20.75H14.25ZM3.25 8.25H1.75V9.75H3.25V8.25ZM20.75 15.75H22.25V14.25H20.75V15.75ZM5.28033 4.21967L3.78033 2.71967L2.71967 3.78033L4.21967 5.28033L5.28033 4.21967ZM18.7197 19.7803L20.2197 21.2803L21.2803 20.2197L19.7803 18.7197L18.7197 19.7803ZM1.96967 15.0303L8.96967 22.0303L10.0303 20.9697L3.03033 13.9697L1.96967 15.0303ZM22.0303 8.96967L15.0303 1.96967L13.9697 3.03033L20.9697 10.0303L22.0303 8.96967ZM13.9697 1.96967L10.2197 5.71967L11.2803 6.78033L15.0303 3.03033L13.9697 1.96967ZM5.71967 10.2197L1.96967 13.9697L3.03033 15.0303L6.78033 11.2803L5.71967 10.2197ZM18.2803 13.7803L22.0303 10.0303L20.9697 8.96967L17.2197 12.7197L18.2803 13.7803ZM10.0303 22.0303L13.7803 18.2803L12.7197 17.2197L8.96967 20.9697L10.0303 22.0303Z" fill="black"/>
</svg>
