<svg width="24" height="24" viewBox="0 0 24 24" fill="none" xmlns="http://www.w3.org/2000/svg">
<path d="M12 21.25C17.1086 21.25 21.25 17.1086 21.25 12C21.25 6.89137 17.1086 2.75 12 2.75C6.89137 2.75 2.75 6.89137 2.75 12C2.75 13.529 3.12096 14.9713 3.77778 16.2418L2.75 21.25L7.88889 20.2885C9.12732 20.9039 10.5232 21.25 12 21.25Z" stroke="black" stroke-width="1.5" stroke-linecap="round"/>
<path d="M6.75 11.75C6.75 12.1642 7.08579 12.5 7.5 12.5C7.91421 12.5 8.25 12.1642 8.25 11.75C8.25 11.3358 7.91421 11 7.5 11C7.08579 11 6.75 11.3358 6.75 11.75ZM11.25 11.75C11.25 12.1642 11.5858 12.5 12 12.5C12.4142 12.5 12.75 12.1642 12.75 11.75C12.75 11.3358 12.4142 11 12 11C11.5858 11 11.25 11.3358 11.25 11.75ZM15.75 11.75C15.75 12.1642 16.0858 12.5 16.5 12.5C16.9142 12.5 17.25 12.1642 17.25 11.75C17.25 11.3358 16.9142 11 16.5 11C16.0858 11 15.75 11.3358 15.75 11.75Z" fill="black" stroke="black" stroke-width="0.5" stroke-linecap="square"/>
</svg>
