<svg width="24" height="24" viewBox="0 0 24 24" fill="none" xmlns="http://www.w3.org/2000/svg">
<path d="M3.75 3.75V3H3V3.75H3.75ZM20.25 3.75H21V3H20.25V3.75ZM20.25 18.25V19H21V18.25H20.25ZM3.75 18.25H3V19H3.75V18.25ZM11.9979 20.75L11.5161 21.3248L11.9951 21.7263L12.4764 21.3275L11.9979 20.75ZM15.0155 18.25V17.5H14.7452L14.537 17.6725L15.0155 18.25ZM9.0155 18.25L9.49731 17.6752L9.28827 17.5H9.0155V18.25ZM11.272 11.9133V12.6633H12.772V11.9133H11.272ZM3.75 4.5H20.25V3H3.75V4.5ZM19.5 3.75V18.25H21V3.75H19.5ZM4.5 18.25V3.75H3V18.25H4.5ZM20.25 17.5H15.0155V19H20.25V17.5ZM14.537 17.6725L11.5194 20.1725L12.4764 21.3275L15.494 18.8275L14.537 17.6725ZM12.4797 20.1752L9.49731 17.6752L8.5337 18.8248L11.5161 21.3248L12.4797 20.1752ZM9.0155 17.5H3.75V19H9.0155V17.5ZM12.772 11.9133C12.772 11.7536 12.8193 11.6574 12.89 11.571C12.9796 11.4615 13.1069 11.3673 13.3032 11.2339L12.46 9.99327C12.0948 10.2415 11.272 10.7793 11.272 11.9133H12.772ZM13.3032 11.2339C13.7232 10.9484 14.3737 10.4252 14.3737 9.42768H12.8737C12.8737 9.56123 12.8379 9.6406 12.7876 9.70897C12.7249 9.79415 12.6243 9.88163 12.46 9.99327L13.3032 11.2339ZM14.3737 9.42768C14.3737 8.18351 13.3734 7.16333 12.1237 7.16333V8.66333C12.5315 8.66333 12.8737 8.99844 12.8737 9.42768H14.3737ZM12.1237 7.16333C10.874 7.16333 9.87366 8.18351 9.87366 9.42768H11.3737C11.3737 8.99844 11.7158 8.66333 12.1237 8.66333V7.16333Z" fill="black"/>
<path d="M11.25 14.5C11.25 14.9142 11.5858 15.25 12 15.25C12.4142 15.25 12.75 14.9142 12.75 14.5C12.75 14.0858 12.4142 13.75 12 13.75C11.5858 13.75 11.25 14.0858 11.25 14.5Z" fill="black" stroke="black" stroke-width="0.5"/>
</svg>
