<svg width="24" height="24" viewBox="0 0 24 24" fill="none" xmlns="http://www.w3.org/2000/svg">
<path d="M20.252 3.75H3.75195V21.75L7.75195 19.25H20.252V3.75Z" stroke="black" stroke-width="1.5" stroke-linecap="square"/>
<path d="M6.75 11.5C6.75 11.9142 7.08579 12.25 7.5 12.25C7.91421 12.25 8.25 11.9142 8.25 11.5C8.25 11.0858 7.91421 10.75 7.5 10.75C7.08579 10.75 6.75 11.0858 6.75 11.5ZM11.25 11.5C11.25 11.9142 11.5858 12.25 12 12.25C12.4142 12.25 12.75 11.9142 12.75 11.5C12.75 11.0858 12.4142 10.75 12 10.75C11.5858 10.75 11.25 11.0858 11.25 11.5ZM15.75 11.5C15.75 11.9142 16.0858 12.25 16.5 12.25C16.9142 12.25 17.25 11.9142 17.25 11.5C17.25 11.0858 16.9142 10.75 16.5 10.75C16.0858 10.75 15.75 11.0858 15.75 11.5Z" fill="black" stroke="black" stroke-width="0.5" stroke-linecap="square"/>
</svg>
