<svg width="24" height="24" viewBox="0 0 24 24" fill="none" xmlns="http://www.w3.org/2000/svg">
<path d="M2.75 3.75H21.25V18.25H15.0155L11.9979 20.75L9.0155 18.25H2.75V3.75Z" stroke="black" stroke-width="1.5"/>
<path d="M9.52309 8C8.40577 8 7.5 8.91026 7.5 10.0331C7.5 11.156 8.40577 12.0662 9.52309 12.0662C9.80224 12.0662 10.0682 12.0094 10.3101 11.9067C10.2619 11.9952 10.2095 12.0788 10.1535 12.1583C9.80027 12.6602 9.2779 13.0429 8.59934 13.4975L8.22528 13.7482L8.72403 14.5L9.0981 14.2494C9.76827 13.8004 10.426 13.3359 10.8876 12.6801C11.3621 12.006 11.6045 11.17 11.5461 10.0207C11.5395 8.90356 10.6363 8 9.52309 8Z" fill="black"/>
<path d="M14.4684 8C13.3511 8 12.4453 8.91026 12.4453 10.0331C12.4453 11.156 13.3511 12.0662 14.4684 12.0662C14.7476 12.0662 15.0135 12.0094 15.2554 11.9067C15.2072 11.9952 15.1548 12.0788 15.0989 12.1583C14.7456 12.6602 14.2232 13.0429 13.5447 13.4975L13.1706 13.7482L13.6694 14.5L14.0434 14.2494C14.7136 13.8004 15.3713 13.3359 15.8329 12.6801C16.3074 12.006 16.5498 11.17 16.4915 10.0207C16.4848 8.90356 15.5816 8 14.4684 8Z" fill="black"/>
</svg>
