<svg width="24" height="24" viewBox="0 0 24 24" fill="none" xmlns="http://www.w3.org/2000/svg">
<path d="M2.75 18.25H2V19H2.75V18.25ZM2.75 3.75V3H2V3.75H2.75ZM21.25 18.25V19H22V18.25H21.25ZM15.0155 18.25V17.5H14.7452L14.537 17.6725L15.0155 18.25ZM11.9979 20.75L11.5161 21.3248L11.9951 21.7263L12.4764 21.3275L11.9979 20.75ZM9.0155 18.25L9.49731 17.6752L9.28827 17.5H9.0155V18.25ZM12.75 4.5H13.5V3H12.75V4.5ZM3.5 18.25V3.75H2V18.25H3.5ZM21.25 17.5H15.0155V19H21.25V17.5ZM14.537 17.6725L11.5194 20.1725L12.4764 21.3275L15.494 18.8275L14.537 17.6725ZM12.4797 20.1752L9.49731 17.6752L8.5337 18.8248L11.5161 21.3248L12.4797 20.1752ZM9.0155 17.5H2.75V19H9.0155V17.5ZM2.75 4.5H12.75V3H2.75V4.5ZM20.5 11.5V18.25H22V11.5H20.5ZM21.5 6C21.5 7.38071 20.3807 8.5 19 8.5V10C21.2091 10 23 8.20914 23 6H21.5ZM19 8.5C17.6193 8.5 16.5 7.38071 16.5 6H15C15 8.20914 16.7909 10 19 10V8.5ZM16.5 6C16.5 4.61929 17.6193 3.5 19 3.5V2C16.7909 2 15 3.79086 15 6H16.5ZM19 3.5C20.3807 3.5 21.5 4.61929 21.5 6H23C23 3.79086 21.2091 2 19 2V3.5Z" fill="black"/>
</svg>
