<svg width="24" height="24" viewBox="0 0 24 24" fill="none" xmlns="http://www.w3.org/2000/svg">
<path d="M3.75 3.75V3H3V3.75H3.75ZM20.25 3.75H21V3H20.25V3.75ZM20.25 20.25V21H21V20.25H20.25ZM3.75 20.25H3V21H3.75V20.25ZM11.5303 10.9697L11 10.4393L9.93934 11.5L10.4697 12.0303L11.5303 10.9697ZM13.25 13.75L13.7803 14.2803L14.3107 13.75L13.7803 13.2197L13.25 13.75ZM10.4697 15.4697L9.93934 16L11 17.0607L11.5303 16.5303L10.4697 15.4697ZM3.75 4.5H20.25V3H3.75V4.5ZM19.5 3.75V7.25H21V3.75H19.5ZM19.5 7.25V20.25H21V7.25H19.5ZM20.25 19.5H3.75V21H20.25V19.5ZM4.5 20.25V7.25H3V20.25H4.5ZM4.5 7.25V3.75H3V7.25H4.5ZM3.75 8H20.25V6.5H3.75V8ZM10.4697 12.0303L12.7197 14.2803L13.7803 13.2197L11.5303 10.9697L10.4697 12.0303ZM12.7197 13.2197L10.4697 15.4697L11.5303 16.5303L13.7803 14.2803L12.7197 13.2197Z" fill="black"/>
</svg>
