<svg width="24" height="24" viewBox="0 0 24 24" fill="none" xmlns="http://www.w3.org/2000/svg">
<path d="M3.75 4.75V4H3V4.75H3.75ZM20.25 4.75H21V4H20.25V4.75ZM3.75 20.25H3V21H3.75V20.25ZM8.5 2.75V2H7V2.75H8.5ZM17 2.75V2H15.5V2.75H17ZM19.5 8.75V9.5H21V8.75H19.5ZM8.75 21H9.5V19.5H8.75V21ZM17.75 14.75V14H16.25V14.75H17.75ZM17 16.9996H16.25V17.3102L16.4696 17.5299L17 16.9996ZM18.2196 19.2803L18.7499 19.8107L19.8107 18.7501L19.2804 18.2197L18.2196 19.2803ZM3.75 5.5H7.75V4H3.75V5.5ZM7.75 5.5H16.25V4H7.75V5.5ZM16.25 5.5H20.25V4H16.25V5.5ZM4.5 20.25V4.75H3V20.25H4.5ZM8.5 4.75V2.75H7V4.75H8.5ZM17 4.75V2.75H15.5V4.75H17ZM19.5 4.75V8.75H21V4.75H19.5ZM8.75 19.5H3.75V21H8.75V19.5ZM15.2787 12.8438C17.5742 11.893 20.2051 12.9832 21.1562 15.279L22.542 14.7049C21.274 11.6441 17.7659 10.19 14.7047 11.458L15.2787 12.8438ZM21.1562 15.279C22.107 17.5744 21.0168 20.2051 18.7209 21.1562L19.295 22.542C22.3558 21.2741 23.8101 17.7661 22.542 14.7049L21.1562 15.279ZM18.7209 21.1562C16.4254 22.107 13.7945 21.0168 12.8435 18.721L11.4576 19.295C12.7255 22.3558 16.2337 23.81 19.295 22.542L18.7209 21.1562ZM12.8435 18.721C11.8933 16.4263 12.983 13.7948 15.2787 12.8438L14.7047 11.458C11.6436 12.726 10.1906 16.2349 11.4576 19.295L12.8435 18.721ZM16.25 14.75V16.9996H17.75V14.75H16.25ZM16.4696 17.5299L18.2196 19.2803L19.2804 18.2197L17.5304 16.4693L16.4696 17.5299Z" fill="black"/>
</svg>
