<svg width="24" height="24" viewBox="0 0 24 24" fill="none" xmlns="http://www.w3.org/2000/svg">
<path d="M9.03033 11.2197L8.5 10.6893L7.43934 11.75L7.96967 12.2803L9.03033 11.2197ZM10.5 13.75L11.0303 14.2803L11.5607 13.75L11.0303 13.2197L10.5 13.75ZM7.96967 15.2197L7.43934 15.75L8.5 16.8107L9.03033 16.2803L7.96967 15.2197ZM14.0303 11.2197L13.5 10.6893L12.4393 11.75L12.9697 12.2803L14.0303 11.2197ZM15.5 13.75L16.0303 14.2803L16.5607 13.75L16.0303 13.2197L15.5 13.75ZM12.9697 15.2197L12.4393 15.75L13.5 16.8107L14.0303 16.2803L12.9697 15.2197ZM3.75 3.75V3H3V3.75H3.75ZM20.25 3.75H21V3H20.25V3.75ZM20.25 20.25V21H21V20.25H20.25ZM3.75 20.25H3V21H3.75V20.25ZM7.96967 12.2803L9.96967 14.2803L11.0303 13.2197L9.03033 11.2197L7.96967 12.2803ZM9.96967 13.2197L7.96967 15.2197L9.03033 16.2803L11.0303 14.2803L9.96967 13.2197ZM12.9697 12.2803L14.9697 14.2803L16.0303 13.2197L14.0303 11.2197L12.9697 12.2803ZM14.9697 13.2197L12.9697 15.2197L14.0303 16.2803L16.0303 14.2803L14.9697 13.2197ZM3.75 4.5H20.25V3H3.75V4.5ZM19.5 3.75V7.25H21V3.75H19.5ZM19.5 7.25V20.25H21V7.25H19.5ZM20.25 19.5H3.75V21H20.25V19.5ZM4.5 20.25V7.25H3V20.25H4.5ZM4.5 7.25V3.75H3V7.25H4.5ZM3.75 8H20.25V6.5H3.75V8Z" fill="black"/>
</svg>
