<svg width="24" height="24" viewBox="0 0 24 24" fill="none" xmlns="http://www.w3.org/2000/svg">
<path d="M21.25 18.25V22.25L17.25 18.25H21.25Z" fill="black"/>
<path d="M12.75 15.75V11.75L16.75 15.75H12.75Z" fill="black"/>
<path d="M3.75 4.75V4H3V4.75H3.75ZM20.25 4.75H21V4H20.25V4.75ZM10.25 21H11V19.5H10.25V21ZM3.75 20.25H3V21H3.75V20.25ZM20.25 9.25V10H21V9.25H20.25ZM3.75 5.5H7.75V4H3.75V5.5ZM7.75 5.5H16.25V4H7.75V5.5ZM16.25 5.5H20.25V4H16.25V5.5ZM10.25 19.5H3.75V21H10.25V19.5ZM4.5 20.25V9.25H3V20.25H4.5ZM4.5 9.25V4.75H3V9.25H4.5ZM3.75 10H20.25V8.5H3.75V10ZM8.5 4.75V2.75H7V4.75H8.5ZM17 4.75V2.75H15.5V4.75H17ZM19.5 4.75V9.25H21V4.75H19.5ZM17 20.25C15.2051 20.25 13.75 18.7949 13.75 17H12.25C12.25 19.6234 14.3766 21.75 17 21.75V20.25ZM17 13.75C18.7949 13.75 20.25 15.2051 20.25 17H21.75C21.75 14.3766 19.6234 12.25 17 12.25V13.75ZM19.1805 19.4341C18.5965 19.9421 17.8271 20.25 17 20.25V21.75C18.2018 21.75 19.3179 21.3027 20.1649 20.5659L19.1805 19.4341ZM14.6351 14.7392C15.2356 14.1293 16.0822 13.75 17 13.75V12.25C15.6668 12.25 14.439 12.8004 13.5662 13.6868L14.6351 14.7392Z" fill="black"/>
</svg>
