<svg width="24" height="24" viewBox="0 0 24 24" fill="none" xmlns="http://www.w3.org/2000/svg">
<path d="M3.75 4.75V4H3V4.75H3.75ZM20.25 4.75H21V4H20.25V4.75ZM11.25 21H12V19.5H11.25V21ZM3.75 20.25H3V21H3.75V20.25ZM8.5 2.75V2H7V2.75H8.5ZM17 2.75V2H15.5V2.75H17ZM19.5 11.25V12H21V11.25H19.5ZM16.2791 15.2197L15.7488 14.6893L14.6881 15.75L15.2184 16.2803L16.2791 15.2197ZM19.7184 20.7803L20.2488 21.3107L21.3094 20.25L20.7791 19.7197L19.7184 20.7803ZM15.2184 19.7197L14.6881 20.25L15.7488 21.3107L16.2791 20.7803L15.2184 19.7197ZM20.7791 16.2803L21.3094 15.75L20.2488 14.6893L19.7184 15.2197L20.7791 16.2803ZM3.75 5.5H7.75V4H3.75V5.5ZM7.75 5.5H16.25V4H7.75V5.5ZM16.25 5.5H20.25V4H16.25V5.5ZM11.25 19.5H3.75V21H11.25V19.5ZM4.5 20.25V9.25H3V20.25H4.5ZM4.5 9.25V4.75H3V9.25H4.5ZM3.75 10H20.25V8.5H3.75V10ZM8.5 4.75V2.75H7V4.75H8.5ZM17 4.75V2.75H15.5V4.75H17ZM19.5 4.75V9.25H21V4.75H19.5ZM19.5 9.25V11.25H21V9.25H19.5ZM15.2184 16.2803L17.4684 18.5303L18.5291 17.4697L16.2791 15.2197L15.2184 16.2803ZM17.4684 18.5303L19.7184 20.7803L20.7791 19.7197L18.5291 17.4697L17.4684 18.5303ZM16.2791 20.7803L18.5291 18.5303L17.4684 17.4697L15.2184 19.7197L16.2791 20.7803ZM18.5291 18.5303L20.7791 16.2803L19.7184 15.2197L17.4684 17.4697L18.5291 18.5303Z" fill="black"/>
</svg>
