<svg width="24" height="24" viewBox="0 0 24 24" fill="none" xmlns="http://www.w3.org/2000/svg">
<path d="M3.75 4.75V4H3V4.75H3.75ZM20.25 4.75H21V4H20.25V4.75ZM11.25 21H12V19.5H11.25V21ZM3.75 20.25H3V21H3.75V20.25ZM8.5 2.75V2H7V2.75H8.5ZM17 2.75V2H15.5V2.75H17ZM19.5 12.25V13H21V12.25H19.5ZM16.9167 21.25L16.3823 21.7763L16.9793 22.3824L17.5058 21.7142L16.9167 21.25ZM21.8391 16.2142L22.3033 15.625L21.125 14.6967L20.6609 15.2858L21.8391 16.2142ZM15.2844 18.5237L14.7581 17.9894L13.6894 19.0419L14.2156 19.5763L15.2844 18.5237ZM3.75 5.5H7.75V4H3.75V5.5ZM7.75 5.5H16.25V4H7.75V5.5ZM16.25 5.5H20.25V4H16.25V5.5ZM11.25 19.5H3.75V21H11.25V19.5ZM4.5 20.25V9.25H3V20.25H4.5ZM4.5 9.25V4.75H3V9.25H4.5ZM3.75 10H20.25V8.5H3.75V10ZM8.5 4.75V2.75H7V4.75H8.5ZM17 4.75V2.75H15.5V4.75H17ZM19.5 4.75V9.25H21V4.75H19.5ZM19.5 9.25V12.25H21V9.25H19.5ZM17.5058 21.7142L21.8391 16.2142L20.6609 15.2858L16.3275 20.7858L17.5058 21.7142ZM14.2156 19.5763L16.3823 21.7763L17.451 20.7237L15.2844 18.5237L14.2156 19.5763Z" fill="black"/>
</svg>
