<svg width="24" height="24" viewBox="0 0 24 24" fill="none" xmlns="http://www.w3.org/2000/svg">
<path d="M3.75 4.75V4H3V4.75H3.75ZM20.25 4.75H21V4H20.25V4.75ZM11.25 21H12V19.5H11.25V21ZM3.75 20.25H3V21H3.75V20.25ZM8.5 2.75V2H7V2.75H8.5ZM17 2.75V2H15.5V2.75H17ZM19.5 10.25V11H21V10.25H19.5ZM16.75 21.25V22H17.0607L17.2803 21.7803L16.75 21.25ZM22.25 15.75L22.7803 16.2803L23.3107 15.75L22.7803 15.2197L22.25 15.75ZM14.75 21.25H14V22H14.75V21.25ZM14.75 19.25L14.2197 18.7197L14 18.9393V19.25H14.75ZM20.25 13.75L20.7803 13.2197L20.25 12.6893L19.7197 13.2197L20.25 13.75ZM3.75 5.5H7.75V4H3.75V5.5ZM7.75 5.5H16.25V4H7.75V5.5ZM16.25 5.5H20.25V4H16.25V5.5ZM11.25 19.5H3.75V21H11.25V19.5ZM4.5 20.25V9.25H3V20.25H4.5ZM4.5 9.25V4.75H3V9.25H4.5ZM3.75 10H20.25V8.5H3.75V10ZM8.5 4.75V2.75H7V4.75H8.5ZM17 4.75V2.75H15.5V4.75H17ZM19.5 4.75V9.25H21V4.75H19.5ZM19.5 9.25V10.25H21V9.25H19.5ZM17.2803 21.7803L22.7803 16.2803L21.7197 15.2197L16.2197 20.7197L17.2803 21.7803ZM16.75 20.5H14.75V22H16.75V20.5ZM15.5 21.25V19.25H14V21.25H15.5ZM15.2803 19.7803L20.7803 14.2803L19.7197 13.2197L14.2197 18.7197L15.2803 19.7803ZM19.7197 14.2803L21.7197 16.2803L22.7803 15.2197L20.7803 13.2197L19.7197 14.2803Z" fill="black"/>
</svg>
