<svg width="24" height="24" viewBox="0 0 24 24" fill="none" xmlns="http://www.w3.org/2000/svg">
<path d="M3.75 4.75V4H3V4.75H3.75ZM20.25 4.75H21V4H20.25V4.75ZM11.25 21H12V19.5H11.25V21ZM3.75 20.25H3V21H3.75V20.25ZM8.5 2.75V2H7V2.75H8.5ZM17 2.75V2H15.5V2.75H17ZM19.5 11.25V12H21V11.25H19.5ZM18.5 14.75V14H17V14.75H18.5ZM17 21.25V22H18.5V21.25H17ZM14.5 17.25H13.75V18.75H14.5V17.25ZM21 18.75H21.75V17.25H21V18.75ZM3.75 5.5H7.75V4H3.75V5.5ZM7.75 5.5H16.25V4H7.75V5.5ZM16.25 5.5H20.25V4H16.25V5.5ZM11.25 19.5H3.75V21H11.25V19.5ZM4.5 20.25V9.25H3V20.25H4.5ZM4.5 9.25V4.75H3V9.25H4.5ZM3.75 10H20.25V8.5H3.75V10ZM8.5 4.75V2.75H7V4.75H8.5ZM17 4.75V2.75H15.5V4.75H17ZM19.5 4.75V9.25H21V4.75H19.5ZM19.5 9.25V11.25H21V9.25H19.5ZM17 14.75V18H18.5V14.75H17ZM17 18V21.25H18.5V18H17ZM14.5 18.75H17.75V17.25H14.5V18.75ZM17.75 18.75H21V17.25H17.75V18.75Z" fill="black"/>
</svg>
