<svg width="24" height="24" viewBox="0 0 24 24" fill="none" xmlns="http://www.w3.org/2000/svg">
<path d="M3.75 4.75V4H3V4.75H3.75ZM20.25 4.75H21V4H20.25V4.75ZM11.25 21H12V19.5H11.25V21ZM3.75 20.25H3V21H3.75V20.25ZM8.5 2.75V2H7V2.75H8.5ZM17 2.75V2H15.5V2.75H17ZM19.5 11.25V12H21V11.25H19.5ZM20.7197 21.773L21.25 22.3033L22.3107 21.2426L21.7803 20.7123L20.7197 21.773ZM3.75 5.5H7.75V4H3.75V5.5ZM7.75 5.5H16.25V4H7.75V5.5ZM16.25 5.5H20.25V4H16.25V5.5ZM11.25 19.5H3.75V21H11.25V19.5ZM4.5 20.25V9.25H3V20.25H4.5ZM4.5 9.25V4.75H3V9.25H4.5ZM3.75 10H20.25V8.5H3.75V10ZM8.5 4.75V2.75H7V4.75H8.5ZM17 4.75V2.75H15.5V4.75H17ZM19.5 4.75V9.25H21V4.75H19.5ZM19.5 9.25V11.25H21V9.25H19.5ZM18.841 18.8336C17.9623 19.7123 16.5377 19.7123 15.659 18.8336L14.5983 19.8943C16.0628 21.3588 18.4372 21.3588 19.9016 19.8943L18.841 18.8336ZM15.659 18.8336C14.7803 17.955 14.7803 16.5303 15.659 15.6517L14.5983 14.591C13.1339 16.0555 13.1339 18.4298 14.5983 19.8943L15.659 18.8336ZM15.659 15.6517C16.5377 14.773 17.9623 14.773 18.841 15.6517L19.9017 14.591C18.4372 13.1265 16.0628 13.1265 14.5983 14.591L15.659 15.6517ZM18.841 15.6517C19.7197 16.5303 19.7197 17.955 18.841 18.8336L19.9016 19.8943C21.3661 18.4298 21.3661 16.0555 19.9017 14.591L18.841 15.6517ZM18.841 19.8943L20.7197 21.773L21.7803 20.7123L19.9016 18.8336L18.841 19.8943Z" fill="black"/>
</svg>
