<svg width="24" height="24" viewBox="0 0 24 24" fill="none" xmlns="http://www.w3.org/2000/svg">
<path d="M3.75 3.75V3H3V3.75H3.75ZM20.25 3.75H21V3H20.25V3.75ZM20.25 20.25V21H21V20.25H20.25ZM3.75 20.25H3V21H3.75V20.25ZM3.75 4.5H20.25V3H3.75V4.5ZM19.5 3.75V7.25H21V3.75H19.5ZM19.5 7.25V20.25H21V7.25H19.5ZM20.25 19.5H3.75V21H20.25V19.5ZM4.5 20.25V7.25H3V20.25H4.5ZM4.5 7.25V3.75H3V7.25H4.5ZM3.75 8H20.25V6.5H3.75V8ZM13 13.75C13 14.3023 12.5523 14.75 12 14.75V16.25C13.3807 16.25 14.5 15.1307 14.5 13.75H13ZM12 14.75C11.4477 14.75 11 14.3023 11 13.75H9.5C9.5 15.1307 10.6193 16.25 12 16.25V14.75ZM11 13.75C11 13.1977 11.4477 12.75 12 12.75V11.25C10.6193 11.25 9.5 12.3693 9.5 13.75H11ZM12 12.75C12.5523 12.75 13 13.1977 13 13.75H14.5C14.5 12.3693 13.3807 11.25 12 11.25V12.75Z" fill="black"/>
</svg>
