<svg width="24" height="24" viewBox="0 0 24 24" fill="none" xmlns="http://www.w3.org/2000/svg">
<path fill-rule="evenodd" clip-rule="evenodd" d="M3.75011 21.3108L21.3108 3.75011L20.2501 2.68945L10.8239 12.1157C10.2398 11.4559 9.72588 10.7327 9.29367 9.95774L11.0981 8.2255L9.56118 3H3.01311L3.00197 3.73869C3.00066 3.82564 3 3.91275 3 4C3 7.10297 3.83203 10.0139 5.28566 12.5194C5.90372 13.5846 6.63409 14.5766 7.4606 15.479L2.68945 20.2501L3.75011 21.3108ZM8.52238 14.4172L9.76145 13.1781C8.94504 12.268 8.24825 11.2483 7.69571 10.1437L7.44858 9.6497L9.40191 7.7745L8.43882 4.5H4.50791C4.59162 7.14367 5.33684 9.61855 6.58311 11.7666C7.13565 12.719 7.78674 13.6072 8.52238 14.4172Z" fill="black"/>
<path d="M12.2333 17.4169C11.7177 17.1178 11.2209 16.7897 10.7452 16.4351L9.67432 17.5059C10.2486 17.9456 10.8518 18.3496 11.4805 18.7143C13.986 20.168 16.8969 21 19.9999 21H20.9999V14.4388L15.7744 12.9019L14.0422 14.7063C13.7097 14.5209 13.3868 14.3205 13.0743 14.1059L11.9976 15.1827C12.5843 15.6033 13.2055 15.9788 13.8562 16.3043L14.3502 16.5514L16.2254 14.5981L19.4999 15.5612V19.4921C16.8562 19.4084 14.3814 18.6632 12.2333 17.4169Z" fill="black"/>
</svg>
