<svg width="24" height="24" viewBox="0 0 24 24" fill="none" xmlns="http://www.w3.org/2000/svg">
<path d="M7 9V8.99M2.75 4.75H4.5L5.5 3.75H8.5L9.5 4.75H21.25V19.25H2.75V4.75ZM17.25 12C17.25 13.7949 15.7949 15.25 14 15.25C12.2051 15.25 10.75 13.7949 10.75 12C10.75 10.2051 12.2051 8.75 14 8.75C15.7949 8.75 17.25 10.2051 17.25 12ZM7.25 9C7.25 9.13807 7.13807 9.25 7 9.25C6.86193 9.25 6.75 9.13807 6.75 9C6.75 8.86193 6.86193 8.75 7 8.75C7.13807 8.75 7.25 8.86193 7.25 9Z" stroke="black" stroke-width="1.5" stroke-linecap="round"/>
</svg>
