<svg width="24" height="24" viewBox="0 0 24 24" fill="none" xmlns="http://www.w3.org/2000/svg">
<path d="M2.75011 6.74999V5.99999H2.00011V6.74999H2.75011ZM2.75011 20.25H2.00011V21H2.75011V20.25ZM21.2501 6.74999H22.0001V5.99999H21.2501V6.74999ZM16.5001 6.74999L15.8761 7.16602L16.0987 7.49999H16.5001V6.74999ZM14.5001 3.74999L15.1241 3.33396L14.9015 2.99999H14.5001V3.74999ZM9.75011 2.99999H9.00011V4.49999H9.75011V2.99999ZM20.5001 16.25V17H22.0001V16.25H20.5001ZM3.28044 2.21966L2.75011 1.68933L1.68945 2.74999L2.21978 3.28032L3.28044 2.21966ZM20.7198 21.7803L21.2501 22.3107L22.3108 21.25L21.7804 20.7197L20.7198 21.7803ZM15.1529 15.4619L15.6148 14.8711L14.4331 13.9472L13.9712 14.5381L15.1529 15.4619ZM10.462 11.0289L11.0529 10.567L10.129 9.38528L9.53819 9.8472L10.462 11.0289ZM2.00011 6.74999V20.25H3.50011V6.74999H2.00011ZM21.2501 5.99999H16.5001V7.49999H21.2501V5.99999ZM17.1241 6.33396L15.1241 3.33396L13.8761 4.16602L15.8761 7.16602L17.1241 6.33396ZM14.5001 2.99999H9.75011V4.49999H14.5001V2.99999ZM22.0001 16.25V6.74999H20.5001V16.25H22.0001ZM12.0001 15.5C10.6194 15.5 9.50011 14.3807 9.50011 13H8.00011C8.00011 15.2091 9.79097 17 12.0001 17V15.5ZM2.21978 3.28032L6.21978 7.28032L7.28044 6.21966L3.28044 2.21966L2.21978 3.28032ZM2.75011 7.49999H6.75011V5.99999H2.75011V7.49999ZM19.7198 20.7803L20.7198 21.7803L21.7804 20.7197L20.7804 19.7197L19.7198 20.7803ZM2.75011 21H20.2501V19.5H2.75011V21ZM13.9712 14.5381C13.5123 15.125 12.8002 15.5 12.0001 15.5V17C13.2813 17 14.422 16.3968 15.1529 15.4619L13.9712 14.5381ZM9.50011 13C9.50011 12.1999 9.87514 11.4878 10.462 11.0289L9.53819 9.8472C8.60331 10.5781 8.00011 11.7188 8.00011 13H9.50011ZM6.21978 7.28032L19.7198 20.7803L20.7804 19.7197L7.28044 6.21966L6.21978 7.28032Z" fill="black"/>
</svg>
