<svg width="24" height="24" viewBox="0 0 24 24" fill="none" xmlns="http://www.w3.org/2000/svg">
<path d="M2.75 3.75H21.25V20.25H2.75V3.75Z" stroke="black" stroke-width="1.5"/>
<path d="M15.25 12C15.25 13.7949 13.7949 15.25 12 15.25C10.2051 15.25 8.75 13.7949 8.75 12C8.75 10.2051 10.2051 8.75 12 8.75C13.7949 8.75 15.25 10.2051 15.25 12Z" stroke="black" stroke-width="1.5"/>
<path d="M17.5 7.5V7.49M17.75 7.5C17.75 7.63807 17.6381 7.75 17.5 7.75C17.3619 7.75 17.25 7.63807 17.25 7.5C17.25 7.36193 17.3619 7.25 17.5 7.25C17.6381 7.25 17.75 7.36193 17.75 7.5Z" stroke="black" stroke-width="1.5" stroke-linecap="round"/>
</svg>
