<svg width="24" height="24" viewBox="0 0 24 24" fill="none" xmlns="http://www.w3.org/2000/svg">
<path d="M2.50011 14.5L1.96978 13.9697L1.43945 14.5L1.96978 15.0303L2.50011 14.5ZM9.50011 21.5L8.96978 22.0303L9.50011 22.5607L10.0304 22.0303L9.50011 21.5ZM21.5001 9.49999L22.0304 10.0303L22.5608 9.49999L22.0304 8.96966L21.5001 9.49999ZM14.5001 2.49999L15.0304 1.96966L14.5001 1.43933L13.9698 1.96966L14.5001 2.49999ZM10.2198 5.71966L9.68945 6.24999L10.7501 7.31065L11.2804 6.78032L10.2198 5.71966ZM6.78044 11.2803L7.31077 10.75L6.25011 9.68933L5.71978 10.2197L6.78044 11.2803ZM17.2198 12.7197L16.6894 13.25L17.7501 14.3107L18.2804 13.7803L17.2198 12.7197ZM13.7804 18.2803L14.3108 17.75L13.2501 16.6893L12.7198 17.2197L13.7804 18.2803ZM8.46978 14.4697L7.93945 15L9.00011 16.0607L9.53044 15.5303L8.46978 14.4697ZM15.5304 9.53032L16.0608 8.99999L15.0001 7.93933L14.4698 8.46966L15.5304 9.53032ZM1.96978 15.0303L8.96978 22.0303L10.0304 20.9697L3.03044 13.9697L1.96978 15.0303ZM22.0304 8.96966L15.0304 1.96966L13.9698 3.03032L20.9698 10.0303L22.0304 8.96966ZM13.9698 1.96966L10.2198 5.71966L11.2804 6.78032L15.0304 3.03032L13.9698 1.96966ZM5.71978 10.2197L1.96978 13.9697L3.03044 15.0303L6.78044 11.2803L5.71978 10.2197ZM18.2804 13.7803L22.0304 10.0303L20.9698 8.96966L17.2198 12.7197L18.2804 13.7803ZM10.0304 22.0303L13.7804 18.2803L12.7198 17.2197L8.96978 20.9697L10.0304 22.0303ZM9.53044 15.5303L15.5304 9.53032L14.4698 8.46966L8.46978 14.4697L9.53044 15.5303Z" fill="black"/>
</svg>
