<svg width="24" height="24" viewBox="0 0 24 24" fill="none" xmlns="http://www.w3.org/2000/svg">
<path d="M6.75 11.25H6V12.75H6.75V11.25ZM17.25 12.75H18V11.25H17.25V12.75ZM22.25 6.75H23V6H22.25V6.75ZM22.25 17.25V18H23V17.25H22.25ZM15.75 16.5H15V18H15.75V16.5ZM15.75 6H15V7.5H15.75V6ZM1.75 6.75V6H1V6.75H1.75ZM1.75 17.25H1V18H1.75V17.25ZM8.25 18H9V16.5H8.25V18ZM8.25 7.5H9V6H8.25V7.5ZM6.75 12.75H17.25V11.25H6.75V12.75ZM21.5 6.75V17.25H23V6.75H21.5ZM22.25 16.5H15.75V18H22.25V16.5ZM15.75 7.5H22.25V6H15.75V7.5ZM1 6.75V17.25H2.5V6.75H1ZM1.75 18H8.25V16.5H1.75V18ZM8.25 6H1.75V7.5H8.25V6Z" fill="black"/>
</svg>
