<svg width="24" height="24" viewBox="0 0 24 24" fill="none" xmlns="http://www.w3.org/2000/svg">
<path d="M20.25 17.25V18H21V17.25H20.25ZM3.74999 17.25H2.99999V18H3.74999V17.25ZM13.376 20.666L13.792 21.2901L15.0401 20.458L14.624 19.834L13.376 20.666ZM9.37595 19.834L8.95993 20.458L10.208 21.2901L10.624 20.666L9.37595 19.834ZM12.75 7.75V7H11.25V7.75H12.75ZM11.25 13.25V14H12.75V13.25H11.25ZM8.99999 11.75V11H7.49999V11.75H8.99999ZM7.49999 13.25V14H8.99999V13.25H7.49999ZM16.5 9.75V9H15V9.75H16.5ZM15 13.25V14H16.5V13.25H15ZM12.9578 17.3346L12.5418 16.7106L11.2937 17.5426L11.7097 18.1667L12.9578 17.3346ZM12.2903 18.1667L12.7063 17.5426L11.4582 16.7106L11.0422 17.3346L12.2903 18.1667ZM3.74999 4.5H20.25V3H3.74999V4.5ZM19.5 3.75V17.25H21V3.75H19.5ZM4.49999 17.25V3.75H2.99999V17.25H4.49999ZM20.25 4.5H23V3H20.25V4.5ZM23 3H3.74999V4.5H23V3ZM1 4.5H3.74999V3H1V4.5ZM11.25 7.75V13.25H12.75V7.75H11.25ZM7.49999 11.75V13.25H8.99999V11.75H7.49999ZM15 9.75V13.25H16.5V9.75H15ZM11.7097 18.1667L13.376 20.666L14.624 19.834L12.9578 17.3346L11.7097 18.1667ZM11.0422 17.3346L9.37595 19.834L10.624 20.666L12.2903 18.1667L11.0422 17.3346ZM20.25 16.5H3.74999V18H20.25V16.5Z" fill="black"/>
</svg>
