<svg width="24" height="24" viewBox="0 0 24 24" fill="none" xmlns="http://www.w3.org/2000/svg">
<path d="M8.5 14.25C9.74264 14.25 10.75 13.2426 10.75 12C10.75 10.7574 9.74264 9.75 8.5 9.75C7.25736 9.75 6.25 10.7574 6.25 12C6.25 13.2426 7.25736 14.25 8.5 14.25ZM8.5 14.25H15.5M15.5 14.25C16.7426 14.25 17.75 13.2426 17.75 12C17.75 10.7574 16.7426 9.75 15.5 9.75C14.2574 9.75 13.25 10.7574 13.25 12C13.25 13.2426 14.2574 14.25 15.5 14.25ZM21.25 12C21.25 17.1086 17.1086 21.25 12 21.25C6.89137 21.25 2.75 17.1086 2.75 12C2.75 6.89137 6.89137 2.75 12 2.75C17.1086 2.75 21.25 6.89137 21.25 12Z" stroke="black" stroke-width="1.5" stroke-linecap="round" stroke-linejoin="round"/>
</svg>
