<svg width="24" height="24" viewBox="0 0 24 24" fill="none" xmlns="http://www.w3.org/2000/svg">
<path d="M12.75 7.75V7H11.25V7.75H12.75ZM12 12H11.25V12.3107L11.4697 12.5303L12 12ZM14.2197 15.2803C14.5126 15.5732 14.9874 15.5732 15.2803 15.2803C15.5732 14.9874 15.5732 14.5126 15.2803 14.2197L14.2197 15.2803ZM20.5 12C20.5 16.6944 16.6944 20.5 12 20.5V22C17.5228 22 22 17.5228 22 12H20.5ZM12 20.5C7.30558 20.5 3.5 16.6944 3.5 12H2C2 17.5228 6.47715 22 12 22V20.5ZM3.5 12C3.5 7.30558 7.30558 3.5 12 3.5V2C6.47715 2 2 6.47715 2 12H3.5ZM12 3.5C16.6944 3.5 20.5 7.30558 20.5 12H22C22 6.47715 17.5228 2 12 2V3.5ZM11.25 7.75V12H12.75V7.75H11.25ZM11.4697 12.5303L14.2197 15.2803L15.2803 14.2197L12.5303 11.4697L11.4697 12.5303Z" fill="black"/>
</svg>
