<svg width="24" height="24" viewBox="0 0 24 24" fill="none" xmlns="http://www.w3.org/2000/svg">
<path d="M12.75 9.75V9H11.25V9.75H12.75ZM12 11.9996H11.25V12.3102L11.4696 12.5299L12 11.9996ZM13.2196 14.2803L13.7499 14.8107L14.8107 13.7501L14.2804 13.2197L13.2196 14.2803ZM3.75 3.75V3H3V3.75H3.75ZM20.25 3.75H21V3H20.25V3.75ZM20.25 20.25V21H21V20.25H20.25ZM3.75 20.25H3V21H3.75V20.25ZM10.2787 7.84383C12.5742 6.89296 15.2051 7.98319 16.1562 10.279L17.542 9.70491C16.274 6.64415 12.7659 5.18996 9.70467 6.45802L10.2787 7.84383ZM16.1562 10.279C17.107 12.5744 16.0168 15.2051 13.7209 16.1562L14.295 17.542C17.3558 16.2741 18.8101 12.7661 17.542 9.70491L16.1562 10.279ZM13.7209 16.1562C11.4254 17.107 8.79452 16.0168 7.84347 13.721L6.45762 14.295C7.72557 17.3558 11.2337 18.81 14.295 17.542L13.7209 16.1562ZM7.84347 13.721C6.89328 11.4263 7.98301 8.79478 10.2787 7.84383L9.70467 6.45802C6.64363 7.72599 5.19056 11.2349 6.45762 14.295L7.84347 13.721ZM11.25 9.75V11.9996H12.75V9.75H11.25ZM11.4696 12.5299L13.2196 14.2803L14.2804 13.2197L12.5304 11.4693L11.4696 12.5299ZM3.75 4.5H20.25V3H3.75V4.5ZM19.5 3.75V20.25H21V3.75H19.5ZM20.25 19.5H3.75V21H20.25V19.5ZM4.5 20.25V3.75H3V20.25H4.5Z" fill="black"/>
</svg>
