<svg width="24" height="24" viewBox="0 0 24 24" fill="none" xmlns="http://www.w3.org/2000/svg">
<path fill-rule="evenodd" clip-rule="evenodd" d="M10.4874 10.7626C9.80402 10.0791 8.69598 10.0791 8.01256 10.7626C7.32915 11.446 7.32915 12.554 8.01256 13.2374C8.69598 13.9209 9.80402 13.9209 10.4874 13.2374L11.5481 14.2981C10.2789 15.5673 8.22111 15.5673 6.9519 14.2981C5.6827 13.0289 5.6827 10.9711 6.9519 9.7019C8.22111 8.4327 10.2789 8.4327 11.5481 9.7019L10.4874 10.7626ZM16.7008 10.7626C16.0174 10.0791 14.9094 10.0791 14.2259 10.7626C13.5425 11.446 13.5425 12.554 14.2259 13.2374C14.9094 13.9209 16.0174 13.9209 16.7008 13.2374L17.7615 14.2981C16.4923 15.5673 14.4345 15.5673 13.1653 14.2981C11.8961 13.0289 11.8961 10.9711 13.1653 9.7019C14.4345 8.4327 16.4923 8.4327 17.7615 9.7019L16.7008 10.7626Z" fill="black"/>
<path d="M20.25 3.75H3.75V20.25H20.25V3.75Z" stroke="black" stroke-width="1.5" stroke-linecap="square"/>
</svg>
