<svg width="24" height="24" viewBox="0 0 24 24" fill="none" xmlns="http://www.w3.org/2000/svg">
<path d="M9.52521 5.28254C10.2797 4.94047 11.1176 4.75 12 4.75C15.3137 4.75 18 7.43629 18 10.75C18 10.8344 17.9983 10.9184 17.9948 11.002C18.038 11.0007 18.0814 11 18.125 11C20.4032 11 22.25 12.8468 22.25 15.125C22.25 15.9461 22.0101 16.7111 21.5966 17.3539M3 3L21 21M7 7.4322C6.72113 7.85163 6.49362 8.30816 6.32647 8.7928C3.74507 9.12339 1.75 11.3287 1.75 14C1.75 16.8995 4.10051 19.25 7 19.25H18.125C18.3363 19.25 18.544 19.2341 18.7468 19.2034" stroke="black" stroke-width="1.5" stroke-linecap="square"/>
</svg>
