<svg width="24" height="24" viewBox="0 0 24 24" fill="none" xmlns="http://www.w3.org/2000/svg">
<path d="M18.6152 10C18.9831 9.38088 19.1944 8.65692 19.1944 7.88333C19.1944 5.60056 17.3538 3.75 15.0833 3.75C13.171 3.75 11.5637 5.06271 11.1041 6.84075M8.91667 19.25C5.51091 19.25 2.75 16.4742 2.75 13.05C2.75 9.62583 5.51091 6.85 8.91667 6.85C9.65704 6.85 10.3669 6.98118 11.0246 7.22168C12.5748 7.78856 13.835 8.96283 14.5203 10.4583C15.1517 10.1333 15.867 9.95 16.625 9.95C17.2584 9.95 17.8621 10.078 18.4119 10.3098C20.079 11.0125 21.25 12.6687 21.25 14.6C21.25 17.1681 19.1793 19.25 16.625 19.25H8.91667Z" stroke="black" stroke-width="1.5"/>
</svg>
