<svg width="24" height="24" viewBox="0 0 24 24" fill="none" xmlns="http://www.w3.org/2000/svg">
<path d="M17.9948 11.002C17.9983 10.9184 18 10.8344 18 10.75C18 7.43629 15.3137 4.75 12 4.75C9.3716 4.75 7.13793 6.44009 6.32647 8.7928C3.74507 9.12339 1.75 11.3287 1.75 14C1.75 16.8995 4.10051 19.25 7 19.25H18.125C20.4032 19.25 22.25 17.4032 22.25 15.125C22.25 12.8468 20.4032 11 18.125 11C18.0814 11 18.038 11.0007 17.9948 11.002Z" stroke="black" stroke-width="1.5" stroke-linecap="round"/>
<path d="M12 11.75L14.25 10L12 8.25V9.25C10.067 9.25 8.5 10.817 8.5 12.75C8.5 14.683 10.067 16.25 12 16.25C13.933 16.25 15.5 14.683 15.5 12.75H14C14 13.8546 13.1046 14.75 12 14.75C10.8954 14.75 10 13.8546 10 12.75C10 11.6454 10.8954 10.75 12 10.75V11.75Z" fill="black"/>
</svg>
