<svg width="24" height="24" viewBox="0 0 24 24" fill="none" xmlns="http://www.w3.org/2000/svg">
<path d="M20.25 3.75H21V3H20.25V3.75ZM20.25 20.25V21H21V20.25H20.25ZM3.75 20.25H3V21H3.75V20.25ZM3.75 3.75V3H3V3.75H3.75ZM19.5 3.75V20.25H21V3.75H19.5ZM20.25 19.5H3.75V21H20.25V19.5ZM4.5 20.25V3.75H3V20.25H4.5ZM3.75 4.5H20.25V3H3.75V4.5ZM10.7812 10.0312V8.39062H9.28125V10.0312H10.7812ZM8.39062 10.7812H10.0312V9.28125H8.39062V10.7812ZM14.7188 10.0312V8.39062H13.2188V10.0312H14.7188ZM15.6094 9.28125H13.9688V10.7812H15.6094V9.28125ZM10.0312 10.7812H13.9688V9.28125H10.0312V10.7812ZM13.9688 13.2188H10.0312V14.7188H13.9688V13.2188ZM10.7812 13.9688V10.0312H9.28125V13.9688H10.7812ZM13.2188 10.0312V13.9688H14.7188V10.0312H13.2188ZM14.7188 15.6094V13.9688H13.2188V15.6094H14.7188ZM10.7812 15.6094V13.9688H9.28125V15.6094H10.7812ZM10.0312 13.2188H8.39062V14.7188H10.0312V13.2188ZM13.9688 14.7188H15.6094V13.2188H13.9688V14.7188ZM7.5 15.6094C7.5 15.1175 7.89875 14.7188 8.39062 14.7188V13.2188C7.07032 13.2188 6 14.2891 6 15.6094H7.5ZM18 15.6094C18 14.2891 16.9297 13.2188 15.6094 13.2188V14.7188C16.1013 14.7188 16.5 15.1175 16.5 15.6094H18ZM13.2188 15.6094C13.2188 16.9297 14.2891 18 15.6094 18V16.5C15.1175 16.5 14.7188 16.1013 14.7188 15.6094H13.2188ZM16.5 8.39062C16.5 8.8825 16.1013 9.28125 15.6094 9.28125V10.7812C16.9297 10.7812 18 9.71093 18 8.39062H16.5ZM14.7188 8.39062C14.7188 7.89875 15.1175 7.5 15.6094 7.5V6C14.2891 6 13.2188 7.07032 13.2188 8.39062H14.7188ZM8.39062 18C9.71093 18 10.7812 16.9297 10.7812 15.6094H9.28125C9.28125 16.1013 8.8825 16.5 8.39062 16.5V18ZM6 8.39062C6 9.71093 7.07032 10.7812 8.39062 10.7812V9.28125C7.89875 9.28125 7.5 8.8825 7.5 8.39062H6ZM8.39062 16.5C7.89875 16.5 7.5 16.1013 7.5 15.6094H6C6 16.9297 7.07032 18 8.39062 18V16.5ZM8.39062 6C7.07032 6 6 7.07032 6 8.39062H7.5C7.5 7.89875 7.89875 7.5 8.39062 7.5V6ZM15.6094 7.5C16.1013 7.5 16.5 7.89875 16.5 8.39062H18C18 7.07032 16.9297 6 15.6094 6V7.5ZM16.5 15.6094C16.5 16.1013 16.1013 16.5 15.6094 16.5V18C16.9297 18 18 16.9297 18 15.6094H16.5ZM10.7812 8.39062C10.7812 7.07032 9.71093 6 8.39062 6V7.5C8.8825 7.5 9.28125 7.89875 9.28125 8.39062H10.7812Z" fill="black"/>
</svg>
