<svg width="24" height="24" viewBox="0 0 24 24" fill="none" xmlns="http://www.w3.org/2000/svg">
<path d="M11.614 18.875L18.1813 7.5M18.1813 7.5L21.7832 13.7386L9.87535 20.6136M18.1813 7.5L18.489 6.96716L12.25 3.3651M12.25 3.3651V2.75H2.75V16.5C2.75 19.1234 4.87665 21.25 7.5 21.25C10.1234 21.25 12.25 19.1234 12.25 16.5V3.3651ZM9.25 16.5C9.25 17.4665 8.4665 18.25 7.5 18.25C6.5335 18.25 5.75 17.4665 5.75 16.5C5.75 15.5335 6.5335 14.75 7.5 14.75C8.4665 14.75 9.25 15.5335 9.25 16.5Z" stroke="black" stroke-width="1.5"/>
</svg>
