<svg width="24" height="24" viewBox="0 0 24 24" fill="none" xmlns="http://www.w3.org/2000/svg">
<path d="M2.75 4.75V4H2V4.75H2.75ZM21.25 4.75H22V4H21.25V4.75ZM2.75 19.25H2V20H2.75V19.25ZM21.25 12V12.75H22V12H21.25ZM11.25 20H12V18.5H11.25V20ZM2.75 5.5H21.25V4H2.75V5.5ZM3.5 19.25V12H2V19.25H3.5ZM3.5 12V4.75H2V12H3.5ZM20.5 4.75V12H22V4.75H20.5ZM2.75 12.75H21.25V11.25H2.75V12.75ZM11.25 18.5H2.75V20H11.25V18.5Z" fill="black"/>
<path d="M17.2802 16.2197L16.7499 15.6893L15.6892 16.75L16.2196 17.2803L17.2802 16.2197ZM20.7196 21.7803L21.2499 22.3107L22.3106 21.25L21.7802 20.7197L20.7196 21.7803ZM16.2196 20.7197L15.6892 21.25L16.7499 22.3107L17.2802 21.7803L16.2196 20.7197ZM21.7802 17.2803L22.3106 16.75L21.2499 15.6893L20.7196 16.2197L21.7802 17.2803ZM16.2196 17.2803L18.4696 19.5303L19.5302 18.4697L17.2802 16.2197L16.2196 17.2803ZM18.4696 19.5303L20.7196 21.7803L21.7802 20.7197L19.5302 18.4697L18.4696 19.5303ZM17.2802 21.7803L19.5302 19.5303L18.4696 18.4697L16.2196 20.7197L17.2802 21.7803ZM19.5302 19.5303L21.7802 17.2803L20.7196 16.2197L18.4696 18.4697L19.5302 19.5303Z" fill="black"/>
</svg>
