<svg width="24" height="24" viewBox="0 0 24 24" fill="none" xmlns="http://www.w3.org/2000/svg">
<path d="M2.75 4.75V4H2V4.75H2.75ZM21.25 4.75H22V4H21.25V4.75ZM11.25 20H12V18.5H11.25V20ZM2.75 19.25H2V20H2.75V19.25ZM21.25 12V12.75H22V12H21.25ZM2.75 5.5H21.25V4H2.75V5.5ZM11.25 18.5H2.75V20H11.25V18.5ZM3.5 19.25V12H2V19.25H3.5ZM3.5 12V4.75H2V12H3.5ZM20.5 4.75V12H22V4.75H20.5ZM2.75 12.75H21.25V11.25H2.75V12.75Z" fill="black"/>
<path d="M19.5 16.25V15.5H18V16.25H19.5ZM18 22.25V23H19.5V22.25H18ZM15.75 18.5H15V20H15.75V18.5ZM21.75 20H22.5V18.5H21.75V20ZM18 16.25V19.25H19.5V16.25H18ZM18 19.25V22.25H19.5V19.25H18ZM15.75 20H18.75V18.5H15.75V20ZM18.75 20H21.75V18.5H18.75V20Z" fill="black"/>
</svg>
