<svg width="24" height="24" viewBox="0 0 24 24" fill="none" xmlns="http://www.w3.org/2000/svg">
<path d="M2.75 19.25H2V20H2.75V19.25ZM2.75 4.75V4H2V4.75H2.75ZM12 19.25V20H12.75V19.25H12ZM21.25 4.75H22V4H21.25V4.75ZM20.5 10.25V11H22V10.25H20.5ZM3.5 19.25V4.75H2V19.25H3.5ZM12 18.5H2.75V20H12V18.5ZM20.5 4.75V10.25H22V4.75H20.5ZM2.75 5.5H12V4H2.75V5.5ZM12 5.5H21.25V4H12V5.5ZM12.75 19.25V4.75H11.25V19.25H12.75Z" fill="black"/>
<path d="M17.2802 14.2197L16.7499 13.6893L15.6892 14.75L16.2196 15.2803L17.2802 14.2197ZM20.7196 19.7803L21.2499 20.3107L22.3106 19.25L21.7802 18.7197L20.7196 19.7803ZM16.2196 18.7197L15.6892 19.25L16.7499 20.3107L17.2802 19.7803L16.2196 18.7197ZM21.7802 15.2803L22.3106 14.75L21.2499 13.6893L20.7196 14.2197L21.7802 15.2803ZM16.2196 15.2803L18.4696 17.5303L19.5302 16.4697L17.2802 14.2197L16.2196 15.2803ZM18.4696 17.5303L20.7196 19.7803L21.7802 18.7197L19.5302 16.4697L18.4696 17.5303ZM17.2802 19.7803L19.5302 17.5303L18.4696 16.4697L16.2196 18.7197L17.2802 19.7803ZM19.5302 17.5303L21.7802 15.2803L20.7196 14.2197L18.4696 16.4697L19.5302 17.5303Z" fill="black"/>
</svg>
