<svg width="24" height="24" viewBox="0 0 24 24" fill="none" xmlns="http://www.w3.org/2000/svg">
<path d="M14.2452 3.02438L13.0031 7.99995L9.0081 9.00495L8.0031 10.9999L3.7503 7.81174M14.2452 3.02438C13.5264 2.84514 12.7743 2.75 12 2.75C8.39887 2.75 5.27837 4.80785 3.7503 7.81174M14.2452 3.02438C18.2689 4.02764 21.25 7.66569 21.25 12C21.25 17.1086 17.1086 21.25 12 21.25C6.89137 21.25 2.75 17.1086 2.75 12C2.75 10.4925 3.11062 9.06923 3.7503 7.81174M15.0029 17L16.0029 15L13.0549 13.019L11.1119 12.895L10.0029 14L12.0029 17H15.0029Z" stroke="black" stroke-width="1.5" stroke-linecap="round"/>
</svg>
