<svg width="24" height="24" viewBox="0 0 24 24" fill="none" xmlns="http://www.w3.org/2000/svg">
<path d="M20.25 20.2501V21.0001H21V20.2501H20.25ZM3.75 20.2501H3V21.0001H3.75V20.2501ZM3.75 3.75011V3.00011H3V3.75011H3.75ZM11.25 4.50011H12V3.00011H11.25V4.50011ZM21 12.7501V12.0001H19.5V12.7501H21ZM12.75 8.25011L12.2197 7.71978L12 7.93945V8.25011H12.75ZM12.75 11.2501H12V12.0001H12.75V11.2501ZM15.75 11.2501V12.0001H16.0607L16.2803 11.7804L15.75 11.2501ZM18.75 2.25011L19.2803 1.71978L18.75 1.18945L18.2197 1.71978L18.75 2.25011ZM21.75 5.25011L22.2803 5.78044L22.8107 5.25011L22.2803 4.71978L21.75 5.25011ZM20.25 19.5001H3.75V21.0001H20.25V19.5001ZM4.5 20.2501V3.75011H3V20.2501H4.5ZM3.75 4.50011H11.25V3.00011H3.75V4.50011ZM19.5 12.7501V20.2501H21V12.7501H19.5ZM12 8.25011V11.2501H13.5V8.25011H12ZM12.75 12.0001H15.75V10.5001H12.75V12.0001ZM13.2803 8.78044L19.2803 2.78044L18.2197 1.71978L12.2197 7.71978L13.2803 8.78044ZM18.2197 2.78044L21.2197 5.78044L22.2803 4.71978L19.2803 1.71978L18.2197 2.78044ZM21.2197 4.71978L15.2197 10.7198L16.2803 11.7804L22.2803 5.78044L21.2197 4.71978Z" fill="black"/>
</svg>
