<svg width="24" height="24" viewBox="0 0 24 24" fill="none" xmlns="http://www.w3.org/2000/svg">
<path d="M8.75 12.2501L8.21967 11.7198L8 11.9394V12.2501H8.75ZM8.75 15.2501H8V16.0001H8.75V15.2501ZM11.75 15.2501V16.0001H12.0607L12.2803 15.7804L11.75 15.2501ZM18 3.00011L18.5303 2.46978L18 1.93945L17.4697 2.46978L18 3.00011ZM21 6.00011L21.5303 6.53044L22.0607 6.00011L21.5303 5.46978L21 6.00011ZM20.25 20.2501V21.0001H21V20.2501H20.25ZM3.75 20.2501H3V21.0001H3.75V20.2501ZM3.75 3.75011V3.00011H3V3.75011H3.75ZM11.25 4.50011H12V3.00011H11.25V4.50011ZM21 12.7501V12.0001H19.5V12.7501H21ZM8 12.2501V15.2501H9.5V12.2501H8ZM8.75 16.0001H11.75V14.5001H8.75V16.0001ZM9.28033 12.7804L18.5303 3.53044L17.4697 2.46978L8.21967 11.7198L9.28033 12.7804ZM17.4697 3.53044L20.4697 6.53044L21.5303 5.46978L18.5303 2.46978L17.4697 3.53044ZM20.4697 5.46978L11.2197 14.7198L12.2803 15.7804L21.5303 6.53044L20.4697 5.46978ZM20.25 19.5001H3.75V21.0001H20.25V19.5001ZM4.5 20.2501V3.75011H3V20.2501H4.5ZM3.75 4.50011H11.25V3.00011H3.75V4.50011ZM19.5 12.7501V20.2501H21V12.7501H19.5Z" fill="black"/>
</svg>
