<svg width="24" height="24" viewBox="0 0 24 24" fill="none" xmlns="http://www.w3.org/2000/svg">
<path d="M21.2502 4.75H22.0002V4H21.2502V4.75ZM21.2502 19.25V20H22.0002V19.25H21.2502ZM2.75022 19.25H2.00022V20H2.75022V19.25ZM2.75022 4.75V4H2.00022V4.75H2.75022ZM12.0002 13L11.5253 13.5805L12.0002 13.969L12.4751 13.5805L12.0002 13ZM3.47515 5.0559L2.89468 4.58097L1.94482 5.7419L2.52529 6.21683L3.47515 5.0559ZM21.4751 6.21683L22.0556 5.7419L21.1057 4.58097L20.5253 5.0559L21.4751 6.21683ZM20.5002 4.75V19.25H22.0002V4.75H20.5002ZM21.2502 18.5H2.75022V20H21.2502V18.5ZM3.50022 19.25V4.75H2.00022V19.25H3.50022ZM2.75022 5.5H21.2502V4H2.75022V5.5ZM12.4751 12.4195L3.47515 5.0559L2.52529 6.21683L11.5253 13.5805L12.4751 12.4195ZM20.5253 5.0559L11.5253 12.4195L12.4751 13.5805L21.4751 6.21683L20.5253 5.0559Z" fill="black"/>
</svg>
