<svg width="24" height="24" viewBox="0 0 24 24" fill="none" xmlns="http://www.w3.org/2000/svg">
<path d="M14.8287 14.8284C13.2666 16.3905 10.734 16.3905 9.17188 14.8284M11.2545 2.77991C9.14147 2.94974 7.07567 3.84286 5.45927 5.45927C1.84691 9.0716 1.84691 14.9284 5.45927 18.5407C9.0716 22.1531 14.9284 22.1531 18.5407 18.5407C20.1554 16.9261 21.0484 14.8629 21.2195 12.7523M19 1.75V8.25M15.75 5H22.25M9.75 9.5C9.75 9.91421 9.52614 10.25 9.25 10.25C8.97386 10.25 8.75 9.91421 8.75 9.5C8.75 9.08579 8.97386 8.75 9.25 8.75C9.52614 8.75 9.75 9.08579 9.75 9.5ZM15.25 9.5C15.25 9.91421 15.0261 10.25 14.75 10.25C14.4739 10.25 14.25 9.91421 14.25 9.5C14.25 9.08579 14.4739 8.75 14.75 8.75C15.0261 8.75 15.25 9.08579 15.25 9.5Z" stroke="black" stroke-width="1.5" stroke-linecap="square" stroke-linejoin="round"/>
</svg>
