<svg width="24" height="24" viewBox="0 0 24 24" fill="none" xmlns="http://www.w3.org/2000/svg">
<path d="M21.25 12C21.25 17.1086 17.1086 21.25 12 21.25C6.89137 21.25 2.75 17.1086 2.75 12C2.75 6.89137 6.89137 2.75 12 2.75C17.1086 2.75 21.25 6.89137 21.25 12Z" stroke="black" stroke-width="1.5"/>
<path d="M9.3512 12.1295C11.249 10.6236 11.5267 9.1803 10.9644 8.29925C10.6914 7.87148 10.2309 7.61163 9.73854 7.5931C9.30505 7.57679 8.86465 7.74792 8.52071 8.12305C8.06921 7.88818 7.59683 7.87799 7.19507 8.04159C6.73873 8.2274 6.39488 8.62908 6.28465 9.12443C6.05761 10.1447 6.81225 11.4059 9.11063 12.172L9.2424 12.2159L9.3512 12.1295Z" fill="black"/>
<path d="M14.8914 12.1719C17.1898 11.4059 17.9444 10.1446 17.7174 9.12442C17.6071 8.62907 17.2633 8.22739 16.8069 8.04158C16.4052 7.87799 15.9328 7.88817 15.4813 8.12304C15.1373 7.74791 14.6969 7.57679 14.2635 7.59311C13.7711 7.61164 13.3106 7.87149 13.0376 8.29926C12.4753 9.18031 12.7531 10.6236 14.6508 12.1295L14.7596 12.2159L14.8914 12.1719Z" fill="black"/>
<path d="M11.9991 18C14.2082 18 15.9991 16.2092 15.9991 14C13.3163 14.2765 10.6818 14.2765 7.99902 14C7.99902 16.2092 9.78988 18 11.9991 18Z" fill="black"/>
</svg>
