<svg width="24" height="24" viewBox="0 0 24 24" fill="none" xmlns="http://www.w3.org/2000/svg">
<path d="M9.17188 15.4216C10.734 13.8595 13.2666 13.8595 14.8287 15.4216M18.5407 5.45927C22.1531 9.07162 22.1531 14.9284 18.5407 18.5407C14.9284 22.1531 9.0716 22.1531 5.45927 18.5407C1.84691 14.9284 1.84691 9.0716 5.45927 5.45927C9.07162 1.84691 14.9284 1.84691 18.5407 5.45927ZM9.75 9.5C9.75 9.91421 9.52614 10.25 9.25 10.25C8.97386 10.25 8.75 9.91421 8.75 9.5C8.75 9.08579 8.97386 8.75 9.25 8.75C9.52614 8.75 9.75 9.08579 9.75 9.5ZM15.25 9.5C15.25 9.91421 15.0261 10.25 14.75 10.25C14.4739 10.25 14.25 9.91421 14.25 9.5C14.25 9.08579 14.4739 8.75 14.75 8.75C15.0261 8.75 15.25 9.08579 15.25 9.5Z" stroke="black" stroke-width="1.5" stroke-linecap="square" stroke-linejoin="round"/>
</svg>
