<svg width="24" height="24" viewBox="0 0 24 24" fill="none" xmlns="http://www.w3.org/2000/svg">
<path d="M9.16534 4.42082L8.44717 4.63699L8.87949 6.07333L9.59766 5.85717L9.16534 4.42082ZM21.9999 12.0001L22.6709 12.3352L22.8382 12.0001L22.6709 11.665L21.9999 12.0001ZM19.1412 14.9667L18.6459 15.5299L19.7723 16.5204L20.2676 15.9572L19.1412 14.9667ZM3.28027 2.21978L2.74994 1.68945L1.68928 2.75011L2.21961 3.28044L3.28027 2.21978ZM1.99994 12L1.32896 11.6649L1.16162 12L1.32896 12.3351L1.99994 12ZM20.7196 21.7804L21.2499 22.3108L22.3106 21.2501L21.7802 20.7198L20.7196 21.7804ZM6.6556 7.36306L7.25658 6.91437L6.35919 5.71241L5.75821 6.16111L6.6556 7.36306ZM10.0288 10.462L10.4908 9.87117L9.30908 8.94732L8.84715 9.53819L10.0288 10.462ZM14.4618 15.1529L15.0527 14.691L14.1288 13.5092L13.538 13.9712L14.4618 15.1529ZM17.5231 18.3358L18.1553 17.9324L17.3485 16.6679L16.7163 17.0713L17.5231 18.3358ZM9.59766 5.85717C13.7449 4.60889 18.4768 6.62411 21.3289 12.3352L22.6709 11.665C19.5774 5.47066 14.179 2.91176 9.16534 4.42082L9.59766 5.85717ZM20.2676 15.9572C21.1653 14.9365 21.9754 13.7278 22.6709 12.3352L21.3289 11.665C20.6864 12.9516 19.9467 14.0508 19.1412 14.9667L20.2676 15.9572ZM11.9999 14.5001C10.6192 14.5001 9.49994 13.3808 9.49994 12.0001H7.99994C7.99994 14.2092 9.7908 16.0001 11.9999 16.0001V14.5001ZM2.21961 3.28044L20.7196 21.7804L21.7802 20.7198L3.28027 2.21978L2.21961 3.28044ZM2.67092 12.3351C3.76808 10.1381 5.14797 8.48867 6.6556 7.36306L5.75821 6.16111C4.03833 7.44518 2.51614 9.28769 1.32896 11.6649L2.67092 12.3351ZM9.49994 12.0001C9.49994 11.4191 9.6972 10.8863 10.0288 10.462L8.84715 9.53819C8.31657 10.2169 7.99994 11.0726 7.99994 12.0001H9.49994ZM13.538 13.9712C13.1137 14.3028 12.5809 14.5001 11.9999 14.5001V16.0001C12.9274 16.0001 13.7831 15.6835 14.4618 15.1529L13.538 13.9712ZM1.32896 12.3351C3.16249 16.0066 5.79844 18.4052 8.71583 19.4325C11.6411 20.4626 14.7788 20.0867 17.5231 18.3358L16.7163 17.0713C14.3457 18.5837 11.6878 18.8888 9.21405 18.0177C6.73241 17.1438 4.36591 15.059 2.67092 11.6649L1.32896 12.3351Z" fill="black"/>
</svg>
