<svg width="24" height="24" viewBox="0 0 24 24" fill="none" xmlns="http://www.w3.org/2000/svg">
<path fill-rule="evenodd" clip-rule="evenodd" d="M2.84265 11.9999C5.16302 16.4127 8.63937 18.4999 11.9999 18.4999C15.3605 18.4999 18.8369 16.4128 21.1572 12C18.8369 7.58725 15.3605 5.50003 11.9999 5.5C8.63936 5.49997 5.16301 7.58714 2.84265 11.9999ZM11.9999 4C16.1417 4.00003 20.1618 6.64058 22.6709 11.6649L22.8383 12L22.6709 12.3351C20.1618 17.3595 16.1417 20 11.9999 19.9999C7.8582 19.9999 3.83809 17.3593 1.32896 12.335L1.16162 11.9999L1.32896 11.6648C3.8381 6.64046 7.85821 3.99997 11.9999 4Z" fill="black"/>
<path d="M10.6667 10.6666L12 8L13.3334 10.6666L16 12L13.3334 13.3333L12 16L10.6667 13.3333L8 12L10.6667 10.6666Z" fill="black"/>
</svg>
