<svg width="24" height="24" viewBox="0 0 24 24" fill="none" xmlns="http://www.w3.org/2000/svg">
<path d="M1.99994 11.9999L1.32896 11.6649L1.16162 11.9999L1.32896 12.335L1.99994 11.9999ZM21.9999 12L22.6709 12.3351L22.8382 12L22.6709 11.665L21.9999 12ZM2.67092 12.335C4.98924 7.69273 8.5554 5.49997 11.9999 5.5C15.4444 5.50003 19.0106 7.69284 21.3289 12.3351L22.6709 11.665C20.1617 6.64058 16.1416 4.00003 11.9999 4C7.85821 3.99997 3.83809 6.64046 1.32896 11.6649L2.67092 12.335ZM1.32896 12.335C3.83809 17.3594 7.8582 19.9999 11.9999 20C16.1416 20 20.1617 17.3595 22.6709 12.3351L21.3289 11.665C19.0106 16.3072 15.4444 18.5 11.9999 18.5C8.55541 18.4999 4.98924 16.3071 2.67092 11.6649L1.32896 12.335ZM14.4999 12C14.4999 13.3807 13.3806 14.5 11.9999 14.5V16C14.209 16 15.9999 14.2092 15.9999 12H14.4999ZM11.9999 14.5C10.6192 14.5 9.49994 13.3807 9.49994 12H7.99994C7.99994 14.2092 9.7908 16 11.9999 16V14.5ZM9.49994 12C9.49994 10.6193 10.6192 9.49998 11.9999 9.49998V7.99998C9.7908 7.99998 7.99994 9.79084 7.99994 12H9.49994ZM11.9999 9.49998C13.3806 9.49998 14.4999 10.6193 14.4999 12H15.9999C15.9999 9.79084 14.209 7.99998 11.9999 7.99998V9.49998Z" fill="black"/>
</svg>
