<svg width="24" height="24" viewBox="0 0 24 24" fill="none" xmlns="http://www.w3.org/2000/svg">
<path d="M9.16659 4.42082L8.44842 4.63699L8.88074 6.07333L9.59891 5.85717L9.16659 4.42082ZM22.0012 12.0001L22.6721 12.3352L22.8395 12.0001L22.6721 11.665L22.0012 12.0001ZM19.1425 14.9667L18.6472 15.5299L19.7736 16.5204L20.2689 15.9572L19.1425 14.9667ZM3.28027 2.21978L2.74994 1.68945L1.68928 2.75011L2.21961 3.28044L3.28027 2.21978ZM1.99994 12L1.32896 11.6649L1.16162 12L1.32896 12.3351L1.99994 12ZM20.7196 21.7804L21.2499 22.3108L22.3106 21.2501L21.7802 20.7198L20.7196 21.7804ZM4.72966 8.66917L4.19933 8.13884L3.13867 9.1995L3.669 9.72983L4.72966 8.66917ZM13.1633 19.2242L13.6937 19.7545L14.7543 18.6939L14.224 18.1635L13.1633 19.2242ZM9.53771 8.84732L8.94708 9.30955L9.87154 10.4908L10.4621 10.0286L9.53771 8.84732ZM13.9714 13.5379L13.5092 14.1285L14.6905 15.053L15.1527 14.4623L13.9714 13.5379ZM6.72324 7.31297L7.32774 6.86903L6.43986 5.66004L5.83536 6.10398L6.72324 7.31297ZM17.5536 18.3163L18.1846 17.9109L17.3739 16.6489L16.7429 17.0543L17.5536 18.3163ZM9.59891 5.85717C13.7462 4.60889 18.4781 6.62411 21.3302 12.3352L22.6721 11.665C19.5787 5.47066 14.1803 2.91176 9.16659 4.42082L9.59891 5.85717ZM20.2689 15.9572C21.1665 14.9365 21.9767 13.7278 22.6721 12.3352L21.3302 11.665C20.6876 12.9516 19.9479 14.0508 19.1425 14.9667L20.2689 15.9572ZM2.21961 3.28044L20.7196 21.7804L21.7802 20.7198L3.28027 2.21978L2.21961 3.28044ZM2.67092 12.3351C3.22502 11.2256 3.85143 10.2554 4.52992 9.42197L3.36667 8.47495C2.61376 9.39978 1.92871 10.464 1.32896 11.6649L2.67092 12.3351ZM1.32896 12.3351C4.28722 18.2588 9.35218 20.8615 14.1876 19.7508L13.8518 18.2889C9.85244 19.2075 5.40027 17.1302 2.67092 11.6649L1.32896 12.3351ZM3.669 9.72983L13.1633 19.2242L14.224 18.1635L4.72966 8.66917L3.669 9.72983ZM10.4621 10.0286C11.4425 9.26136 12.8649 9.32962 13.7677 10.2323L14.8283 9.17168C13.383 7.72631 11.1078 7.61853 9.53771 8.84732L10.4621 10.0286ZM13.7677 10.2323C14.6704 11.1351 14.7386 12.5575 13.9714 13.5379L15.1527 14.4623C16.3815 12.8922 16.2737 10.617 14.8283 9.17168L13.7677 10.2323ZM4.52992 9.42197C5.2147 8.58083 5.9525 7.879 6.72324 7.31297L5.83536 6.10398C4.95573 6.74998 4.12662 7.54148 3.36667 8.47495L4.52992 9.42197ZM14.1876 19.7508C15.3495 19.484 16.4831 19.004 17.5536 18.3163L16.7429 17.0543C15.8112 17.6527 14.8375 18.0625 13.8518 18.2889L14.1876 19.7508Z" fill="black"/>
</svg>
