<svg width="24" height="24" viewBox="0 0 24 24" fill="none" xmlns="http://www.w3.org/2000/svg">
<path d="M7.92871 12.5327H8.71826C9.57227 12.5327 10.0557 12.9946 10.061 13.6284C10.0664 14.2729 9.57227 14.7563 8.729 14.7563C7.92871 14.7563 7.46143 14.2998 7.40234 13.709H6.06494C6.0918 14.8853 6.92969 15.895 8.69141 15.895C10.249 15.895 11.5273 15.0249 11.5112 13.6982C11.4951 12.522 10.625 11.9795 9.94824 11.9312V11.8774C10.5068 11.7969 11.291 11.2222 11.2749 10.1855C11.2534 9.07373 10.2061 8.27881 8.75049 8.27881C7.12305 8.27881 6.23682 9.24023 6.20459 10.4111H7.55811C7.59033 9.93311 7.9502 9.40137 8.70215 9.40137C9.38965 9.40137 9.84619 9.81494 9.84619 10.3789C9.85156 10.9858 9.37891 11.4155 8.68066 11.4155H7.92871V12.5327Z" fill="black"/>
<path d="M12.3491 12.3394C12.3491 14.4663 13.3213 15.8896 15.1099 15.8896C16.9575 15.8896 17.8975 14.3804 17.8975 12.3394V11.8291C17.8975 9.68604 16.9307 8.27881 15.1367 8.27881C13.3535 8.27881 12.3491 9.69678 12.3491 11.8291V12.3394ZM13.7939 11.8345C13.7939 10.2715 14.3149 9.46582 15.1206 9.46582C15.9316 9.46582 16.4473 10.2769 16.4473 11.8345V12.3286C16.4473 13.8916 15.9316 14.708 15.1206 14.708C14.3149 14.708 13.7939 13.897 13.7939 12.3286V11.8345Z" fill="black"/>
<path d="M11 3.5582V5.5L15 2.75L11 0V2.04938C5.94668 2.5511 2 6.81465 2 12C2 17.5228 6.47715 22 12 22C17.5228 22 22 17.5228 22 12C22 9.23878 20.8799 6.73775 19.0711 4.92893L18.0104 5.98959C19.5494 7.52861 20.5 9.65258 20.5 12C20.5 16.6944 16.6944 20.5 12 20.5C7.30558 20.5 3.5 16.6944 3.5 12C3.5 7.64389 6.77683 4.05313 11 3.5582Z" fill="black"/>
</svg>
