<svg width="24" height="24" viewBox="0 0 24 24" fill="none" xmlns="http://www.w3.org/2000/svg">
<path d="M9.35742 13.7788C9.40039 14.9229 10.3242 15.8896 11.9893 15.8896C13.6167 15.8896 14.8091 14.8691 14.8091 13.2739C14.8091 11.7808 13.6812 10.8462 12.3975 10.8462C11.5435 10.8462 10.9902 11.2329 10.8237 11.4746H10.7754L10.958 9.58398H14.272V8.41309H9.79785L9.44873 12.7261H10.7217C10.8882 12.3662 11.3018 11.9473 12.0322 11.9473C12.7949 11.9473 13.3911 12.4951 13.3911 13.3384C13.3911 14.23 12.6982 14.7456 12.0269 14.7456C11.3071 14.7456 10.7861 14.375 10.6948 13.7788H9.35742Z" fill="black"/>
<path d="M11 3.5582V5.5L15 2.75L11 0V2.04938C5.94668 2.5511 2 6.81465 2 12C2 17.5228 6.47715 22 12 22C17.5228 22 22 17.5228 22 12C22 9.23878 20.8799 6.73775 19.0711 4.92893L18.0104 5.98959C19.5494 7.52861 20.5 9.65258 20.5 12C20.5 16.6944 16.6944 20.5 12 20.5C7.30558 20.5 3.5 16.6944 3.5 12C3.5 7.64389 6.77683 4.05313 11 3.5582Z" fill="black"/>
</svg>
