<svg width="24" height="24" viewBox="0 0 24 24" fill="none" xmlns="http://www.w3.org/2000/svg">
<path d="M10.1899 15.75V8.41846H8.78809C8.21875 8.75684 7.5796 9.1543 7.01562 9.55176V10.8784C7.53663 10.5186 8.25099 10.0728 8.70216 9.79346H8.75049V15.75H10.1899Z" fill="black"/>
<path d="M11.479 12.3394C11.479 14.4663 12.4512 15.8896 14.2397 15.8896C16.0874 15.8896 17.0273 14.3804 17.0273 12.3394V11.8291C17.0273 9.68604 16.0605 8.27881 14.2666 8.27881C12.4834 8.27881 11.479 9.69678 11.479 11.8291V12.3394ZM12.9238 11.8345C12.9238 10.2715 13.4448 9.46582 14.2505 9.46582C15.0615 9.46582 15.5771 10.2769 15.5771 11.8345V12.3286C15.5771 13.8916 15.0615 14.708 14.2505 14.708C13.4448 14.708 12.9238 13.897 12.9238 12.3286V11.8345Z" fill="black"/>
<path d="M11 3.5582V5.5L15 2.75L11 0V2.04938C5.94668 2.5511 2 6.81465 2 12C2 17.5228 6.47715 22 12 22C17.5228 22 22 17.5228 22 12C22 9.23878 20.8799 6.73775 19.0711 4.92893L18.0104 5.98959C19.5494 7.52861 20.5 9.65258 20.5 12C20.5 16.6944 16.6944 20.5 12 20.5C7.30558 20.5 3.5 16.6944 3.5 12C3.5 7.64389 6.77683 4.05313 11 3.5582Z" fill="black"/>
</svg>
