<svg width="24" height="24" viewBox="0 0 24 24" fill="none" xmlns="http://www.w3.org/2000/svg">
<path d="M5.54189 19.0176L5.25426 19.7103L6.63957 20.2855L6.9272 19.5929L5.54189 19.0176ZM13.7166 20.7512L13.466 21.4581L14.8798 21.9593L15.1304 21.2524L13.7166 20.7512ZM18.9519 17.1158L18.8151 17.8532L20.2899 18.1268L20.4267 17.3894L18.9519 17.1158ZM2.53289 14.9776L2.35596 15.7064L3.81363 16.0603L3.99055 15.3314L2.53289 14.9776ZM12.7593 11.0028V10.2528H11.2593V11.0028H12.7593ZM9.27098 20.7986L8.97733 21.4887L10.3576 22.076L10.6512 21.3859L9.27098 20.7986ZM12.0089 3.5C16.1526 3.5 19.5117 6.85913 19.5117 11.0028H21.0117C21.0117 6.03071 16.981 2 12.0089 2V3.5ZM8.63247 11.0028C8.63247 9.13809 10.1441 7.62642 12.0089 7.62642V6.12642C9.31571 6.12642 7.13247 8.30966 7.13247 11.0028H8.63247ZM12.0089 7.62642C13.8736 7.62642 15.3853 9.13809 15.3853 11.0028H16.8853C16.8853 8.30966 14.7021 6.12642 12.0089 6.12642V7.62642ZM14.4275 18.4449C14.2217 19.227 13.9843 19.9962 13.7166 20.7512L15.1304 21.2524C15.4119 20.4583 15.6617 19.6492 15.8781 18.8265L14.4275 18.4449ZM19.5117 11.0028C19.5117 13.0916 19.3195 15.1347 18.9519 17.1158L20.4267 17.3894C20.811 15.3185 21.0117 13.1838 21.0117 11.0028H19.5117ZM3.00605 11.0028C3.00605 12.3731 2.84202 13.7041 2.53289 14.9776L3.99055 15.3314C4.3276 13.943 4.50605 12.4932 4.50605 11.0028H3.00605ZM8.72619 4.25417C9.71685 3.7713 10.8301 3.5 12.0089 3.5V2C10.5974 2 9.25987 2.32534 8.06897 2.90581L8.72619 4.25417ZM4.50605 11.0028C4.50605 9.00447 5.28632 7.18997 6.56033 5.84473L5.47122 4.81329C3.94391 6.42601 3.00605 8.6057 3.00605 11.0028H4.50605ZM14.9534 16.0324C14.8115 16.8488 14.6357 17.6534 14.4275 18.4449L15.8781 18.8265C16.0971 17.9941 16.282 17.1478 16.4312 16.2893L14.9534 16.0324ZM15.3853 11.0028C15.3853 12.0222 15.333 13.029 15.2311 14.021L16.7232 14.1743C16.8304 13.1315 16.8853 12.0735 16.8853 11.0028H15.3853ZM11.2593 11.0028C11.2593 13.769 10.8111 16.4289 9.98384 18.9149L11.4071 19.3885C12.2845 16.7517 12.7593 13.932 12.7593 11.0028H11.2593ZM9.98384 18.9149C9.77095 19.5546 9.53294 20.1829 9.27098 20.7986L10.6512 21.3859C10.929 20.7331 11.1814 20.0669 11.4071 19.3885L9.98384 18.9149ZM7.13247 11.0028C7.13247 12.7964 6.90685 14.5363 6.48284 16.1959L7.93616 16.5672C8.39091 14.7872 8.63247 12.9227 8.63247 11.0028H7.13247ZM6.04668 17.6724C5.89349 18.128 5.72502 18.5766 5.54189 19.0176L6.9272 19.5929C7.12355 19.12 7.30419 18.639 7.46847 18.1504L6.04668 17.6724Z" fill="black"/>
</svg>
