<svg width="24" height="24" viewBox="0 0 24 24" fill="none" xmlns="http://www.w3.org/2000/svg">
<path d="M2.75 3.75V3H2V3.75H2.75ZM10 3.75L10.624 3.33397L10.4014 3H10V3.75ZM12 6.75L11.376 7.16603L11.5986 7.5H12V6.75ZM21.25 6.75H22V6H21.25V6.75ZM21.25 19.25V20H22V19.25H21.25ZM12.5 18.5H11.75V20H12.5V18.5ZM2 9.5V10.25H3.5V9.5H2ZM2.75 4.5H10V3H2.75V4.5ZM9.37596 4.16603L11.376 7.16603L12.624 6.33397L10.624 3.33397L9.37596 4.16603ZM12 7.5H21.25V6H12V7.5ZM20.5 6.75V19.25H22V6.75H20.5ZM12.5 20H21.25V18.5H12.5V20ZM3.5 9.5V3.75H2V9.5H3.5ZM8.40165 13.5983C9.86612 15.0628 9.86612 17.4372 8.40165 18.9017L9.46231 19.9623C11.5126 17.9121 11.5126 14.5879 9.46231 12.5377L8.40165 13.5983ZM8.40165 18.9017C6.93718 20.3661 4.56282 20.3661 3.09835 18.9017L2.03769 19.9623C4.08794 22.0126 7.41206 22.0126 9.46231 19.9623L8.40165 18.9017ZM3.09835 18.9017C1.63388 17.4372 1.63388 15.0628 3.09835 13.5983L2.03769 12.5377C-0.0125632 14.5879 -0.0125632 17.9121 2.03769 19.9623L3.09835 18.9017ZM3.09835 13.5983C4.56282 12.1339 6.93718 12.1339 8.40165 13.5983L9.46231 12.5377C7.41206 10.4874 4.08794 10.4874 2.03769 12.5377L3.09835 13.5983ZM9.46231 18.9017L3.09835 12.5377L2.03769 13.5983L8.40165 19.9623L9.46231 18.9017Z" fill="black"/>
</svg>
