<svg width="24" height="24" viewBox="0 0 24 24" fill="none" xmlns="http://www.w3.org/2000/svg">
<path d="M20.9999 4.75V4H19.4999V4.75H20.9999ZM20.2499 9.25V10H20.9999V9.25H20.2499ZM15.7499 8.5H14.9999V10H15.7499V8.5ZM11.9946 3C7.77201 3 4.26253 6.02879 3.27148 10.0714L4.72834 10.4286C5.57002 6.99523 8.52443 4.5 11.9946 4.5V3ZM20.3692 9.03969C19.3177 5.44033 15.7603 3 11.9946 3V4.5C15.1575 4.5 18.0821 6.55967 18.9294 9.46031L20.3692 9.03969ZM19.4999 4.75V9.25H20.9999V4.75H19.4999ZM20.2499 8.5H19.6493V10H20.2499V8.5ZM19.6493 8.5H15.7499V10H19.6493V8.5Z" fill="black"/>
<path d="M9.86084 21H8.15967V13.9604H8.10254C7.56934 14.2905 6.72509 14.8174 6.10938 15.2427V13.6748C6.77587 13.2051 7.53124 12.7354 8.20409 12.3354H9.86084V21Z" fill="black"/>
<path d="M11.3843 16.9692V16.3662C11.3843 13.8462 12.5713 12.1704 14.6787 12.1704C16.7988 12.1704 17.9414 13.8335 17.9414 16.3662V16.9692C17.9414 19.3813 16.8306 21.165 14.647 21.165C12.5332 21.165 11.3843 19.4829 11.3843 16.9692ZM13.0918 16.3726V16.9565C13.0918 18.8101 13.7075 19.7686 14.6597 19.7686C15.6182 19.7686 16.2275 18.8037 16.2275 16.9565V16.3726C16.2275 14.5317 15.6182 13.5732 14.6597 13.5732C13.7075 13.5732 13.0918 14.5254 13.0918 16.3726Z" fill="black"/>
</svg>
