<svg width="24" height="24" viewBox="0 0 24 24" fill="none" xmlns="http://www.w3.org/2000/svg">
<path d="M21.25 4.75H2.75V19.25H21.25V4.75Z" stroke="black" stroke-width="1.5"/>
<path d="M10.8089 11.0156C10.7829 9.96322 9.95565 9 8.37041 9C6.67689 9 5.75 10.0693 5.75 11.6096V12.3267C5.75 13.8416 6.53829 15 8.36608 15C10.0293 15 10.8132 13.9646 10.8132 12.8359V11.7115H8.43971V12.6959H9.46622V12.942C9.46622 13.43 9.0764 13.8501 8.40073 13.8501C7.50849 13.8501 7.19664 13.1924 7.19664 12.3225V11.6223C7.19664 10.6803 7.60811 10.1457 8.36175 10.1457C8.99411 10.1457 9.36227 10.5233 9.4229 11.0156H10.8089Z" fill="black"/>
<path d="M13.1608 14.8939V9.10181H11.7271V14.8939H13.1608Z" fill="black"/>
<path d="M15.7422 14.8939V12.7129H18.0248V11.6181H15.7422V10.2263H18.25V9.10181H14.3086V14.8939H15.7422Z" fill="black"/>
</svg>
