<svg width="24" height="24" viewBox="0 0 24 24" fill="none" xmlns="http://www.w3.org/2000/svg">
<path d="M1.7502 20.25L1.0022 20.1953L0.943359 21H1.7502V20.25ZM14.2502 20.25V21H15.057L14.9982 20.1953L14.2502 20.25ZM22.5002 19.25V20H23.3079L23.2481 19.1945L22.5002 19.25ZM10.5002 7C10.5002 8.38071 9.38091 9.5 8.0002 9.5V11C10.2093 11 12.0002 9.20914 12.0002 7H10.5002ZM8.0002 9.5C6.61949 9.5 5.5002 8.38071 5.5002 7H4.0002C4.0002 9.20914 5.79106 11 8.0002 11V9.5ZM5.5002 7C5.5002 5.61929 6.61949 4.5 8.0002 4.5V3C5.79106 3 4.0002 4.79086 4.0002 7H5.5002ZM8.0002 4.5C9.38091 4.5 10.5002 5.61929 10.5002 7H12.0002C12.0002 4.79086 10.2093 3 8.0002 3V4.5ZM19.0002 7.5C19.0002 8.60457 18.1048 9.5 17.0002 9.5V11C18.9332 11 20.5002 9.433 20.5002 7.5H19.0002ZM17.0002 9.5C15.8956 9.5 15.0002 8.60457 15.0002 7.5H13.5002C13.5002 9.433 15.0672 11 17.0002 11V9.5ZM15.0002 7.5C15.0002 6.39543 15.8956 5.5 17.0002 5.5V4C15.0672 4 13.5002 5.567 13.5002 7.5H15.0002ZM17.0002 5.5C18.1048 5.5 19.0002 6.39543 19.0002 7.5H20.5002C20.5002 5.567 18.9332 4 17.0002 4V5.5ZM2.4982 20.3047C2.6446 18.3025 3.22162 16.5832 4.15321 15.3831C5.06758 14.2052 6.3398 13.5 8.0002 13.5V12C5.84799 12 4.14893 12.9424 2.96832 14.4633C1.80493 15.962 1.16325 17.9927 1.0022 20.1953L2.4982 20.3047ZM8.0002 13.5C9.6606 13.5 10.9328 14.2052 11.8472 15.3831C12.7788 16.5832 13.3558 18.3025 13.5022 20.3047L14.9982 20.1953C14.8372 17.9927 14.1955 15.962 13.0321 14.4633C11.8515 12.9424 10.1524 12 8.0002 12V13.5ZM1.7502 21H14.2502V19.5H1.7502V21ZM17.0002 13.5C18.4364 13.5 19.531 14.0994 20.3179 15.0977C21.1218 16.1177 21.6246 17.5856 21.7523 19.3055L23.2481 19.1945C23.1053 17.2701 22.5356 15.4881 21.4959 14.1691C20.4392 12.8285 18.9191 12 17.0002 12V13.5ZM17.0002 20H22.5002V18.5H17.0002V20ZM15.296 13.8327C15.7911 13.6202 16.3569 13.5 17.0002 13.5V12C16.1656 12 15.3972 12.1569 14.7044 12.4543L15.296 13.8327Z" fill="black"/>
</svg>
