<svg width="24" height="24" viewBox="0 0 24 24" fill="none" xmlns="http://www.w3.org/2000/svg">
<path d="M1.00004 20.25L0.251898 20.1973L0.195312 21H1.00004V20.25ZM13.8571 20.25V21H14.6619L14.6053 20.1973L13.8571 20.25ZM23 20.25V21H23.8048L23.7482 20.1973L23 20.25ZM10 7C10 8.38071 8.88075 9.5 7.50004 9.5V11C9.70918 11 11.5 9.20914 11.5 7H10ZM7.50004 9.5C6.11933 9.5 5.00004 8.38071 5.00004 7H3.50004C3.50004 9.20914 5.2909 11 7.50004 11V9.5ZM5.00004 7C5.00004 5.61929 6.11933 4.5 7.50004 4.5V3C5.2909 3 3.50004 4.79086 3.50004 7H5.00004ZM7.50004 4.5C8.88075 4.5 10 5.61929 10 7H11.5C11.5 4.79086 9.70918 3 7.50004 3V4.5ZM19 7C19 8.38071 17.8807 9.5 16.5 9.5V11C18.7091 11 20.5 9.20914 20.5 7H19ZM16.5 9.5C15.1193 9.5 14 8.38071 14 7H12.5C12.5 9.20914 14.2909 11 16.5 11V9.5ZM14 7C14 5.61929 15.1193 4.5 16.5 4.5V3C14.2909 3 12.5 4.79086 12.5 7H14ZM16.5 4.5C17.8807 4.5 19 5.61929 19 7H20.5C20.5 4.79086 18.7091 3 16.5 3V4.5ZM1.00004 21H13.8571V19.5H1.00004V21ZM1.74818 20.3027C2.07917 15.6074 4.86692 13.5 7.42861 13.5C9.9903 13.5 12.778 15.6074 13.109 20.3027L14.6053 20.1973C14.2314 14.8926 10.943 12 7.42861 12C3.91419 12 0.625829 14.8926 0.251898 20.1973L1.74818 20.3027ZM14.0999 14.178C15.6841 13.2517 17.5894 13.2742 19.1587 14.2477C20.7215 15.2171 22.0323 17.1881 22.2519 20.3027L23.7482 20.1973C23.5016 16.6989 21.9974 14.2434 19.9494 12.973C17.9081 11.7067 15.4071 11.676 13.3428 12.8831L14.0999 14.178ZM15.9999 21H23V19.5H15.9999V21Z" fill="black"/>
</svg>
