<svg width="24" height="24" viewBox="0 0 24 24" fill="none" xmlns="http://www.w3.org/2000/svg">
<path d="M8.14637 19.4755C7.14623 20.4756 5.52467 20.4756 4.52452 19.4755C3.52438 18.4753 3.52438 16.8538 4.52452 15.8536M13 8.80007L16.9655 3.67795C17.8478 2.53829 19.5301 2.43167 20.5492 3.45081C21.5683 4.46995 21.4617 6.15217 20.3221 7.03449L15.1999 11M2.75 13.0547L10.9453 21.25L11.9697 20.2256V18.1768L14.0186 16.1279C15.3413 14.8052 15.6332 12.842 14.8943 11.2366C14.6851 10.782 14.3931 10.356 14.0186 9.98145C13.644 9.60686 13.218 9.31495 12.7634 9.1057C11.158 8.36681 9.19479 8.65873 7.87207 9.98145L5.82324 12.0303H3.77441L2.75 13.0547Z" stroke="black" stroke-width="1.5" stroke-linecap="square"/>
</svg>
