<svg width="24" height="24" viewBox="0 0 24 24" fill="none" xmlns="http://www.w3.org/2000/svg">
<path d="M21.25 12.5H22V11H21.25V12.5ZM19.25 21.25V22H20V21.25H19.25ZM4.75 21.25H4V22H4.75V21.25ZM2.75 11H2V12.5H2.75V11ZM7.6671 1.75004L8.21986 1.24313L7.44389 0.396973L6.98081 1.44753L7.6671 1.75004ZM17.5 8.00004L17.3032 7.27633L16.75 7.42678V8.00004H17.5ZM20.7073 7.12774L20.9041 7.85145L22.0704 7.53427L21.2684 6.63008L20.7073 7.12774ZM19.25 12.5H21.25V11H19.25V12.5ZM18.5 11.75V21.25H20V11.75H18.5ZM19.25 20.5H4.75V22H19.25V20.5ZM2.75 12.5H4.75V11H2.75V12.5ZM4.75 12.5H19.25V11H4.75V12.5ZM5.5 21.25V11.75H4V21.25H5.5ZM7.35938 9.27132C7.0946 7.41436 7.33953 5.60768 7.66004 4.24991C7.81953 3.57429 7.99572 3.01818 8.13106 2.63336C8.19866 2.44115 8.25587 2.29224 8.2954 2.19315C8.31517 2.14362 8.33049 2.10659 8.34046 2.08287C8.34545 2.07102 8.34909 2.06249 8.35129 2.0574C8.35238 2.05486 8.35312 2.05317 8.35347 2.05236C8.35348 2.05233 8.35365 2.05195 8.35347 2.05236C8.35341 2.05251 8.35339 2.05255 7.6671 1.75004C6.98081 1.44753 6.9809 1.44733 6.98081 1.44753C6.98088 1.44736 6.98077 1.44762 6.98081 1.44753C6.98065 1.44788 6.98009 1.44917 6.97989 1.44963C6.97949 1.45055 6.97899 1.4517 6.97839 1.45307C6.9772 1.4558 6.97562 1.45944 6.97368 1.46395C6.96979 1.47296 6.96444 1.4855 6.95773 1.50145C6.94432 1.53334 6.92549 1.57891 6.90219 1.63732C6.8556 1.75411 6.79103 1.92245 6.71603 2.1357C6.56617 2.5618 6.37386 3.16947 6.20017 3.9053C5.85431 5.37044 5.57414 7.37733 5.8744 9.48306L7.35938 9.27132ZM7.6671 1.75004C7.11434 2.25695 7.1142 2.2568 7.11407 2.25665C7.11413 2.25672 7.11404 2.25662 7.11407 2.25665C7.11448 2.2571 7.11519 2.25789 7.11678 2.25966C7.11995 2.26318 7.12543 2.26932 7.1331 2.27801C7.14843 2.2954 7.17246 2.32301 7.20411 2.36047C7.26743 2.4354 7.3611 2.54956 7.47649 2.6999C7.70752 3.0009 8.02421 3.44511 8.35842 4.00828C9.02925 5.1387 9.75662 6.72481 10.021 8.5789L11.506 8.36716C11.2053 6.25857 10.3845 4.48318 9.64838 3.24278C9.27913 2.62054 8.92767 2.127 8.66641 1.78661C8.53566 1.61626 8.42715 1.48381 8.34983 1.39231C8.31116 1.34654 8.28025 1.31098 8.25823 1.286C8.24722 1.27351 8.23842 1.26366 8.23198 1.2565C8.22876 1.25292 8.22613 1.25001 8.2241 1.24778C8.22309 1.24667 8.22223 1.24572 8.22152 1.24495C8.22116 1.24456 8.22085 1.24421 8.22057 1.24391C8.22064 1.24398 8.22043 1.24376 8.22057 1.24391C8.2204 1.24372 8.21986 1.24313 7.6671 1.75004ZM17.6968 8.72375L20.9041 7.85145L20.5105 6.40403L17.3032 7.27633L17.6968 8.72375ZM20.7073 7.12774C21.2684 6.63008 21.2685 6.63022 21.2684 6.63008C21.2685 6.63022 21.2683 6.63002 21.2684 6.63008C21.2681 6.62981 21.2673 6.62887 21.267 6.62846C21.2662 6.62764 21.2653 6.62654 21.264 6.62516C21.2616 6.62241 21.2581 6.61857 21.2538 6.61366C21.245 6.60386 21.2323 6.58983 21.216 6.57191C21.1835 6.53608 21.1364 6.48463 21.0763 6.42024C20.9562 6.29154 20.7839 6.11064 20.5726 5.89894C20.1518 5.47746 19.5676 4.92522 18.9265 4.4187C18.2963 3.92075 17.5621 3.42735 16.8445 3.16965C16.1386 2.91615 15.2194 2.8218 14.5245 3.51586L15.5846 4.57715C15.6638 4.49796 15.8384 4.40214 16.3375 4.58138C16.8249 4.75643 17.4072 5.13 17.9966 5.59567C18.5751 6.05277 19.1138 6.56081 19.511 6.9587C19.7087 7.15668 19.8691 7.32524 19.9796 7.44358C20.0347 7.50271 20.0773 7.54918 20.1056 7.58038C20.1198 7.59597 20.1304 7.60774 20.1372 7.61536C20.1406 7.61916 20.1431 7.62193 20.1446 7.62362C20.1454 7.62446 20.1459 7.62503 20.1462 7.62533C20.1462 7.62526 20.1462 7.62539 20.7073 7.12774ZM7.75975 11.1484C7.59669 10.5335 7.46365 10.0026 7.35938 9.27132L5.8744 9.48306C5.99119 10.3021 6.14207 10.9002 6.30987 11.5329L7.75975 11.1484ZM10.021 8.5789C10.1744 9.65487 10.2474 10.4811 10.2524 11.345L11.7524 11.3363C11.7469 10.3845 11.6657 9.48724 11.506 8.36716L10.021 8.5789ZM13.7525 11.3497C13.7926 8.00392 14.3231 5.83713 15.5846 4.57715L14.5245 3.51586C12.8088 5.22958 12.2932 7.94858 12.2526 11.3317L13.7525 11.3497ZM16.75 8.00004C16.75 8.96827 16.8574 9.83209 16.2203 10.9757L17.5307 11.7057C18.3955 10.1533 18.25 8.85123 18.25 8.00004H16.75Z" fill="black"/>
</svg>
