<svg width="24" height="24" viewBox="0 0 24 24" fill="none" xmlns="http://www.w3.org/2000/svg">
<path fill-rule="evenodd" clip-rule="evenodd" d="M5 13.163C4.80373 13.0947 4.6187 13.0205 4.44818 12.9399C4.18178 12.8139 3.86993 12.635 3.60392 12.375C3.33541 12.1126 3 11.6491 3 11C3 10.3509 3.33541 9.88741 3.60392 9.62497C3.86993 9.36498 4.18178 9.18606 4.44818 9.06009C4.98858 8.80456 5.67476 8.61402 6.40252 8.46847C7.88277 8.17242 9.86098 8 12 8C14.139 8 16.1172 8.17242 17.5975 8.46847C18.3252 8.61402 19.0114 8.80456 19.5518 9.06009C19.8182 9.18606 20.1301 9.36498 20.3961 9.62497C20.6646 9.88741 21 10.3509 21 11C21 11.6491 20.6646 12.1126 20.3961 12.375C20.1301 12.635 19.8182 12.8139 19.5518 12.9399C19.3813 13.0205 19.1963 13.0947 19 13.163V19C19 19.6146 18.6518 20.1007 18.245 20.447C17.8351 20.7958 17.2862 21.0761 16.6735 21.2967C15.4415 21.7402 13.7891 22 12 22C10.2109 22 8.55847 21.7402 7.32654 21.2967C6.71377 21.0761 6.1649 20.7958 5.75504 20.447C5.34819 20.1007 5 19.6146 5 19V13.163ZM18.3322 11.8042L18.3355 11.8032C19.0729 11.571 19.5 11.2955 19.5 11C19.5 10.7045 19.0729 10.429 18.3355 10.1968L18.3322 10.1958C17.0013 9.77752 14.6627 9.5 12 9.5C9.3373 9.5 6.99869 9.77752 5.66781 10.1958L5.66455 10.1968C4.9271 10.429 4.5 10.7045 4.5 11C4.5 11.2955 4.9271 11.571 5.66455 11.8032L5.66781 11.8042C6.99869 12.2225 9.3373 12.5 12 12.5C14.6627 12.5 17.0013 12.2225 18.3322 11.8042ZM17.5 13.5507C16.0309 13.835 14.0924 14 12 14C9.90759 14 7.96906 13.835 6.5 13.5507V19C6.5 19.0068 6.50159 19.1126 6.72727 19.3047C6.94994 19.4942 7.31637 19.6988 7.83462 19.8853C8.86475 20.2562 10.3374 20.5 12 20.5C13.6626 20.5 15.1352 20.2562 16.1654 19.8853C16.6836 19.6988 17.0501 19.4942 17.2727 19.3047C17.4984 19.1126 17.5 19.0068 17.5 19V13.5507Z" fill="black"/>
<path d="M13 3L14 1L15 3L17 4L15 5L14 7L13 5L11 4L13 3Z" fill="black"/>
<path d="M8.33333 4.33333L9 3L9.66667 4.33333L11 5L9.66667 5.66667L9 7L8.33333 5.66667L7 5L8.33333 4.33333Z" fill="black"/>
</svg>
