<svg width="24" height="24" viewBox="0 0 24 24" fill="none" xmlns="http://www.w3.org/2000/svg">
<path d="M3.75 9.00006L3.27507 8.41959L3 8.64465V9.00006H3.75ZM20.25 9.00006H21V8.64465L20.7249 8.41959L20.25 9.00006ZM20.25 20.2501V21.0001H21V20.2501H20.25ZM3.75 20.2501H3V21.0001H3.75V20.2501ZM12 2.25006L12.4749 1.66959L12 1.28101L11.5251 1.66959L12 2.25006ZM7.75 15.5001H7V17.0001H7.75V15.5001ZM16.25 17.0001H17V15.5001H16.25V17.0001ZM19.5 9.00006V20.2501H21V9.00006H19.5ZM20.25 19.5001H3.75V21.0001H20.25V19.5001ZM4.5 20.2501V9.00006H3V20.2501H4.5ZM4.22493 9.58053L12.4749 2.83053L11.5251 1.66959L3.27507 8.41959L4.22493 9.58053ZM11.5251 2.83053L19.7751 9.58053L20.7249 8.41959L12.4749 1.66959L11.5251 2.83053ZM7.75 17.0001H16.25V15.5001H7.75V17.0001Z" fill="black"/>
</svg>
