<svg width="24" height="24" viewBox="0 0 24 24" fill="none" xmlns="http://www.w3.org/2000/svg">
<path d="M3.75 20.25H3V21H3.75V20.25ZM3.75 3.75005V3.00005H3V3.75005H3.75ZM11.25 4.50005H12V3.00005H11.25V4.50005ZM21 12.75V12H19.5V12.75H21ZM20.25 20.25V21H21V20.25H20.25ZM19 1.75005L19.6708 1.41464L19 0.072998L18.3292 1.41464L19 1.75005ZM17.9167 3.91672L18.2521 4.58754L18.4757 4.47573L18.5875 4.25213L17.9167 3.91672ZM15.75 5.00005L15.4146 4.32923L14.0729 5.00005L15.4146 5.67087L15.75 5.00005ZM17.9167 6.08338L18.5875 5.74797L18.4757 5.52437L18.2521 5.41256L17.9167 6.08338ZM19 8.25005L18.3292 8.58546L19 9.9271L19.6708 8.58546L19 8.25005ZM20.0833 6.08338L19.7479 5.41256L19.5243 5.52437L19.4125 5.74797L20.0833 6.08338ZM22.25 5.00005L22.5854 5.67087L23.927 5.00005L22.5854 4.32923L22.25 5.00005ZM20.0833 3.91672L19.4125 4.25213L19.5243 4.47573L19.7479 4.58754L20.0833 3.91672ZM4.5 20.25V3.75005H3V20.25H4.5ZM3.75 4.50005H11.25V3.00005H3.75V4.50005ZM19.5 12.75V20.25H21V12.75H19.5ZM18.3292 2.08546L19.4125 4.25213L20.7542 3.58131L19.6708 1.41464L18.3292 2.08546ZM18.5875 4.25213L19.6708 2.08546L18.3292 1.41464L17.2458 3.58131L18.5875 4.25213ZM16.0854 5.67087L18.2521 4.58754L17.5813 3.2459L15.4146 4.32923L16.0854 5.67087ZM18.2521 5.41256L16.0854 4.32923L15.4146 5.67087L17.5813 6.7542L18.2521 5.41256ZM19.6708 7.91464L18.5875 5.74797L17.2458 6.41879L18.3292 8.58546L19.6708 7.91464ZM19.4125 5.74797L18.3292 7.91464L19.6708 8.58546L20.7542 6.41879L19.4125 5.74797ZM21.9146 4.32923L19.7479 5.41256L20.4187 6.7542L22.5854 5.67087L21.9146 4.32923ZM19.7479 4.58754L21.9146 5.67087L22.5854 4.32923L20.4187 3.2459L19.7479 4.58754ZM14 10.5C14 11.6046 13.1046 12.5 12 12.5V14C13.933 14 15.5 12.433 15.5 10.5H14ZM12 12.5C10.8954 12.5 10 11.6046 10 10.5H8.5C8.5 12.433 10.067 14 12 14V12.5ZM10 10.5C10 9.39548 10.8954 8.50005 12 8.50005V7.00005C10.067 7.00005 8.5 8.56705 8.5 10.5H10ZM12 8.50005C13.1046 8.50005 14 9.39548 14 10.5H15.5C15.5 8.56705 13.933 7.00005 12 7.00005V8.50005ZM8.03597 19.9606C8.29886 18.0068 9.97407 16.5 12 16.5V15C9.21291 15 6.91107 17.0724 6.54937 19.7606L8.03597 19.9606ZM12 16.5C14.0259 16.5 15.7011 18.0068 15.964 19.9606L17.4506 19.7606C17.0889 17.0724 14.7871 15 12 15V16.5ZM20.25 19.5H3.75V21H20.25V19.5Z" fill="black"/>
</svg>
