<svg width="24" height="24" viewBox="0 0 24 24" fill="none" xmlns="http://www.w3.org/2000/svg">
<path d="M2.50002 19.25L1.87598 18.834L1.09863 20H2.50002V19.25ZM7.00002 12.5L7.43595 11.8897L6.80564 11.4395L6.37598 12.084L7.00002 12.5ZM10.5 15L10.0641 15.6103L10.6721 16.0446L11.1087 15.4382L10.5 15ZM15 8.75L15.6377 8.35523L15.047 7.40109L14.3913 8.31177L15 8.75ZM21.5 19.25V20H22.8464L22.1377 18.8552L21.5 19.25ZM3.12406 19.666L7.62406 12.916L6.37598 12.084L1.87598 18.834L3.12406 19.666ZM6.56409 13.1103L10.0641 15.6103L10.9359 14.3897L7.43595 11.8897L6.56409 13.1103ZM11.1087 15.4382L15.6087 9.18823L14.3913 8.31177L9.89137 14.5618L11.1087 15.4382ZM14.3623 9.14477L20.8623 19.6448L22.1377 18.8552L15.6377 8.35523L14.3623 9.14477ZM2.50002 20H21.5V18.5H2.50002V20ZM11 6.5C11 7.60457 10.1046 8.5 9.00002 8.5V10C10.933 10 12.5 8.433 12.5 6.5H11ZM9.00002 8.5C7.89545 8.5 7.00002 7.60457 7.00002 6.5H5.50002C5.50002 8.433 7.06702 10 9.00002 10V8.5ZM7.00002 6.5C7.00002 5.39543 7.89545 4.5 9.00002 4.5V3C7.06702 3 5.50002 4.567 5.50002 6.5H7.00002ZM9.00002 4.5C10.1046 4.5 11 5.39543 11 6.5H12.5C12.5 4.567 10.933 3 9.00002 3V4.5Z" fill="black"/>
</svg>
