<svg width="24" height="24" viewBox="0 0 24 24" fill="none" xmlns="http://www.w3.org/2000/svg">
<path d="M8.75 11L9.33565 11.4685L9.5 11.2631V11H8.75ZM15.25 11H14.5V11.2631L14.6643 11.4685L15.25 11ZM16.25 7.5H17V6H16.25V7.5ZM7.75 6H7V7.5H7.75V6ZM8 6.75V11H9.5V6.75H8ZM8.58376 22H15.4162V20.5H8.58376V22ZM16 11V6.75H14.5V11H16ZM8.75 7.5H15.25V6H8.75V7.5ZM15.25 7.5H16.25V6H15.25V7.5ZM8.75 6H7.75V7.5H8.75V6ZM15.4162 22C17.9478 22 20 19.9478 20 17.4162H18.5C18.5 19.1194 17.1194 20.5 15.4162 20.5V22ZM4 17.4162C4 19.9478 6.05222 22 8.58376 22V20.5C6.88065 20.5 5.5 19.1194 5.5 17.4162H4ZM20 17.4162C20 16.8582 19.8897 16.3239 19.7093 15.8191L18.2968 16.3238C18.4295 16.6953 18.5 17.0581 18.5 17.4162H20ZM19.7093 15.8191C19.314 14.7126 18.6004 13.7301 17.8799 12.8709C17.5176 12.4388 17.1406 12.0232 16.7916 11.6355C16.4379 11.2426 16.1141 10.8796 15.8357 10.5315L14.6643 11.4685C14.9739 11.8555 15.3258 12.2492 15.6768 12.639C16.0324 13.0341 16.389 13.4274 16.7305 13.8347C17.4177 14.6542 17.9925 15.4723 18.2968 16.3238L19.7093 15.8191ZM8.16435 10.5315C7.88589 10.8796 7.56208 11.2426 7.2084 11.6355C6.85939 12.0232 6.48239 12.4388 6.1201 12.8709C5.39964 13.7301 4.68603 14.7126 4.29069 15.8191L5.70324 16.3238C6.00746 15.4723 6.58234 14.6542 7.2695 13.8347C7.61102 13.4274 7.96761 13.0341 8.32324 12.639C8.6742 12.2492 9.02609 11.8555 9.33565 11.4685L8.16435 10.5315ZM4.29069 15.8191C4.11031 16.3239 4 16.8582 4 17.4162H5.5C5.5 17.0581 5.57051 16.6953 5.70324 16.3238L4.29069 15.8191ZM14.5693 17.339C15.507 17.364 16.6654 17.2256 17.5598 17.0891C18.0134 17.0199 18.411 16.9494 18.6956 16.896C18.838 16.8693 18.9524 16.8469 19.0317 16.831C19.0714 16.8231 19.1023 16.8168 19.1235 16.8124C19.1342 16.8102 19.1424 16.8085 19.1481 16.8073C19.151 16.8067 19.1532 16.8063 19.1548 16.8059C19.1556 16.8058 19.1562 16.8056 19.1567 16.8055C19.1565 16.8055 19.1569 16.8055 19.1567 16.8055C19.1568 16.8054 19.1576 16.8053 19.003 16.0714C18.8485 15.3375 18.8485 15.3375 18.8486 15.3375C18.8484 15.3376 18.8479 15.3376 18.8474 15.3378C18.8464 15.338 18.8447 15.3383 18.8425 15.3388C18.8379 15.3397 18.8309 15.3412 18.8215 15.3431C18.8027 15.347 18.7744 15.3528 18.7374 15.3602C18.6634 15.375 18.555 15.3962 18.4192 15.4217C18.1472 15.4727 17.7667 15.5402 17.3336 15.6063C16.4549 15.7403 15.4065 15.8608 14.6093 15.8396L14.5693 17.339ZM4.99696 16.0714C5.15151 16.8053 5.15147 16.8053 5.15144 16.8053C5.15135 16.8053 5.15145 16.8052 5.15144 16.8053C5.15162 16.8053 5.15211 16.8052 5.15261 16.8051C5.15362 16.8049 5.15526 16.8045 5.15753 16.8041C5.16206 16.8031 5.16909 16.8017 5.17849 16.7997C5.19731 16.7959 5.22564 16.7901 5.26262 16.7827C5.33657 16.7679 5.44499 16.7466 5.58084 16.7212C5.8528 16.6702 6.2333 16.6026 6.66636 16.5366C7.54507 16.4025 8.59354 16.282 9.39072 16.3033L9.43071 14.8038C8.49301 14.7788 7.3346 14.9173 6.44015 15.0537C5.98664 15.1229 5.58899 15.1935 5.30445 15.2468C5.16204 15.2735 5.04762 15.296 4.96831 15.3119C4.92864 15.3198 4.89772 15.3261 4.87645 15.3305C4.86581 15.3327 4.85759 15.3344 4.85188 15.3355C4.84902 15.3361 4.8468 15.3366 4.84522 15.3369C4.84442 15.3371 4.84379 15.3372 4.84333 15.3373C4.84326 15.3373 4.84241 15.3375 4.99696 16.0714ZM9.39072 16.3033C10.3061 16.3277 10.9961 16.5418 11.7749 16.7868C12.5545 17.0322 13.423 17.3084 14.5693 17.339L14.6093 15.8396C13.6939 15.8151 13.0039 15.6011 12.2251 15.356C11.4455 15.1107 10.577 14.8344 9.43071 14.8038L9.39072 16.3033ZM9.5 4C9.5 3.72386 9.72386 3.5 10 3.5V5C10.5523 5 11 4.55228 11 4H9.5ZM10 3.5C10.2761 3.5 10.5 3.72386 10.5 4H9C9 4.55228 9.44772 5 10 5V3.5ZM10.5 4C10.5 4.27614 10.2761 4.5 10 4.5V3C9.44772 3 9 3.44772 9 4H10.5ZM10 4.5C9.72386 4.5 9.5 4.27614 9.5 4H11C11 3.44772 10.5523 3 10 3V4.5ZM9.75 4.75H10V3.25H9.75V4.75ZM10 4.75H10.25V3.25H10V4.75ZM9.25 3.75V4H10.75V3.75H9.25ZM9.25 4V4.25H10.75V4H9.25ZM9.64645 4.35355C9.45118 4.15829 9.45118 3.84171 9.64645 3.64645L10.7071 4.70711C11.0976 4.31658 11.0976 3.68342 10.7071 3.29289L9.64645 4.35355ZM9.64645 3.64645C9.84171 3.45118 10.1583 3.45118 10.3536 3.64645L9.29289 4.70711C9.68342 5.09763 10.3166 5.09763 10.7071 4.70711L9.64645 3.64645ZM10.3536 3.64645C10.5488 3.84171 10.5488 4.15829 10.3536 4.35355L9.29289 3.29289C8.90237 3.68342 8.90237 4.31658 9.29289 4.70711L10.3536 3.64645ZM10.3536 4.35355C10.1583 4.54882 9.84171 4.54882 9.64645 4.35355L10.7071 3.29289C10.3166 2.90237 9.68342 2.90237 9.29289 3.29289L10.3536 4.35355ZM10.3536 4.70711L10.5303 4.53033L9.46967 3.46967L9.29289 3.64645L10.3536 4.70711ZM10.5303 4.53033L10.7071 4.35355L9.64645 3.29289L9.46967 3.46967L10.5303 4.53033ZM9.29289 4.35355L9.46967 4.53033L10.5303 3.46967L10.3536 3.29289L9.29289 4.35355ZM9.46967 4.53033L9.64645 4.70711L10.7071 3.64645L10.5303 3.46967L9.46967 4.53033ZM13.5 2.5V4C14.3284 4 15 3.32843 15 2.5H13.5ZM13.5 2.5H12C12 3.32843 12.6716 4 13.5 4V2.5ZM13.5 2.5V1C12.6716 1 12 1.67157 12 2.5H13.5ZM13.5 2.5H15C15 1.67157 14.3284 1 13.5 1V2.5Z" fill="black"/>
</svg>
