<svg width="24" height="24" viewBox="0 0 24 24" fill="none" xmlns="http://www.w3.org/2000/svg">
<path d="M20.25 3.75H21.0234V2.97656H20.25V3.75ZM20.25 20.25V21.0234H21.0234V20.25H20.25ZM3.75 20.25H2.97656V21.0234H3.75V20.25ZM3.75 3.75V2.97656H2.97656V3.75H3.75ZM19.4766 3.75V20.25H21.0234V3.75H19.4766ZM20.25 19.4766H3.75V21.0234H20.25V19.4766ZM4.52344 20.25V3.75H2.97656V20.25H4.52344ZM3.75 4.52344H20.25V2.97656H3.75V4.52344Z" fill="black"/>
<path d="M20.25 15.5264H21.0234V13.9795H20.25V15.5264ZM3.75 13.9795H2.97656V15.5264H3.75V13.9795ZM3.75 15.5264H20.25V13.9795H3.75V15.5264Z" fill="black"/>
<path d="M20.25 10.0205H21.0234V8.47363H20.25V10.0205ZM3.75 8.47363H2.97656V10.0205H3.75V8.47363ZM3.75 10.0205H20.25V8.47363H3.75V10.0205Z" fill="black"/>
</svg>
