<svg width="24" height="24" viewBox="0 0 24 24" fill="none" xmlns="http://www.w3.org/2000/svg">
<path d="M20.25 3.75H21V3H20.25V3.75ZM20.25 20.25V21H21V20.25H20.25ZM3.75 20.25H3V21H3.75V20.25ZM3.75 3.75V3H3V3.75H3.75ZM19.5 3.75V20.25H21V3.75H19.5ZM20.25 19.5H3.75V21H20.25V19.5ZM4.5 20.25V3.75H3V20.25H4.5ZM3.75 4.5H20.25V3H3.75V4.5Z" fill="black"/>
<path d="M3.75 12H20.25" stroke="black" stroke-width="1.5" stroke-linecap="square"/>
<path d="M12.75 3.75V3H11.25V3.75H12.75ZM11.25 20.25V21H12.75V20.25H11.25ZM11.25 3.75V12H12.75V3.75H11.25ZM11.25 12V20.25H12.75V12H11.25Z" fill="black"/>
</svg>
