<svg width="24" height="24" viewBox="0 0 24 24" fill="none" xmlns="http://www.w3.org/2000/svg">
<path fill-rule="evenodd" clip-rule="evenodd" d="M18.5001 1.93933L22.0608 5.49999L5.50011 22.0607L1.93945 18.5L18.5001 1.93933ZM15.3108 7.24999L16.7501 8.68933L19.9395 5.49999L18.5001 4.06065L15.3108 7.24999ZM15.6895 9.74999L14.2501 8.31065L4.06077 18.5L5.50011 19.9393L15.6895 9.74999Z" fill="black"/>
<path d="M9.99999 2L11 0L12 2L14 3L12 4L11 6L9.99999 4L8 3L9.99999 2Z" fill="black"/>
<path d="M19 13L20 11L21 13L23 14L21 15L20 17L19 15L17 14L19 13Z" fill="black"/>
<path d="M5 7L6 5L7 7L9 8L7 9L6 11L5 9L3 8L5 7Z" fill="black"/>
</svg>
