<svg width="24" height="24" viewBox="0 0 24 24" fill="none" xmlns="http://www.w3.org/2000/svg">
<path d="M18.2461 2.74999H18.9961V1.73349L18.0248 2.03337L18.2461 2.74999ZM18.2461 19.25L18.0248 19.9666L18.9961 20.2665V19.25H18.2461ZM2.74609 14.4643H1.99609V15.0177L2.52483 15.1809L2.74609 14.4643ZM2.74609 7.5357L2.52483 6.81908L1.99609 6.98234V7.5357H2.74609ZM13.2825 18.4999L13.5325 17.7928L12.1182 17.2929L11.8683 18.0001L13.2825 18.4999ZM18.2461 14.75C20.3172 14.75 21.9961 13.0711 21.9961 11H20.4961C20.4961 12.2426 19.4887 13.25 18.2461 13.25V14.75ZM18.2461 8.74999C19.4887 8.74999 20.4961 9.75735 20.4961 11H21.9961C21.9961 8.92892 20.3172 7.24999 18.2461 7.24999V8.74999ZM17.4961 2.74999V19.25H18.9961V2.74999H17.4961ZM18.4674 18.5334L2.96735 13.7477L2.52483 15.1809L18.0248 19.9666L18.4674 18.5334ZM18.0248 2.03337L2.52483 6.81908L2.96735 8.25232L18.4674 3.46661L18.0248 2.03337ZM3.49609 14.4643V7.5357H1.99609V14.4643H3.49609ZM9.74609 19.5C8.50345 19.5 7.49609 18.4926 7.49609 17.25H5.99609C5.99609 19.3211 7.67503 21 9.74609 21V19.5ZM11.8683 18.0001C11.559 18.875 10.7246 19.5 9.74609 19.5V21C11.38 21 12.7681 19.9554 13.2825 18.4999L11.8683 18.0001ZM7.49609 17.25V15.75H5.99609V17.25H7.49609ZM5.99829 6.24999V15.75H7.49829V6.24999H5.99829Z" fill="black"/>
</svg>
