<svg width="24" height="24" viewBox="0 0 24 24" fill="none" xmlns="http://www.w3.org/2000/svg">
<path fill-rule="evenodd" clip-rule="evenodd" d="M20.2506 14.1987C19.5336 14.3951 18.7791 14.5 18.001 14.5C13.3066 14.5 9.50098 10.6944 9.50098 5.99999C9.50098 5.22185 9.60585 4.4674 9.80222 3.75043C6.1555 4.72095 3.46875 8.04578 3.46875 11.9981C3.46875 16.7114 7.28962 20.5323 12.0029 20.5323C15.9553 20.5323 19.2801 17.8455 20.2506 14.1987ZM20.5206 12.5328C19.7388 12.8346 18.8892 13 18.001 13C14.135 13 11.001 9.86598 11.001 5.99999C11.001 5.11181 11.1664 4.26226 11.4681 3.48047C11.6151 3.09951 11.7945 2.73464 12.0029 2.38923C12.0897 2.24526 12.1816 2.10466 12.2783 1.9677C12.1868 1.96523 12.095 1.96399 12.0029 1.96399C11.4768 1.96399 10.9602 2.00448 10.4559 2.0825C5.64872 2.8264 1.96875 6.98251 1.96875 11.9981C1.96875 17.5398 6.46119 22.0323 12.0029 22.0323C17.0185 22.0323 21.1747 18.3523 21.9185 13.545C21.9965 13.0408 22.037 12.5242 22.037 11.9981C22.037 11.906 22.0358 11.8141 22.0333 11.7226C21.8963 11.8193 21.7557 11.9112 21.6117 11.9981C21.2663 12.2065 20.9015 12.3858 20.5206 12.5328Z" fill="black"/>
<path d="M16.3343 5.33333L17.501 3L18.6676 5.33333L21.001 6.5L18.6676 7.66667L17.501 10L16.3343 7.66667L14.001 6.5L16.3343 5.33333Z" fill="black"/>
</svg>
