<svg width="24" height="24" viewBox="0 0 24 24" fill="none" xmlns="http://www.w3.org/2000/svg">
<path d="M14.584 4.62405L15.208 5.04007L16.0401 3.792L15.416 3.37597L14.584 4.62405ZM12 2.00001L12.416 1.37597L12 1.09862L11.584 1.37597L12 2.00001ZM8.58397 3.37597L7.95994 3.792L8.79199 5.04007L9.41603 4.62405L8.58397 3.37597ZM12.75 10.75V10H11.25V10.75H12.75ZM11.25 13.25V14H12.75V13.25H11.25ZM15.416 3.37597L12.416 1.37597L11.584 2.62405L14.584 4.62405L15.416 3.37597ZM11.584 1.37597L8.58397 3.37597L9.41603 4.62405L12.416 2.62405L11.584 1.37597ZM16.5 12V17H18V12H16.5ZM7.5 17V12H6V17H7.5ZM12 21.5C9.51472 21.5 7.5 19.4853 7.5 17H6C6 20.3137 8.68629 23 12 23V21.5ZM16.5 17C16.5 19.4853 14.4853 21.5 12 21.5V23C15.3137 23 18 20.3137 18 17H16.5ZM12 7.50001C14.4853 7.50001 16.5 9.51473 16.5 12H18C18 8.6863 15.3137 6.00001 12 6.00001V7.50001ZM12 6.00001C8.68629 6.00001 6 8.6863 6 12H7.5C7.5 9.51473 9.51472 7.50001 12 7.50001V6.00001ZM11.25 10.75V13.25H12.75V10.75H11.25Z" fill="black"/>
</svg>
