<svg width="24" height="24" viewBox="0 0 24 24" fill="none" xmlns="http://www.w3.org/2000/svg">
<path d="M15.416 20.874L16.0401 20.458L15.208 19.2099L14.584 19.626L15.416 20.874ZM12 22.25L11.584 22.874L12 23.1514L12.416 22.874L12 22.25ZM9.41603 19.626L8.79199 19.2099L7.95994 20.458L8.58397 20.874L9.41603 19.626ZM12.75 5.75V5H11.25V5.75H12.75ZM11.25 8.25V9H12.75V8.25H11.25ZM14.584 19.626L11.584 21.626L12.416 22.874L15.416 20.874L14.584 19.626ZM12.416 21.626L9.41603 19.626L8.58397 20.874L11.584 22.874L12.416 21.626ZM16.5 7V12H18V7H16.5ZM7.5 12V7H6V12H7.5ZM12 16.5C9.51472 16.5 7.5 14.4853 7.5 12H6C6 15.3137 8.68629 18 12 18V16.5ZM16.5 12C16.5 14.4853 14.4853 16.5 12 16.5V18C15.3137 18 18 15.3137 18 12H16.5ZM12 2.5C14.4853 2.5 16.5 4.51472 16.5 7H18C18 3.68629 15.3137 1 12 1V2.5ZM12 1C8.68629 1 6 3.68629 6 7H7.5C7.5 4.51472 9.51472 2.5 12 2.5V1ZM11.25 5.75V8.25H12.75V5.75H11.25Z" fill="black"/>
</svg>
