<svg width="24" height="24" viewBox="0 0 24 24" fill="none" xmlns="http://www.w3.org/2000/svg">
<path d="M2.75 3.75V3H2V3.75H2.75ZM16.25 3.75H17V3H16.25V3.75ZM21.25 12H22V11.25H21.25V12ZM6.75 15H6V16.5H6.75V15ZM12.25 16.5H13V15H12.25V16.5ZM6.75 7.75V7H6V7.75H6.75ZM12.25 7.75H13V7H12.25V7.75ZM12.25 12.25V13H13V12.25H12.25ZM6.75 12.25H6V13H6.75V12.25ZM2.75 4.5H16.25V3H2.75V4.5ZM22 17.75V12H20.5V17.75H22ZM15.5 3.75V12H17V3.75H15.5ZM15.5 12V17.75H17V12H15.5ZM21.25 11.25H16.25V12.75H21.25V11.25ZM2 3.75V17.75H3.5V3.75H2ZM5.25 21H18.5V19.5H5.25V21ZM2 17.75C2 19.5449 3.45507 21 5.25 21V19.5C4.2835 19.5 3.5 18.7165 3.5 17.75H2ZM18.75 21C20.5449 21 22 19.5449 22 17.75H20.5C20.5 18.7165 19.7165 19.5 18.75 19.5V21ZM18.75 19.5C17.7835 19.5 17 18.7165 17 17.75H15.5C15.5 19.5449 16.9551 21 18.75 21V19.5ZM6.75 16.5H12.25V15H6.75V16.5ZM6.75 8.5H12.25V7H6.75V8.5ZM11.5 7.75V12.25H13V7.75H11.5ZM12.25 11.5H6.75V13H12.25V11.5ZM7.5 12.25V7.75H6V12.25H7.5Z" fill="black"/>
</svg>
