<svg width="24" height="24" viewBox="0 0 24 24" fill="none" xmlns="http://www.w3.org/2000/svg">
<path d="M11.7466 16H10.9966V17.5H11.7466V16ZM20.2466 17.5H20.9966V16H20.2466V17.5ZM11.7466 6.5H10.9966V8H11.7466V6.5ZM20.2466 8H20.9966V6.5H20.2466V8ZM6.24655 4.75H6.99655V4H6.24655V4.75ZM5.49655 9.75V10.5H6.99655V9.75H5.49655ZM3.23481 5.95171L2.68652 6.46345L3.71 7.56003L4.25829 7.04829L3.23481 5.95171ZM5.62155 4.75V4H5.32593L5.10981 4.20171L5.62155 4.75ZM3.99649 19.25H3.24649V20H3.99649V19.25ZM7.24649 20H7.99649V18.5H7.24649V20ZM11.7466 17.5H20.2466V16H11.7466V17.5ZM11.7466 8H20.2466V6.5H11.7466V8ZM5.49655 4.75V9.75H6.99655V4.75H5.49655ZM4.25829 7.04829L6.13329 5.29829L5.10981 4.20171L3.23481 5.95171L4.25829 7.04829ZM5.62155 5.5H6.24655V4H5.62155V5.5ZM3.99649 20H7.24649V18.5H3.99649V20ZM5.60751 15C6.00595 15 6.24649 15.2606 6.24649 15.639H7.74649C7.74649 14.4831 6.88444 13.5 5.60751 13.5V15ZM6.24649 15.639C6.24649 15.8523 6.16683 16.036 5.9758 16.2436C5.76662 16.471 5.46836 16.6791 5.08609 16.9291C4.73884 17.1561 4.29107 17.4357 3.94759 17.7633C3.58738 18.1069 3.24649 18.5905 3.24649 19.25H4.74649C4.74649 19.1595 4.78061 19.0417 4.98289 18.8487C5.20191 18.6398 5.50414 18.4479 5.90689 18.1846C6.27462 17.9442 6.72636 17.6433 7.07968 17.2592C7.45115 16.8555 7.74649 16.3255 7.74649 15.639H6.24649ZM4.10311 15.7654C4.56701 15.3107 5.10261 15 5.60751 15V13.5C4.5232 13.5 3.62739 14.1313 3.05308 14.6942L4.10311 15.7654Z" fill="black"/>
</svg>
