<svg width="24" height="24" viewBox="0 0 24 24" fill="none" xmlns="http://www.w3.org/2000/svg">
<path d="M10.75 21.25H4.75V2.75H19.25V12.25" stroke="black" stroke-width="1.5" stroke-linecap="square"/>
<path fill-rule="evenodd" clip-rule="evenodd" d="M16.25 22C14.1789 22 12.5 20.3211 12.5 18.25C12.5 16.1789 14.1789 14.5 16.25 14.5C17.4829 14.5 18.5749 15.0943 19.258 16.0109C20.7941 16.1418 22 17.4301 22 19C22 20.6569 20.6569 22 19 22H16.25ZM18.7558 17.5198C18.8352 17.5068 18.9168 17.5 19 17.5C19.8284 17.5 20.5 18.1716 20.5 19C20.5 19.8284 19.8284 20.5 19 20.5H16.25C15.0074 20.5 14 19.4926 14 18.25C14 17.0074 15.0074 16 16.25 16C17.0825 16 17.8095 16.4522 18.1986 17.1243C18.2881 17.2789 18.3597 17.4451 18.4107 17.6202C18.5197 17.5736 18.6353 17.5395 18.7558 17.5198Z" fill="black"/>
</svg>
