<svg width="24" height="24" viewBox="0 0 24 24" fill="none" xmlns="http://www.w3.org/2000/svg">
<path d="M16.7498 20H15.9998C15.9998 20.2278 16.1034 20.4433 16.2813 20.5857L16.7498 20ZM17.9998 21L17.5313 21.5857C17.8052 21.8048 18.1944 21.8048 18.4683 21.5857L17.9998 21ZM19.2498 20L19.7183 20.5857C19.8962 20.4433 19.9998 20.2278 19.9998 20H19.2498ZM16.7498 15.8711H17.4998V15.4706L17.167 15.2479L16.7498 15.8711ZM19.2498 15.8711L18.8326 15.2479L18.4998 15.4706V15.8711H19.2498ZM18.7498 17.9356L18.0883 17.582L17.9083 17.9188L18.0748 18.2625L18.7498 17.9356ZM19.2498 17L19.9113 17.3535L19.9998 17.1878V17H19.2498ZM19.2498 18.9678H19.9998V18.7957L19.9248 18.6408L19.2498 18.9678ZM4.49984 20.25L3.75271 20.1844L3.68115 21H4.49984V20.25ZM12.9022 13.5581L13.6459 13.6557L13.841 12.1684L13.0974 12.0709L12.9022 13.5581ZM13.9998 21H14.7498V19.5H13.9998V21ZM16.4998 14C16.4998 13.1716 17.1714 12.5 17.9998 12.5V11C16.3429 11 14.9998 12.3431 14.9998 14H16.4998ZM17.9998 12.5C18.8282 12.5 19.4998 13.1716 19.4998 14H20.9998C20.9998 12.3431 19.6567 11 17.9998 11V12.5ZM16.2813 20.5857L17.5313 21.5857L18.4683 20.4143L17.2183 19.4143L16.2813 20.5857ZM18.4683 21.5857L19.7183 20.5857L18.7813 19.4143L17.5313 20.4143L18.4683 21.5857ZM15.9998 15.8711V20H17.4998V15.8711H15.9998ZM17.167 15.2479C16.7631 14.9775 16.4998 14.5194 16.4998 14H14.9998C14.9998 15.0409 15.5305 15.9575 16.3326 16.4944L17.167 15.2479ZM19.4998 14C19.4998 14.5194 19.2365 14.9775 18.8326 15.2479L19.667 16.4944C20.4691 15.9575 20.9998 15.0409 20.9998 14H19.4998ZM19.4113 18.2891L19.9113 17.3535L18.5883 16.6465L18.0883 17.582L19.4113 18.2891ZM19.9998 17V15.8711H18.4998V17H19.9998ZM19.9998 20V18.9678H18.4998V20H19.9998ZM19.9248 18.6408L19.4248 17.6086L18.0748 18.2625L18.5748 19.2947L19.9248 18.6408ZM14.9998 6.5C14.9998 8.15685 13.6567 9.5 11.9998 9.5V11C14.4851 11 16.4998 8.98528 16.4998 6.5H14.9998ZM11.9998 9.5C10.3429 9.5 8.99984 8.15685 8.99984 6.5H7.49984C7.49984 8.98528 9.51456 11 11.9998 11V9.5ZM8.99984 6.5C8.99984 4.84315 10.3429 3.5 11.9998 3.5V2C9.51456 2 7.49984 4.01472 7.49984 6.5H8.99984ZM11.9998 3.5C13.6567 3.5 14.9998 4.84315 14.9998 6.5H16.4998C16.4998 4.01472 14.4851 2 11.9998 2V3.5ZM5.24697 20.3156C5.58933 16.4137 8.27766 13.5 11.9998 13.5V12C7.34161 12 4.14824 15.6765 3.75271 20.1844L5.24697 20.3156ZM11.9998 13.5C12.3096 13.5 12.6105 13.5199 12.9022 13.5581L13.0974 12.0709C12.74 12.024 12.3738 12 11.9998 12V13.5ZM4.49984 21H13.9998V19.5H4.49984V21Z" fill="black"/>
</svg>
