<svg width="24" height="24" viewBox="0 0 24 24" fill="none" xmlns="http://www.w3.org/2000/svg">
<path d="M8.66667 3.66667L9.5 2L10.3333 3.66667L12 4.5L10.3333 5.33333L9.5 7L8.66667 5.33333L7 4.5L8.66667 3.66667Z" fill="black"/>
<path d="M4.33333 7.33333L5.5 5L6.66667 7.33333L9 8.5L6.66667 9.66667L5.5 12L4.33333 9.66667L2 8.5L4.33333 7.33333Z" fill="black"/>
<path fill-rule="evenodd" clip-rule="evenodd" d="M22.5265 5.46594L19.5342 2.47363L7.50391 13.0001H7.5C5.01472 13.0001 3 15.0148 3 17.5001V22.0001H7.5C9.98528 22.0001 12 19.9854 12 17.5001V17.4962L22.5265 5.46594ZM11.6097 15.6644C11.1581 14.6547 10.3454 13.8421 9.33572 13.3904L19.4658 4.5266L20.4735 5.53429L11.6097 15.6644ZM4.5 17.5001C4.5 15.8433 5.84315 14.5001 7.5 14.5001C7.57422 14.5001 7.64768 14.5028 7.72031 14.508C9.20109 14.6151 10.385 15.799 10.4921 17.2798C10.4973 17.3524 10.5 17.4259 10.5 17.5001C10.5 19.157 9.15685 20.5001 7.5 20.5001H4.5V17.5001Z" fill="black"/>
</svg>
