<svg width="24" height="24" viewBox="0 0 24 24" fill="none" xmlns="http://www.w3.org/2000/svg">
<path d="M3.50008 20.25L2.75337 20.1798L2.67627 21H3.50008V20.25ZM18.5001 20.25V21H19.3239L19.2468 20.1798L18.5001 20.25ZM20.2501 8.75V8H18.7501V8.75H20.2501ZM18.7501 14.25V15H20.2501V14.25H18.7501ZM16.7501 10.75H16.0001V12.25H16.7501V10.75ZM22.2501 12.25H23.0001V10.75H22.2501V12.25ZM14.0001 6.5C14.0001 8.15685 12.657 9.5 11.0001 9.5V11C13.4854 11 15.5001 8.98528 15.5001 6.5H14.0001ZM11.0001 9.5C9.34323 9.5 8.00008 8.15685 8.00008 6.5H6.50008C6.50008 8.98528 8.5148 11 11.0001 11V9.5ZM8.00008 6.5C8.00008 4.84315 9.34323 3.5 11.0001 3.5V2C8.5148 2 6.50008 4.01472 6.50008 6.5H8.00008ZM11.0001 3.5C12.657 3.5 14.0001 4.84315 14.0001 6.5H15.5001C15.5001 4.01472 13.4854 2 11.0001 2V3.5ZM4.24679 20.3202C4.58324 16.7412 7.23556 14 11.0001 14V12.5C6.38419 12.5 3.1548 15.9097 2.75337 20.1798L4.24679 20.3202ZM11.0001 14C14.7646 14 17.4169 16.7412 17.7534 20.3202L19.2468 20.1798C18.8454 15.9097 15.616 12.5 11.0001 12.5V14ZM3.50008 21H18.5001V19.5H3.50008V21ZM18.7501 8.75V11.5H20.2501V8.75H18.7501ZM18.7501 11.5V14.25H20.2501V11.5H18.7501ZM16.7501 12.25H19.5001V10.75H16.7501V12.25ZM19.5001 12.25H22.2501V10.75H19.5001V12.25Z" fill="black"/>
</svg>
