<svg width="24" height="24" viewBox="0 0 24 24" fill="none" xmlns="http://www.w3.org/2000/svg">
<path d="M4.50008 20.25L3.75337 20.1798L3.67627 21H4.50008V20.25ZM13.8117 14.2259L14.5376 14.4146L14.9151 12.9629L14.1893 12.7741L13.8117 14.2259ZM12.5001 21H13.2501V19.5H12.5001V21ZM9.81141 12.7741L9.08555 12.9629L9.46309 14.4146L10.189 14.2259L9.81141 12.7741ZM19.0001 15.25V14.5H17.5001V15.25H19.0001ZM17.5001 21.25V22H19.0001V21.25H17.5001ZM15.2501 17.5H14.5001V19H15.2501V17.5ZM21.2501 19H22.0001V17.5H21.2501V19ZM15.0001 6.5C15.0001 8.15685 13.657 9.5 12.0001 9.5V11C14.4854 11 16.5001 8.98528 16.5001 6.5H15.0001ZM12.0001 9.5C10.3432 9.5 9.00008 8.15685 9.00008 6.5H7.50008C7.50008 8.98528 9.5148 11 12.0001 11V9.5ZM9.00008 6.5C9.00008 4.84315 10.3432 3.5 12.0001 3.5V2C9.5148 2 7.50008 4.01472 7.50008 6.5H9.00008ZM12.0001 3.5C13.657 3.5 15.0001 4.84315 15.0001 6.5H16.5001C16.5001 4.01472 14.4854 2 12.0001 2V3.5ZM5.24679 20.3202C5.57936 16.7825 8.17452 14.0652 11.8654 14.0012L11.8394 12.5014C7.30727 12.58 4.14999 15.9609 3.75337 20.1798L5.24679 20.3202ZM11.8654 14.0012C11.9101 14.0004 11.955 14 12.0001 14V12.5C11.9464 12.5 11.8928 12.5005 11.8394 12.5014L11.8654 14.0012ZM12.0001 14C12.3213 14 12.6332 14.0198 12.9352 14.0579L13.123 12.5697C12.7577 12.5236 12.3831 12.5 12.0001 12.5V14ZM12.9352 14.0579C13.2372 14.096 13.5296 14.1525 13.8117 14.2259L14.1893 12.7741C13.8441 12.6844 13.4883 12.6158 13.123 12.5697L12.9352 14.0579ZM4.50008 21H12.5001V19.5H4.50008V21ZM11.8394 12.5014C11.1314 12.5137 10.4535 12.6072 9.81141 12.7741L10.189 14.2259C10.7135 14.0894 11.2733 14.0114 11.8654 14.0012L11.8394 12.5014ZM15.2912 13.1468C14.6177 12.8631 13.8919 12.6667 13.123 12.5697L12.9352 14.0579C13.5702 14.1381 14.1632 14.2993 14.709 14.5292L15.2912 13.1468ZM17.5001 15.25V18.25H19.0001V15.25H17.5001ZM17.5001 18.25V21.25H19.0001V18.25H17.5001ZM15.2501 19H18.2501V17.5H15.2501V19ZM18.2501 19H21.2501V17.5H18.2501V19Z" fill="black"/>
</svg>
