<svg width="24" height="24" viewBox="0 0 24 24" fill="none" xmlns="http://www.w3.org/2000/svg">
<path d="M4.50008 20.25L3.75337 20.1798L3.67627 21H4.50008V20.25ZM19.5001 20.25V21H20.3239L20.2468 20.1798L19.5001 20.25ZM15.0001 6.5C15.0001 8.15685 13.657 9.5 12.0001 9.5V11C14.4854 11 16.5001 8.98528 16.5001 6.5H15.0001ZM12.0001 9.5C10.3432 9.5 9.00008 8.15685 9.00008 6.5H7.50008C7.50008 8.98528 9.5148 11 12.0001 11V9.5ZM9.00008 6.5C9.00008 4.84315 10.3432 3.5 12.0001 3.5V2C9.5148 2 7.50008 4.01472 7.50008 6.5H9.00008ZM12.0001 3.5C13.657 3.5 15.0001 4.84315 15.0001 6.5H16.5001C16.5001 4.01472 14.4854 2 12.0001 2V3.5ZM5.24679 20.3202C5.58324 16.7412 8.23556 14 12.0001 14V12.5C7.38419 12.5 4.1548 15.9097 3.75337 20.1798L5.24679 20.3202ZM12.0001 14C15.7646 14 18.4169 16.7412 18.7534 20.3202L20.2468 20.1798C19.8454 15.9097 16.616 12.5 12.0001 12.5V14ZM4.50008 21H19.5001V19.5H4.50008V21Z" fill="black"/>
</svg>
