<svg width="24" height="24" viewBox="0 0 24 24" fill="none" xmlns="http://www.w3.org/2000/svg">
<path d="M6.16318 18.5C7.49405 16.8187 9.52996 15.75 12 15.75C14.47 15.75 16.506 16.8187 17.8368 18.5M15.25 10C15.25 11.7949 13.7949 13.25 12 13.25C10.2051 13.25 8.75 11.7949 8.75 10C8.75 8.20507 10.2051 6.75 12 6.75C13.7949 6.75 15.25 8.20507 15.25 10ZM21.25 12C21.25 6.89137 17.1086 2.75 12 2.75C6.89137 2.75 2.75 6.89137 2.75 12C2.75 14.7509 3.95086 17.2214 5.85697 18.9157C7.49061 20.3679 9.6423 21.25 12 21.25C14.3577 21.25 16.5094 20.3679 18.143 18.9157C20.0491 17.2214 21.25 14.7509 21.25 12Z" stroke="black" stroke-width="1.5" stroke-linejoin="round"/>
</svg>
