<svg width="24" height="24" viewBox="0 0 24 24" fill="none" xmlns="http://www.w3.org/2000/svg">
<path d="M4.50008 20.25L3.75337 20.1798L3.67627 21H4.50008V20.25ZM13.8117 14.2259L14.5376 14.4146L14.9151 12.9629L14.1893 12.7741L13.8117 14.2259ZM13.0001 21H13.7501V19.5H13.0001V21ZM9.81141 12.7741L9.08555 12.9629L9.46309 14.4146L10.189 14.2259L9.81141 12.7741ZM20.5304 16.5303L21.0608 16L20.0001 14.9393L19.4698 15.4697L20.5304 16.5303ZM15.4698 19.4697L14.9394 20L16.0001 21.0607L16.5304 20.5303L15.4698 19.4697ZM16.5304 15.4697L16.0001 14.9393L14.9394 16L15.4698 16.5303L16.5304 15.4697ZM19.4698 20.5303L20.0001 21.0607L21.0608 20L20.5304 19.4697L19.4698 20.5303ZM15.0001 6.5C15.0001 8.15685 13.657 9.5 12.0001 9.5V11C14.4854 11 16.5001 8.98528 16.5001 6.5H15.0001ZM12.0001 9.5C10.3432 9.5 9.00008 8.15685 9.00008 6.5H7.50008C7.50008 8.98528 9.5148 11 12.0001 11V9.5ZM9.00008 6.5C9.00008 4.84315 10.3432 3.5 12.0001 3.5V2C9.5148 2 7.50008 4.01472 7.50008 6.5H9.00008ZM12.0001 3.5C13.657 3.5 15.0001 4.84315 15.0001 6.5H16.5001C16.5001 4.01472 14.4854 2 12.0001 2V3.5ZM5.24679 20.3202C5.57936 16.7825 8.17452 14.0652 11.8654 14.0012L11.8394 12.5014C7.30727 12.58 4.14999 15.9609 3.75337 20.1798L5.24679 20.3202ZM11.8654 14.0012C11.9101 14.0004 11.955 14 12.0001 14V12.5C11.9464 12.5 11.8928 12.5005 11.8394 12.5014L11.8654 14.0012ZM12.0001 14C12.6423 14 13.2477 14.0792 13.8117 14.2259L14.1893 12.7741C13.4987 12.5945 12.7663 12.5 12.0001 12.5V14ZM4.50008 21H13.0001V19.5H4.50008V21ZM11.8394 12.5014C11.1314 12.5137 10.4535 12.6072 9.81141 12.7741L10.189 14.2259C10.7135 14.0894 11.2733 14.0114 11.8654 14.0012L11.8394 12.5014ZM19.4698 15.4697L17.4698 17.4697L18.5304 18.5303L20.5304 16.5303L19.4698 15.4697ZM17.4698 17.4697L15.4698 19.4697L16.5304 20.5303L18.5304 18.5303L17.4698 17.4697ZM15.4698 16.5303L17.4698 18.5303L18.5304 17.4697L16.5304 15.4697L15.4698 16.5303ZM17.4698 18.5303L19.4698 20.5303L20.5304 19.4697L18.5304 17.4697L17.4698 18.5303Z" fill="black"/>
</svg>
