<svg width="24" height="24" viewBox="0 0 24 24" fill="none" xmlns="http://www.w3.org/2000/svg">
<path d="M4.50008 20.25L3.75337 20.1798L3.67627 21H4.50008V20.25ZM15.0001 6.5C15.0001 8.15685 13.657 9.5 12.0001 9.5V11C14.4854 11 16.5001 8.98528 16.5001 6.5H15.0001ZM12.0001 9.5C10.3432 9.5 9.00008 8.15685 9.00008 6.5H7.50008C7.50008 8.98528 9.5148 11 12.0001 11V9.5ZM9.00008 6.5C9.00008 4.84315 10.3432 3.5 12.0001 3.5V2C9.5148 2 7.50008 4.01472 7.50008 6.5H9.00008ZM12.0001 3.5C13.657 3.5 15.0001 4.84315 15.0001 6.5H16.5001C16.5001 4.01472 14.4854 2 12.0001 2V3.5ZM5.24679 20.3202C5.58324 16.7412 8.23556 14 12.0001 14V12.5C7.38419 12.5 4.1548 15.9097 3.75337 20.1798L5.24679 20.3202ZM12.0001 14C12.6423 14 13.2477 14.0792 13.8117 14.2259L14.1893 12.7741C13.4987 12.5945 12.7663 12.5 12.0001 12.5V14ZM4.50008 21H12.5001V19.5H4.50008V21Z" fill="black"/>
<path d="M21.2526 17.6676C21.2526 20.0001 18.0013 21.2802 18.0013 21.2802C18.0013 21.2802 14.75 20.0001 14.75 17.6676C14.75 15.9196 16.4976 14.8789 18.0013 15.8501C19.505 14.8789 21.2526 15.9196 21.2526 17.6676Z" stroke="black" stroke-width="1.5"/>
</svg>
