<svg width="24" height="24" viewBox="0 0 24 24" fill="none" xmlns="http://www.w3.org/2000/svg">
<path d="M4.50008 20.25L3.75337 20.1798L3.67627 21H4.50008V20.25ZM13.8117 14.2259L14.5376 14.4146L14.9151 12.9629L14.1893 12.7741L13.8117 14.2259ZM11.2501 21H12.0001V19.5H11.2501V21ZM9.81141 12.7741L9.08555 12.9629L9.46309 14.4146L10.189 14.2259L9.81141 12.7741ZM14.709 14.5292L15.4002 14.8203L15.9824 13.438L15.2912 13.1468L14.709 14.5292ZM15.2001 18L14.6001 17.55L13.7001 18.75L14.3001 19.2L15.2001 18ZM16.9501 20.25L16.5001 20.85L17.1654 21.349L17.5932 20.6359L16.9501 20.25ZM20.8932 15.1359L21.2791 14.4928L19.9929 13.721L19.607 14.3641L20.8932 15.1359ZM15.0001 6.5C15.0001 8.15685 13.657 9.5 12.0001 9.5V11C14.4854 11 16.5001 8.98528 16.5001 6.5H15.0001ZM12.0001 9.5C10.3432 9.5 9.00008 8.15685 9.00008 6.5H7.50008C7.50008 8.98528 9.5148 11 12.0001 11V9.5ZM9.00008 6.5C9.00008 4.84315 10.3432 3.5 12.0001 3.5V2C9.5148 2 7.50008 4.01472 7.50008 6.5H9.00008ZM12.0001 3.5C13.657 3.5 15.0001 4.84315 15.0001 6.5H16.5001C16.5001 4.01472 14.4854 2 12.0001 2V3.5ZM5.24679 20.3202C5.57936 16.7825 8.17452 14.0652 11.8654 14.0012L11.8394 12.5014C7.30727 12.58 4.14999 15.9609 3.75337 20.1798L5.24679 20.3202ZM11.8654 14.0012C11.9101 14.0004 11.955 14 12.0001 14V12.5C11.9464 12.5 11.8928 12.5005 11.8394 12.5014L11.8654 14.0012ZM12.0001 14C12.3213 14 12.6332 14.0198 12.9352 14.0579L13.123 12.5697C12.7577 12.5236 12.3831 12.5 12.0001 12.5V14ZM12.9352 14.0579C13.2372 14.096 13.5296 14.1525 13.8117 14.2259L14.1893 12.7741C13.8441 12.6844 13.4883 12.6158 13.123 12.5697L12.9352 14.0579ZM4.50008 21H11.2501V19.5H4.50008V21ZM11.8394 12.5014C11.1314 12.5137 10.4535 12.6072 9.81141 12.7741L10.189 14.2259C10.7135 14.0894 11.2733 14.0114 11.8654 14.0012L11.8394 12.5014ZM15.2912 13.1468C14.6177 12.8631 13.8919 12.6667 13.123 12.5697L12.9352 14.0579C13.5702 14.1381 14.1632 14.2993 14.709 14.5292L15.2912 13.1468ZM14.3001 19.2L16.5001 20.85L17.4001 19.65L15.2001 18L14.3001 19.2ZM17.5932 20.6359L20.8932 15.1359L19.607 14.3641L16.307 19.8641L17.5932 20.6359Z" fill="black"/>
</svg>
