<svg width="24" height="24" viewBox="0 0 24 24" fill="none" xmlns="http://www.w3.org/2000/svg">
<path d="M16.75 3.75H17.5V3H16.75V3.75ZM16.75 20.25V21H17.5V20.25H16.75ZM7.25003 20.25H6.50003V21H7.25003V20.25ZM7.25003 3.75V3H6.50003V3.75H7.25003ZM4.03038 8.53033L4.56071 8L3.50005 6.93934L2.96972 7.46967L4.03038 8.53033ZM1.50005 10L0.969719 9.46967L0.509766 9.92962L0.900049 10.45L1.50005 10ZM3.00005 12L3.60005 12.45L3.93755 12L3.60005 11.55L3.00005 12ZM1.50005 14L0.900049 13.55L0.509766 14.0704L0.969719 14.5303L1.50005 14ZM2.96972 16.5303L3.50005 17.0607L4.56071 16L4.03038 15.4697L2.96972 16.5303ZM21.0303 7.46967L20.5 6.93934L19.4394 8L19.9697 8.53033L21.0303 7.46967ZM22.5 10L23.1 10.45L23.4903 9.92962L23.0303 9.46967L22.5 10ZM21 12L20.4 11.55L20.0625 12L20.4 12.45L21 12ZM22.5 14L23.0303 14.5303L23.4903 14.0704L23.1 13.55L22.5 14ZM19.9697 15.4697L19.4394 16L20.5 17.0607L21.0303 16.5303L19.9697 15.4697ZM11.25 5.5C10.8358 5.5 10.5 5.83579 10.5 6.25C10.5 6.66421 10.8358 7 11.25 7V5.5ZM12.75 7C13.1642 7 13.5 6.66421 13.5 6.25C13.5 5.83579 13.1642 5.5 12.75 5.5V7ZM16 3.75V20.25H17.5V3.75H16ZM8.00003 20.25V3.75H6.50003V20.25H8.00003ZM2.96972 7.46967L0.969719 9.46967L2.03038 10.5303L4.03038 8.53033L2.96972 7.46967ZM0.900049 10.45L2.40005 12.45L3.60005 11.55L2.10005 9.55L0.900049 10.45ZM2.40005 11.55L0.900049 13.55L2.10005 14.45L3.60005 12.45L2.40005 11.55ZM0.969719 14.5303L2.96972 16.5303L4.03038 15.4697L2.03038 13.4697L0.969719 14.5303ZM19.9697 8.53033L21.9697 10.5303L23.0303 9.46967L21.0303 7.46967L19.9697 8.53033ZM21.9 9.55L20.4 11.55L21.6 12.45L23.1 10.45L21.9 9.55ZM20.4 12.45L21.9 14.45L23.1 13.55L21.6 11.55L20.4 12.45ZM21.9697 13.4697L19.9697 15.4697L21.0303 16.5303L23.0303 14.5303L21.9697 13.4697ZM7.25003 4.5H16.75V3H7.25003V4.5ZM16.75 19.5H7.25003V21H16.75V19.5ZM11.25 7H12.75V5.5H11.25V7Z" fill="black"/>
</svg>
