<svg width="24" height="24" viewBox="0 0 24 24" fill="none" xmlns="http://www.w3.org/2000/svg">
<path d="M12 12.75H19.2463C19.2488 12.833 19.25 12.9164 19.25 13C19.25 17.5563 15.5563 21.25 11 21.25C6.44365 21.25 2.75 17.5563 2.75 13C2.75 8.44363 6.44365 4.74998 11 4.74998C11.0836 4.74998 11.167 4.75122 11.25 4.75369V12V12.75H12ZM14.75 2.78888C15.4447 2.86113 16.1267 3.03355 16.7745 3.30185C17.6541 3.6662 18.4533 4.20023 19.1265 4.87346C19.7997 5.54668 20.3338 6.34592 20.6981 7.22553C20.9664 7.87326 21.1388 8.55525 21.2111 9.24998H14.75V2.78888Z" stroke="black" stroke-width="1.5"/>
</svg>
