<svg width="24" height="24" viewBox="0 0 24 24" fill="none" xmlns="http://www.w3.org/2000/svg">
<path d="M11.25 17.25V18H12.75V17.25H11.25ZM12 2.74999L12.3779 2.10216L11.25 1.44421V2.74999H12ZM18 6.24999L18.3779 6.89782L19.4885 6.24999L18.3779 5.60216L18 6.24999ZM18.3779 5.60216L12.3779 2.10216L11.6221 3.39782L17.6221 6.89782L18.3779 5.60216ZM12.3779 10.3978L18.3779 6.89782L17.6221 5.60216L11.6221 9.10216L12.3779 10.3978ZM12.75 17.25V9.74999H11.25V17.25H12.75ZM12.75 9.74999V2.74999H11.25V9.74999H12.75ZM20.5 17.5C20.5 17.7489 20.3787 18.0592 20.0041 18.4182C19.6276 18.7791 19.043 19.1387 18.259 19.4566C16.6948 20.0907 14.4823 20.5 12 20.5V22C14.6264 22 17.0389 21.5698 18.8225 20.8467C19.7124 20.4859 20.4825 20.0375 21.0421 19.5011C21.6036 18.9629 22 18.2866 22 17.5H20.5ZM12 20.5C9.51773 20.5 7.30522 20.0907 5.74104 19.4566C4.95702 19.1387 4.37244 18.7791 3.99588 18.4182C3.62129 18.0592 3.5 17.7489 3.5 17.5H2C2 18.2866 2.39638 18.9629 2.95794 19.5011C3.51753 20.0375 4.28759 20.4859 5.17748 20.8467C6.96115 21.5698 9.37363 22 12 22V20.5ZM3.5 17.5C3.5 17.0733 3.88689 16.4558 5.08398 15.8425C6.22381 15.2585 7.87598 14.8054 9.82547 14.6079L9.67426 13.1155C7.60256 13.3255 5.7548 13.8133 4.39999 14.5075C3.10245 15.1723 2 16.1702 2 17.5H3.5ZM14.1745 14.6079C16.124 14.8054 17.7762 15.2585 18.916 15.8425C20.1131 16.4558 20.5 17.0733 20.5 17.5H22C22 16.1702 20.8976 15.1723 19.6 14.5075C18.2452 13.8133 16.3974 13.3255 14.3257 13.1155L14.1745 14.6079Z" fill="black"/>
</svg>
