<svg width="24" height="24" viewBox="0 0 24 24" fill="none" xmlns="http://www.w3.org/2000/svg">
<path d="M12.75 9.25V8.5H11.25V9.25H12.75ZM13.7675 4.23206C14.7443 5.20895 14.7439 6.79238 13.7678 7.76768L14.8279 8.82882C16.3908 7.26734 16.3905 4.73381 14.8282 3.17144L13.7675 4.23206ZM13.7678 7.76768C12.7906 8.74396 11.2072 8.74408 10.2323 7.7682L9.17108 8.8283C10.7328 10.3917 13.266 10.3893 14.8279 8.82882L13.7678 7.76768ZM10.2323 7.7682C9.25605 6.79092 9.25593 5.20729 10.2318 4.23232L9.1716 3.17118C7.60837 4.73299 7.61074 7.26632 9.17108 8.8283L10.2323 7.7682ZM10.2318 4.23232C11.2088 3.25618 12.7912 3.25569 13.7675 4.23206L14.8282 3.17144C13.2654 1.60857 10.7336 1.61056 9.1716 3.17118L10.2318 4.23232ZM11.25 9.25V17.25H12.75V9.25H11.25ZM20.5 17.4996C20.5 17.7485 20.3787 18.0588 20.0041 18.4178C19.6276 18.7787 19.043 19.1383 18.259 19.4562C16.6948 20.0903 14.4823 20.4996 12 20.4996V21.9996C14.6264 21.9996 17.0389 21.5694 18.8225 20.8463C19.7124 20.4855 20.4825 20.0371 21.0421 19.5007C21.6036 18.9625 22 18.2862 22 17.4996H20.5ZM12 20.4996C9.51773 20.4996 7.30522 20.0903 5.74104 19.4562C4.95702 19.1383 4.37244 18.7787 3.99588 18.4178C3.62129 18.0588 3.5 17.7485 3.5 17.4996H2C2 18.2862 2.39638 18.9625 2.95794 19.5007C3.51753 20.0371 4.28759 20.4855 5.17748 20.8463C6.96115 21.5694 9.37363 21.9996 12 21.9996V20.4996ZM3.5 17.4996C3.5 17.0729 3.88689 16.4554 5.08398 15.8421C6.22381 15.2581 7.87598 14.805 9.82547 14.6075L9.67426 13.1151C7.60256 13.3251 5.7548 13.8129 4.39999 14.5071C3.10245 15.1719 2 16.1698 2 17.4996H3.5ZM14.1745 14.6075C16.124 14.805 17.7762 15.2581 18.916 15.8421C20.1131 16.4554 20.5 17.0729 20.5 17.4996H22C22 16.1698 20.8976 15.1719 19.6 14.5071C18.2452 13.8129 16.3974 13.3251 14.3257 13.1151L14.1745 14.6075Z" fill="black"/>
</svg>
