<svg width="24" height="24" viewBox="0 0 24 24" fill="none" xmlns="http://www.w3.org/2000/svg">
<path d="M14.75 2.75L12 5.5L14.75 8.25M17.5 15.5V5.5H12.5M6.5 8.5V15.5M9.25 5.5C9.25 7.01878 8.01878 8.25 6.5 8.25C4.98122 8.25 3.75 7.01878 3.75 5.5C3.75 3.98122 4.98122 2.75 6.5 2.75C8.01878 2.75 9.25 3.98122 9.25 5.5ZM9.25 18.5C9.25 20.0188 8.01878 21.25 6.5 21.25C4.98122 21.25 3.75 20.0188 3.75 18.5C3.75 16.9812 4.98122 15.75 6.5 15.75C8.01878 15.75 9.25 16.9812 9.25 18.5ZM20.25 18.5C20.25 20.0188 19.0188 21.25 17.5 21.25C15.9812 21.25 14.75 20.0188 14.75 18.5C14.75 16.9812 15.9812 15.75 17.5 15.75C19.0188 15.75 20.25 16.9812 20.25 18.5Z" stroke="black" stroke-width="1.5" stroke-linecap="square"/>
</svg>
