<svg width="24" height="24" viewBox="0 0 24 24" fill="none" xmlns="http://www.w3.org/2000/svg">
<path d="M8.75 9.75V6.75C8.75 5.64543 7.85457 4.75 6.75 4.75C5.64543 4.75 4.75 5.64543 4.75 6.75V13.5C4.75 17.7802 8.21979 21.25 12.5 21.25C16.7802 21.25 20.25 17.7802 20.25 13.5V8H19.25C18.2065 8 17.2875 8.53275 16.75 9.3411C16.4341 9.81626 16.25 10.3866 16.25 11V12L15.0362 12.7283C14.2383 13.207 13.75 14.0694 13.75 15M8.75 7.75V4.75C8.75 3.64543 9.64543 2.75 10.75 2.75C11.8546 2.75 12.75 3.64543 12.75 4.75V5.75M12.75 5.75C12.75 4.64543 13.6454 3.75 14.75 3.75C15.8546 3.75 16.75 4.64543 16.75 5.75V8.54555M12.75 5.75V8.75" stroke="black" stroke-width="1.5" stroke-linecap="square"/>
</svg>
