<svg width="24" height="24" viewBox="0 0 24 24" fill="none" xmlns="http://www.w3.org/2000/svg">
<path d="M0.75 9H0V10.5H0.75V9ZM23.25 10.5H24V9H23.25V10.5ZM9.5 12C9.5 13.933 7.933 15.5 6 15.5V17C8.76142 17 11 14.7614 11 12H9.5ZM6 15.5C4.067 15.5 2.5 13.933 2.5 12H1C1 14.7614 3.23858 17 6 17V15.5ZM21.5 12C21.5 13.933 19.933 15.5 18 15.5V17C20.7614 17 23 14.7614 23 12H21.5ZM18 15.5C16.067 15.5 14.5 13.933 14.5 12H13C13 14.7614 15.2386 17 18 17V15.5ZM12 9.5C12.6172 9.5 13.195 9.65911 13.6969 9.93799L14.4255 8.62679C13.7064 8.22727 12.8786 8 12 8V9.5ZM10.3031 9.93799C10.805 9.65911 11.3828 9.5 12 9.5V8C11.1214 8 10.2936 8.22727 9.57454 8.62679L10.3031 9.93799ZM14.5 12C14.5 10.067 16.067 8.5 18 8.5V7C15.2386 7 13 9.23858 13 12H14.5ZM6 8.5C7.933 8.5 9.5 10.067 9.5 12H11C11 9.23858 8.76142 7 6 7V8.5ZM22 10.5H23.25V9H22V10.5ZM18 8.5C19.933 8.5 21.5 10.067 21.5 12H23C23 9.23858 20.7614 7 18 7V8.5ZM0.75 10.5H2V9H0.75V10.5ZM2.5 12C2.5 10.067 4.067 8.5 6 8.5V7C3.23858 7 1 9.23858 1 12H2.5Z" fill="black"/>
</svg>
