<svg width="24" height="24" viewBox="0 0 24 24" fill="none" xmlns="http://www.w3.org/2000/svg">
<path d="M13 3.5582V5.5L9 2.75L13 0V2.04938C18.0533 2.5511 22 6.81465 22 12C22 17.5228 17.5228 22 12 22C6.47715 22 2 17.5228 2 12C2 9.23878 3.12011 6.73775 4.92893 4.92893L5.98959 5.98959C4.45057 7.52861 3.5 9.65258 3.5 12C3.5 16.6944 7.30558 20.5 12 20.5C16.6944 20.5 20.5 16.6944 20.5 12C20.5 7.64389 17.2232 4.05313 13 3.5582Z" fill="black"/>
<path d="M7.93018 12.5332H8.71973C9.57373 12.5332 10.0571 12.9951 10.0625 13.6289C10.0679 14.2734 9.57373 14.7568 8.73047 14.7568C7.93018 14.7568 7.46289 14.3003 7.40381 13.7095H6.06641C6.09326 14.8857 6.93115 15.8955 8.69287 15.8955C10.2505 15.8955 11.5288 15.0254 11.5127 13.6987C11.4966 12.5225 10.6265 11.98 9.94971 11.9316V11.8779C10.5083 11.7974 11.2925 11.2227 11.2764 10.186C11.2549 9.07422 10.2075 8.2793 8.75195 8.2793C7.12451 8.2793 6.23828 9.24072 6.20605 10.4116H7.55957C7.5918 9.93359 7.95166 9.40186 8.70361 9.40186C9.39111 9.40186 9.84766 9.81543 9.84766 10.3794C9.85303 10.9863 9.38037 11.416 8.68213 11.416H7.93018V12.5332Z" fill="black"/>
<path fill-rule="evenodd" clip-rule="evenodd" d="M12.3506 12.3398C12.3506 14.4668 13.3228 15.8901 15.1113 15.8901C16.959 15.8901 17.8989 14.3809 17.8989 12.3398V11.8296C17.8989 9.68652 16.9321 8.2793 15.1382 8.2793C13.355 8.2793 12.3506 9.69727 12.3506 11.8296V12.3398ZM13.7954 11.835C13.7954 10.272 14.3164 9.46631 15.1221 9.46631C15.9331 9.46631 16.4487 10.2773 16.4487 11.835V12.3291C16.4487 13.8921 15.9331 14.7085 15.1221 14.7085C14.3164 14.7085 13.7954 13.8975 13.7954 12.3291V11.835Z" fill="black"/>
</svg>
