<svg width="24" height="24" viewBox="0 0 24 24" fill="none" xmlns="http://www.w3.org/2000/svg">
<path d="M13 3.5582V5.5L9 2.75L13 0V2.04938C18.0533 2.5511 22 6.81465 22 12C22 17.5228 17.5228 22 12 22C6.47715 22 2 17.5228 2 12C2 9.23878 3.12011 6.73775 4.92893 4.92893L5.98959 5.98959C4.45057 7.52861 3.5 9.65258 3.5 12C3.5 16.6944 7.30558 20.5 12 20.5C16.6944 20.5 20.5 16.6944 20.5 12C20.5 7.64389 17.2232 4.05313 13 3.5582Z" fill="black"/>
<path d="M11.6147 13.7788C11.6577 14.9229 12.5815 15.8896 14.2466 15.8896C15.874 15.8896 17.0664 14.8691 17.0664 13.2739C17.0664 11.7808 15.9385 10.8462 14.6548 10.8462C13.8008 10.8462 13.2476 11.2329 13.0811 11.4746H13.0327L13.2153 9.58398H16.5293V8.41309H12.0552L11.7061 12.7261H12.979C13.1455 12.3662 13.5591 11.9473 14.2896 11.9473C15.0522 11.9473 15.6484 12.4951 15.6484 13.3384C15.6484 14.23 14.9556 14.7456 14.2842 14.7456C13.5645 14.7456 13.0435 14.375 12.9521 13.7788H11.6147Z" fill="black"/>
<path d="M10.1431 15.75V8.41846H8.74121C8.17188 8.75684 7.53271 9.1543 6.96875 9.55176V10.8784C7.48975 10.5186 8.2041 10.0728 8.65527 9.79346H8.70361V15.75H10.1431Z" fill="black"/>
</svg>
