<svg width="24" height="24" viewBox="0 0 24 24" fill="none" xmlns="http://www.w3.org/2000/svg">
<path d="M6.86111 13.25H3.25L6.25 7.75H11.2292M6.86111 13.25L10.75 17.1389M6.86111 13.25L11.2292 7.75M11.2292 7.75C14.0556 4.66667 17.1389 2.75 21.25 2.75C21.25 6.86111 19.3333 9.94444 16.25 12.7708M10.75 17.1389V20.75L16.25 17.75V12.7708M10.75 17.1389L16.25 12.7708M4.80556 21.25H2.75V19.1944C2.75 18.0592 3.6703 17.1389 4.80556 17.1389C5.94081 17.1389 6.86111 18.0592 6.86111 19.1944C6.86111 20.3297 5.94081 21.25 4.80556 21.25Z" stroke="black" stroke-width="1.5"/>
</svg>
