<svg width="24" height="24" viewBox="0 0 24 24" fill="none" xmlns="http://www.w3.org/2000/svg">
<path d="M12.75 3V13H11.25V3H12.75Z" fill="black"/>
<path d="M12.75 17.5V21H11.25V17.5H12.75Z" fill="black"/>
<path d="M7 8.49712V7L10 9.25L7 11.5V10.0351C5.92743 10.2898 5.0567 10.6172 4.44139 10.9775C3.66491 11.4322 3.5 11.8087 3.5 12C3.5 12.1372 3.57734 12.3735 3.95615 12.6881C4.33044 12.999 4.91703 13.3126 5.70788 13.5905C7.28271 14.1438 9.50727 14.5 12 14.5C14.4927 14.5 16.7173 14.1438 18.2921 13.5905C19.083 13.3126 19.6696 12.999 20.0439 12.6881C20.4227 12.3735 20.5 12.1372 20.5 12C20.5 11.7814 20.2795 11.3388 19.2974 10.8344C18.3809 10.3637 17.0318 9.96857 15.3933 9.73307L14.6509 9.62638L14.8643 8.14163L15.6067 8.24833C17.3416 8.49768 18.8675 8.92733 19.9827 9.50012C21.0322 10.0392 22 10.8589 22 12C22 12.7602 21.5597 13.379 21.0023 13.842C20.4405 14.3087 19.6724 14.6954 18.7894 15.0057C17.0163 15.6286 14.6159 16 12 16C9.38409 16 6.98366 15.6286 5.21065 15.0057C4.32757 14.6954 3.55953 14.3087 2.99767 13.842C2.44033 13.379 2 12.7602 2 12C2 10.9703 2.79329 10.2044 3.68339 9.68313C4.53936 9.18187 5.68582 8.78129 7 8.49712Z" fill="black"/>
</svg>
