<svg width="24" height="24" viewBox="0 0 24 24" fill="none" xmlns="http://www.w3.org/2000/svg">
<path d="M2.75 7.25V4.75H5.25M13.75 4.75H15.25M8.75 4.75H10.25M18.75 4.75H21.25V7.25M10.25 19.25H8.75M5.25 19.25H2.75V16.75M2.75 13.25V10.75" stroke="black" stroke-width="1.5" stroke-linecap="square"/>
<path d="M18.5 17.5C19.6046 17.5 20.5 16.6046 20.5 15.5C20.5 14.3954 19.6046 13.5 18.5 13.5C17.3954 13.5 16.5 14.3954 16.5 15.5C16.5 16.6046 17.3954 17.5 18.5 17.5Z" stroke="black" stroke-width="1.5"/>
<path d="M18.5 16.25C18.9142 16.25 19.25 15.9142 19.25 15.5C19.25 15.0858 18.9142 14.75 18.5 14.75C18.0858 14.75 17.75 15.0858 17.75 15.5C17.75 15.9142 18.0858 16.25 18.5 16.25Z" stroke="black" stroke-width="1.5"/>
<path d="M18.5 20.25C21.1234 20.25 23.25 18.1234 23.25 15.5C23.25 12.8766 21.1234 10.75 18.5 10.75C15.8766 10.75 13.75 12.8766 13.75 15.5C13.75 18.1234 15.8766 20.25 18.5 20.25Z" stroke="black" stroke-width="1.5"/>
</svg>
