<svg width="24" height="24" viewBox="0 0 24 24" fill="none" xmlns="http://www.w3.org/2000/svg">
<path d="M19.25 9.68056C19.25 11.0996 16.0041 12.25 12 12.25C7.99594 12.25 4.75 11.0996 4.75 9.68056M19.25 13.9306C19.25 15.3496 16.0041 16.5 12 16.5C7.99594 16.5 4.75 15.3496 4.75 13.9306M4.75 6V18.6806C4.75 20.0996 7.99594 21.25 12 21.25C16.0041 21.25 19.25 20.0996 19.25 18.6806V6.1443M19.25 5.31944C19.25 6.73851 16.0041 7.88889 12 7.88889C7.99594 7.88889 4.75 6.73851 4.75 5.31944C4.75 3.90038 7.99594 2.75 12 2.75C16.0041 2.75 19.25 3.90038 19.25 5.31944Z" stroke="black" stroke-width="1.5" stroke-linecap="square"/>
</svg>
