<svg width="24" height="24" viewBox="0 0 24 24" fill="none" xmlns="http://www.w3.org/2000/svg">
<path d="M17 3.75V13.5M7 20.25V12.5M7 3.75V5.5M17 13.75C18.7956 13.75 20.25 15.2044 20.25 17C20.25 18.7956 18.7956 20.25 17 20.25C15.2044 20.25 13.75 18.7956 13.75 17C13.75 15.2044 15.2044 13.75 17 13.75ZM7 12.25C5.20438 12.25 3.75 10.7956 3.75 9C3.75 7.20438 5.20438 5.75 7 5.75C8.79562 5.75 10.25 7.20438 10.25 9C10.25 10.7956 8.79562 12.25 7 12.25Z" stroke="black" stroke-width="1.5" stroke-linecap="square"/>
</svg>
