<svg width="24" height="24" viewBox="0 0 24 24" fill="none" xmlns="http://www.w3.org/2000/svg">
<path d="M20.25 3.75H21V3H20.25V3.75ZM20.25 20.25V21H21V20.25H20.25ZM3.75 20.25H3V21H3.75V20.25ZM3.75 3.75V3H3V3.75H3.75ZM14.9697 16.0303L15.5 16.5607L16.5607 15.5L16.0303 14.9697L14.9697 16.0303ZM13.5803 12.5197L13.05 11.9893L11.9893 13.05L12.5197 13.5803L13.5803 12.5197ZM19.5 3.75V20.25H21V3.75H19.5ZM20.25 19.5H3.75V21H20.25V19.5ZM4.5 20.25V3.75H3V20.25H4.5ZM3.75 4.5H20.25V3H3.75V4.5ZM8.81899 15.1787C7.06034 13.4142 7.06034 10.5542 8.81899 8.78965L7.75654 7.73077C5.41449 10.0807 5.41449 13.8877 7.75654 16.2376L8.81899 15.1787ZM8.81899 8.78965C10.531 7.0706 13.4657 7.06983 15.1812 8.78985L16.2435 7.73077C13.9423 5.42355 10.0553 5.42259 7.75654 7.73077L8.81899 8.78965ZM15.1812 8.78985C16.9399 10.5544 16.9397 13.4142 15.181 15.1787L16.2433 16.2378C18.5853 13.8879 18.5855 10.0807 16.2435 7.73077L15.1812 8.78985ZM15.181 15.1787C13.4236 16.9407 10.5746 16.9403 8.81899 15.1787L7.75654 16.2376C10.0986 18.5876 13.9 18.5873 16.2433 16.2378L15.181 15.1787ZM16.0303 14.9697L13.5803 12.5197L12.5197 13.5803L14.9697 16.0303L16.0303 14.9697Z" fill="black"/>
</svg>
