<svg width="24" height="24" viewBox="0 0 24 24" fill="none" xmlns="http://www.w3.org/2000/svg">
<path d="M20.25 11.9999C20.25 10.4969 19.8481 9.08786 19.1459 7.87424M20.25 11.9999C20.25 13.5028 19.8481 14.9118 19.146 16.1254M20.25 11.9999H14.25M20.25 11.9999L22.25 12.0001M19.1459 7.87424L20.8768 6.87493M19.1459 7.87424C18.4215 6.62231 17.3776 5.5784 16.1257 4.85403M19.146 16.1254L20.8768 17.1247M19.146 16.1254C18.4216 17.3774 17.3777 18.4214 16.1257 19.1458M14.25 11.9999C14.25 13.2425 13.2426 14.2499 12 14.2499C11.5901 14.2499 11.2058 14.1403 10.8748 13.9488M14.25 11.9999C14.25 10.7572 13.2426 9.74993 12 9.74993C11.5901 9.74993 11.2058 9.85954 10.8748 10.051M12 20.2499C10.497 20.2499 9.08794 19.848 7.87432 19.1458M12 20.2499C13.503 20.2499 14.9121 19.848 16.1257 19.1458M12 20.2499V22.2501M7.87432 19.1458L6.87501 20.8767M7.87432 19.1458L10.8748 13.9488M7.87432 19.1458C6.62239 18.4214 5.57847 17.3775 4.85411 16.1256M16.1257 19.1458L17.125 20.8767M3.75001 11.9999C3.75001 13.5029 4.15191 14.912 4.85411 16.1256M3.75001 11.9999C3.75001 10.4969 4.15194 9.08775 4.85419 7.8741M3.75001 11.9999H1.75M4.85411 16.1256L3.12325 17.1249M4.85419 7.8741L3.12325 6.87474M4.85419 7.8741C5.57855 6.62223 6.62244 5.57837 7.87432 4.85403M12 3.74993C10.497 3.74993 9.08794 4.15183 7.87432 4.85403M12 3.74993C13.503 3.74993 14.9121 4.15183 16.1257 4.85403M12 3.74993V1.75012M7.87432 4.85403L6.87501 3.12317M7.87432 4.85403L10.8748 10.051M16.1257 4.85403L17.125 3.12317M10.8748 13.9488C10.2024 13.5597 9.75001 12.8326 9.75001 11.9999C9.75001 11.1672 10.2024 10.4401 10.8748 10.051" stroke="black" stroke-width="1.5" stroke-linecap="square"/>
</svg>
