<svg width="24" height="24" viewBox="0 0 24 24" fill="none" xmlns="http://www.w3.org/2000/svg">
<path fill-rule="evenodd" clip-rule="evenodd" d="M3 5.71894L0.695312 3.86395L1.63583 2.69543L18.6798 16.4138C18.6824 16.4087 18.685 16.4036 18.6876 16.3985L19.8835 17.3452C19.8787 17.3538 19.8739 17.3624 19.8692 17.371L23.3043 20.1359L22.3638 21.3045L19.0295 18.6207C17.3802 20.6807 14.8442 22 12 22C7.02944 22 3 17.9706 3 13V5.71894ZM17.8609 17.6802C16.4866 19.399 14.3719 20.5 12 20.5C7.85786 20.5 4.5 17.1421 4.5 13V6.92626L17.8609 17.6802Z" fill="black"/>
<path d="M19.5002 13C19.5002 13.6723 19.4117 14.324 19.2458 14.944L20.5034 15.9562C20.8253 15.0303 21.0002 14.0356 21.0002 13V5.25348L12.0002 1.4353L5.75439 4.08503L7.08006 5.15203L12.0002 3.06471L19.5002 6.24652V13Z" fill="black"/>
</svg>
