<svg width="24" height="24" viewBox="0 0 24 24" fill="none" xmlns="http://www.w3.org/2000/svg">
<path d="M5.18084 18.25C6.8718 16.406 9.30089 15.25 12 15.25C14.6991 15.25 17.1282 16.406 18.8192 18.25M5.18084 18.25C6.8718 20.094 9.30089 21.25 12 21.25C14.6991 21.25 17.1282 20.094 18.8192 18.25M5.18084 18.25C3.67129 16.6039 2.75 14.4095 2.75 12C2.75 6.89137 6.89137 2.75 12 2.75C17.1086 2.75 21.25 6.89137 21.25 12C21.25 14.4095 20.3287 16.6039 18.8192 18.25" stroke="black" stroke-width="1.5"/>
<path d="M8.5 9L10.8333 7.83333L12 5.5L13.1667 7.83333L15.5 9L13.1667 10.1667L12 12.5L10.8333 10.1667L8.5 9Z" fill="black"/>
</svg>
