<svg width="24" height="24" viewBox="0 0 24 24" fill="none" xmlns="http://www.w3.org/2000/svg">
<path fill-rule="evenodd" clip-rule="evenodd" d="M5 15.75V14.25C7.68622 14.25 9.44918 13.6568 10.553 12.553C11.6568 11.4492 12.25 9.68622 12.25 7H13.75C13.75 9.68622 14.3432 11.4492 15.447 12.553C16.5508 13.6568 18.3138 14.25 21 14.25V15.75C18.3138 15.75 16.5508 16.3432 15.447 17.447C14.3432 18.5508 13.75 20.3138 13.75 23H12.25C12.25 20.3138 11.6568 18.5508 10.553 17.447C9.44918 16.3432 7.68622 15.75 5 15.75ZM13 18.4982C13.3363 17.6852 13.7934 16.9793 14.3863 16.3863C14.9793 15.7934 15.6852 15.3363 16.4982 15C15.6852 14.6637 14.9793 14.2066 14.3863 13.6137C13.7934 13.0207 13.3363 12.3148 13 11.5018C12.6637 12.3148 12.2066 13.0207 11.6137 13.6137C11.0207 14.2066 10.3148 14.6637 9.50182 15C10.3148 15.3363 11.0207 15.7934 11.6137 16.3863C12.2066 16.9793 12.6637 17.6852 13 18.4982Z" fill="black"/>
<path d="M2 9C3.15424 9 3.87122 9.25541 4.3079 9.69209C4.74459 10.1288 5 10.8458 5 12H6C6 10.8458 6.25541 10.1288 6.69209 9.69209C7.12878 9.25541 7.84576 9 9 9V8C7.84576 8 7.12878 7.74459 6.69209 7.30791C6.25541 6.87122 6 6.15424 6 5H5C5 6.15424 4.74459 6.87122 4.3079 7.30791C3.87122 7.74459 3.15424 8 2 8V9Z" fill="black"/>
<path d="M8 4C8.80702 4 9.27399 4.17902 9.54749 4.45251C9.82098 4.72601 10 5.19298 10 6H11C11 5.19298 11.179 4.72601 11.4525 4.45251C11.726 4.17902 12.193 4 13 4V3C12.193 3 11.726 2.82098 11.4525 2.54749C11.179 2.27399 11 1.80702 11 1H10C10 1.80702 9.82098 2.27399 9.54749 2.54749C9.27399 2.82098 8.80702 3 8 3V4Z" fill="black"/>
</svg>
