<svg width="24" height="24" viewBox="0 0 24 24" fill="none" xmlns="http://www.w3.org/2000/svg">
<path d="M20.25 20.25V21H21V20.25H20.25ZM3.75 20.25H3V21H3.75V20.25ZM3.75 3.75V3H3V3.75H3.75ZM11.75 4.5H12.5V3H11.75V4.5ZM21 12.25V11.5H19.5V12.25H21ZM19.7678 4.23223C20.7441 5.20854 20.7441 6.79146 19.7678 7.76777L20.8284 8.82843C22.3905 7.26633 22.3905 4.73367 20.8284 3.17157L19.7678 4.23223ZM19.7678 7.76777C18.7915 8.74408 17.2085 8.74408 16.2322 7.76777L15.1716 8.82843C16.7337 10.3905 19.2663 10.3905 20.8284 8.82843L19.7678 7.76777ZM16.2322 7.76777C15.2559 6.79146 15.2559 5.20854 16.2322 4.23223L15.1716 3.17157C13.6095 4.73367 13.6095 7.26633 15.1716 8.82843L16.2322 7.76777ZM16.2322 4.23223C17.2085 3.25592 18.7915 3.25592 19.7678 4.23223L20.8284 3.17157C19.2663 1.60948 16.7337 1.60948 15.1716 3.17157L16.2322 4.23223ZM20.25 19.5H3.75V21H20.25V19.5ZM4.5 20.25V3.75H3V20.25H4.5ZM3.75 4.5H11.75V3H3.75V4.5ZM19.5 12.25V20.25H21V12.25H19.5Z" fill="black"/>
</svg>
