<svg width="24" height="24" viewBox="0 0 24 24" fill="none" xmlns="http://www.w3.org/2000/svg">
<path d="M20.25 3.75H21V3H20.25V3.75ZM20.25 20.25V21H21V20.25H20.25ZM3.75 20.25H3V21H3.75V20.25ZM3.75 3.75V3H3V3.75H3.75ZM10.75 10.25H10V11.75H10.75V10.25ZM12 11H12.75V10.25H12V11ZM11.25 16.25V17H12.75V16.25H11.25ZM19.5 3.75V20.25H21V3.75H19.5ZM20.25 19.5H3.75V21H20.25V19.5ZM4.5 20.25V3.75H3V20.25H4.5ZM3.75 4.5H20.25V3H3.75V4.5ZM10.75 11.75H12V10.25H10.75V11.75ZM11.25 11V16.25H12.75V11H11.25Z" fill="black"/>
<path d="M11.5 7.375H11.375V7.5V8.5V8.625H11.5H12.5H12.625V8.5V7.5V7.375H12.5H11.5Z" fill="black" stroke="black" stroke-width="0.25"/>
</svg>
