<svg width="24" height="24" viewBox="0 0 24 24" fill="none" xmlns="http://www.w3.org/2000/svg">
<path d="M20.25 3.75H21V3H20.25V3.75ZM20.25 20.25V21H21V20.25H20.25ZM3.75 20.25H3V21H3.75V20.25ZM3.75 3.75V3H3V3.75H3.75ZM15.25 12.75H16V11.25H15.25V12.75ZM8.75736 11.25H8.00736V12.75H8.75736V11.25ZM11.25 15.2426V15.9926H12.75V15.2426H11.25ZM12.75 8.75736V8.00736H11.25V8.75736H12.75ZM19.5 3.75V20.25H21V3.75H19.5ZM20.25 19.5H3.75V21H20.25V19.5ZM4.5 20.25V3.75H3V20.25H4.5ZM3.75 4.5H20.25V3H3.75V4.5ZM15.25 11.25H8.75736V12.75H15.25V11.25ZM12.75 15.2426V8.75736H11.25V15.2426H12.75Z" fill="black"/>
</svg>
