<svg width="24" height="24" viewBox="0 0 24 24" fill="none" xmlns="http://www.w3.org/2000/svg">
<path d="M3.75 3.75V3H3V3.75H3.75ZM10.25 3.75H11V3H10.25V3.75ZM10.25 10.25V11H11V10.25H10.25ZM3.75 10.25H3V11H3.75V10.25ZM13.75 3.75V3H13V3.75H13.75ZM20.25 3.75H21V3H20.25V3.75ZM20.25 10.25V11H21V10.25H20.25ZM13.75 10.25H13V11H13.75V10.25ZM3.75 13.75V13H3V13.75H3.75ZM10.25 13.75H11V13H10.25V13.75ZM10.25 20.25V21H11V20.25H10.25ZM3.75 20.25H3V21H3.75V20.25ZM20.5983 21.659L21.1287 22.1893L22.1893 21.1287L21.659 20.5984L20.5983 21.659ZM3.75 4.5H10.25V3H3.75V4.5ZM9.5 3.75V10.25H11V3.75H9.5ZM10.25 9.5H3.75V11H10.25V9.5ZM4.5 10.25V3.75H3V10.25H4.5ZM13.75 4.5H20.25V3H13.75V4.5ZM19.5 3.75V10.25H21V3.75H19.5ZM20.25 9.5H13.75V11H20.25V9.5ZM14.5 10.25V3.75H13V10.25H14.5ZM3.75 14.5H10.25V13H3.75V14.5ZM9.5 13.75V20.25H11V13.75H9.5ZM10.25 19.5H3.75V21H10.25V19.5ZM4.5 20.25V13.75H3V20.25H4.5ZM17 19.5078C15.6193 19.5078 14.5 18.3885 14.5 17.0078H13C13 19.217 14.7909 21.0078 17 21.0078V19.5078ZM14.5 17.0078C14.5 15.6271 15.6193 14.5078 17 14.5078V13.0078C14.7909 13.0078 13 14.7987 13 17.0078H14.5ZM17 14.5078C18.3807 14.5078 19.5 15.6271 19.5 17.0078H21C21 14.7987 19.2091 13.0078 17 13.0078V14.5078ZM18.7717 19.8323L20.5983 21.659L21.659 20.5984L19.8323 18.7717L18.7717 19.8323ZM19.5 17.0078C19.5 17.6969 19.2222 18.3196 18.7708 18.7726L19.8332 19.8314C20.5534 19.1088 21 18.1097 21 17.0078H19.5ZM18.7708 18.7726C18.3173 19.2276 17.6921 19.5078 17 19.5078V21.0078C18.1068 21.0078 19.1098 20.5573 19.8332 19.8314L18.7708 18.7726Z" fill="black"/>
</svg>
