<svg width="24" height="24" viewBox="0 0 24 24" fill="none" xmlns="http://www.w3.org/2000/svg">
<path d="M14.25 12.25C15.4926 12.25 16.5 11.2426 16.5 10C16.5 8.75736 15.4926 7.75 14.25 7.75M14.25 12.25C13.565 12.25 12.9516 11.9439 12.5389 11.4611M14.25 12.25V20.25M14.25 7.75C13.0074 7.75 12 8.75736 12 10C12 10.5577 12.2029 11.068 12.5389 11.4611M14.25 7.75V3.75M12.5389 11.4611L9 15L7 13L4.24754 15.7525M14.25 20.25H3.75V3.75H14.25M14.25 20.25H20.25V3.75H14.25" stroke="black" stroke-width="1.5" stroke-linecap="square"/>
</svg>
