<svg width="24" height="24" viewBox="0 0 24 24" fill="none" xmlns="http://www.w3.org/2000/svg">
<path d="M2.75 3.75V3H2V3.75H2.75ZM21.25 3.75H22V3H21.25V3.75ZM21.25 16.25V17H22V16.25H21.25ZM2.75 16.25H2V17H2.75V16.25ZM17.756 20.9592L18.4653 21.2032L18.9532 19.7847L18.244 19.5408L17.756 20.9592ZM5.75605 19.5408L5.04683 19.7847L5.53473 21.2032L6.24395 20.9592L5.75605 19.5408ZM2.75 4.5H21.25V3H2.75V4.5ZM20.5 3.75V16.25H22V3.75H20.5ZM21.25 15.5H2.75V17H21.25V15.5ZM3.5 16.25V3.75H2V16.25H3.5ZM12 20C14.0123 20 15.9473 20.337 17.756 20.9592L18.244 19.5408C16.2807 18.8655 14.181 18.5 12 18.5V20ZM6.24395 20.9592C8.05274 20.337 9.9877 20 12 20V18.5C9.81899 18.5 7.71928 18.8655 5.75605 19.5408L6.24395 20.9592Z" fill="black"/>
</svg>
