<svg width="24" height="24" viewBox="0 0 24 24" fill="none" xmlns="http://www.w3.org/2000/svg">
<path d="M10.9998 9.44736L9.7497 1.75H14.2497L12.9998 9.5M8.92211 20.7244C9.88471 21.0648 10.9206 21.25 11.9997 21.25C13.0788 21.25 14.1146 21.0648 15.0772 20.7244M5.99784 4.99117C5.2219 5.65499 4.54364 6.45987 4.00409 7.39482C3.46454 8.32977 3.10694 9.31986 2.92029 10.3241M21.079 10.3239C20.8924 9.31975 20.5348 8.32966 19.9952 7.39471C19.4557 6.45976 18.7774 5.65488 18.0015 4.99106M10.2891 14.1425L4.24805 19.0737L1.99805 15.1766L9.33471 12.3841M14.7103 12.4102L22.0015 15.1763L19.7515 19.0734L13.6647 14.1159M14.2497 12C14.2497 13.2426 13.2423 14.25 11.9997 14.25C10.7571 14.25 9.7497 13.2426 9.7497 12C9.7497 10.7574 10.7571 9.75 11.9997 9.75C13.2423 9.75 14.2497 10.7574 14.2497 12Z" stroke="black" stroke-width="1.5" stroke-linecap="square"/>
</svg>
