<svg width="24" height="24" viewBox="0 0 24 24" fill="none" xmlns="http://www.w3.org/2000/svg">
<path d="M17.6944 8.91667C17.6944 5.51091 14.9087 2.75 11.4722 2.75C8.03578 2.75 5.25 5.51091 5.25 8.91667C5.25 9.63742 5.37476 10.3293 5.60406 10.9722M13.0278 12V8.91667C13.0278 8.06523 12.3313 7.375 11.4722 7.375C10.6131 7.375 9.91667 8.06523 9.91667 8.91667V13.5417L9.85872 13.513C8.77341 12.9751 7.45609 13.4715 7.00544 14.5881L6.80556 15.0833L9.72226 19.4193C10.4916 20.563 11.7868 21.25 13.1737 21.25H14.0648C16.9285 21.25 19.25 18.9492 19.25 16.1111V15.0833C19.25 13.3805 17.8571 12 16.1389 12H13.0278Z" stroke="black" stroke-width="1.5"/>
</svg>
