<svg width="24" height="24" viewBox="0 0 24 24" fill="none" xmlns="http://www.w3.org/2000/svg">
<path d="M5.75 21.25L5.00156 21.2983L5.04683 22H5.75V21.25ZM18.25 21.25V22H18.9532L18.9984 21.2983L18.25 21.25ZM2.75 5H2V6.5H2.75V5ZM21.25 6.5H22V5H21.25V6.5ZM10.5 10.75V10H9V10.75H10.5ZM9 16.25V17H10.5V16.25H9ZM15 10.75V10H13.5V10.75H15ZM13.5 16.25V17H15V16.25H13.5ZM4.00156 5.79829L5.00156 21.2983L6.49844 21.2017L5.49844 5.70171L4.00156 5.79829ZM5.75 22H18.25V20.5H5.75V22ZM18.9984 21.2983L19.9984 5.79829L18.5016 5.70171L17.5016 21.2017L18.9984 21.2983ZM19.25 5H4.75V6.5H19.25V5ZM2.75 6.5H4.75V5H2.75V6.5ZM19.25 6.5H21.25V5H19.25V6.5ZM9 10.75V16.25H10.5V10.75H9ZM13.5 10.75V16.25H15V10.75H13.5ZM8.9707 5.56987C9.44356 4.35717 10.6226 3.5 12 3.5V2C9.98397 2 8.26305 3.25569 7.57318 5.02495L8.9707 5.56987ZM12 3.5C13.3774 3.5 14.5565 4.35717 15.0293 5.56987L16.4269 5.02495C15.737 3.25569 14.0161 2 12 2V3.5Z" fill="black"/>
</svg>
