<svg width="24" height="24" viewBox="0 0 24 24" fill="none" xmlns="http://www.w3.org/2000/svg">
<path d="M4.75 9.75V9H4V9.75H4.75ZM19.25 9.75H20V9H19.25V9.75ZM19.25 21.25V22H20V21.25H19.25ZM4.75 21.25H4V22H4.75V21.25ZM7 9.75V10.5H8.5V9.75H7ZM12.75 14V13.25H11.25V14H12.75ZM11.25 17V17.75H12.75V17H11.25ZM4.75 10.5H19.25V9H4.75V10.5ZM18.5 9.75V21.25H20V9.75H18.5ZM19.25 20.5H4.75V22H19.25V20.5ZM5.5 21.25V9.75H4V21.25H5.5ZM8.5 9.75V7H7V9.75H8.5ZM12 3.5C13.933 3.5 15.5 5.067 15.5 7H17C17 4.23858 14.7614 2 12 2V3.5ZM12 2C9.23858 2 7 4.23858 7 7H8.5C8.5 5.067 10.067 3.5 12 3.5V2ZM11.25 14V17H12.75V14H11.25Z" fill="black"/>
</svg>
