<svg width="24" height="24" viewBox="0 0 24 24" fill="none" xmlns="http://www.w3.org/2000/svg">
<path d="M3.75 12H7.75M3.75 12V7.875M3.75 12V16.125M7.75 12H16.25M7.75 12V16.125M7.75 12V7.875M3.75 7.875V3.75H7.75M3.75 7.875H7.75M3.75 16.125V20.25H7.75M3.75 16.125H7.75M16.25 12H20.25M16.25 12V16.5833M16.25 12V7.875M7.75 16.125V20.25M7.75 7.875V3.75M20.25 12V7.875M20.25 12V16.5833M16.25 16.5833V20.25M16.25 16.5833H20.25M16.25 7.875V3.75M16.25 7.875H20.25M20.25 7.875V3.75H16.25M20.25 16.5833V20.25H16.25M16.25 20.25H7.75M16.25 3.75H7.75" stroke="black" stroke-width="1.5" stroke-linecap="square"/>
</svg>
