<svg width="24" height="24" viewBox="0 0 24 24" fill="none" xmlns="http://www.w3.org/2000/svg">
<path d="M21.25 4.75H2.75V15.75H21.25V4.75Z" stroke="black" stroke-width="1.5"/>
<path d="M2.75 19.25H21.25" stroke="black" stroke-width="1.5" stroke-linecap="square"/>
<path d="M3.25 12L7.5 9L15 15.25" stroke="black" stroke-width="1.5" stroke-linecap="square"/>
<path d="M17.75 9.25C17.75 10.0784 17.0784 10.75 16.25 10.75C15.4216 10.75 14.75 10.0784 14.75 9.25C14.75 8.42157 15.4216 7.75 16.25 7.75C17.0784 7.75 17.75 8.42157 17.75 9.25Z" stroke="black" stroke-width="1.5" stroke-linecap="round"/>
<path d="M7 20.25C7.55228 20.25 8 19.8023 8 19.25C8 18.6977 7.55228 18.25 7 18.25C6.44772 18.25 6 18.6977 6 19.25C6 19.8023 6.44772 20.25 7 20.25Z" stroke="black" stroke-width="1.5"/>
</svg>
