<svg width="24" height="24" viewBox="0 0 24 24" fill="none" xmlns="http://www.w3.org/2000/svg">
<path d="M1.75 7.75005V7.00005H1V7.75005H1.75ZM6 7.75005V8.50005H6.1957L6.36645 8.40443L6 7.75005ZM12.25 4.25005H13V2.97046L11.8835 3.59567L12.25 4.25005ZM12.25 19.75L11.8835 20.4044L13 21.0296V19.75H12.25ZM6 16.25L6.36645 15.5956L6.1957 15.5H6V16.25ZM1.75 16.25H1V17H1.75V16.25ZM19.75 8.75005V8.00005H18.25V8.75005H19.75ZM18.25 15.25V16H19.75V15.25H18.25ZM15.75 11.25H15V12.75H15.75V11.25ZM22.25 12.75H23V11.25H22.25V12.75ZM1.75 8.50005H6V7.00005H1.75V8.50005ZM6.36645 8.40443L12.6165 4.90443L11.8835 3.59567L5.63355 7.09567L6.36645 8.40443ZM11.5 4.25005V19.75H13V4.25005H11.5ZM12.6165 19.0956L6.36645 15.5956L5.63355 16.9044L11.8835 20.4044L12.6165 19.0956ZM6 15.5H1.75V17H6V15.5ZM2.5 16.25V7.75005H1V16.25H2.5ZM18.25 8.75005V12H19.75V8.75005H18.25ZM18.25 12V15.25H19.75V12H18.25ZM15.75 12.75H19V11.25H15.75V12.75ZM19 12.75H22.25V11.25H19V12.75Z" fill="black"/>
</svg>
