<svg width="24" height="24" viewBox="0 0 24 24" fill="none" xmlns="http://www.w3.org/2000/svg">
<path d="M2.43549 12.3056C1.34207 12.9388 0.756237 13.5064 0.86677 13.9189C1.16059 15.0155 6.26396 14.6008 12.2655 12.9927C18.2669 11.3846 22.8939 9.19208 22.6001 8.09551C22.4871 7.67365 21.6622 7.47546 20.3482 7.48283M20.8904 9.61767C22.2126 14.5522 19.3038 19.6191 14.3935 20.9348C9.48321 22.2505 4.43075 19.3169 3.10854 14.3823C2.90491 13.6223 2.80163 12.8593 2.79055 12.1072C2.72972 7.97606 5.45127 4.17826 9.60537 3.06517C13.7595 1.95208 18.0153 3.8803 20.0282 7.48841C20.3946 8.14523 20.6867 8.85772 20.8904 9.61767Z" stroke="black" stroke-width="1.5" stroke-linecap="square"/>
</svg>
