<svg width="24" height="24" viewBox="0 0 24 24" fill="none" xmlns="http://www.w3.org/2000/svg">
<path d="M12 16.75C12.4142 16.75 12.75 16.4142 12.75 16C12.75 15.5858 12.4142 15.25 12 15.25C11.5858 15.25 11.25 15.5858 11.25 16C11.25 16.4142 11.5858 16.75 12 16.75Z" fill="black" stroke="black" stroke-width="0.5"/>
<path d="M20.25 3.75H21V3H20.25V3.75ZM20.25 20.25V21H21V20.25H20.25ZM3.75 20.25H3V21H3.75V20.25ZM3.75 3.75V3H3V3.75H3.75ZM17.3365 8.82302C15.7773 7.60605 13.8864 7 12 7V8.5C13.5671 8.5 15.1297 9.00345 16.4135 10.0055L17.3365 8.82302ZM12 7C10.1136 7 8.22273 7.60605 6.66354 8.82302L7.58646 10.0055C8.87027 9.00345 10.4329 8.5 12 8.5V7ZM9.6182 13.3112C10.3095 12.7721 11.1524 12.5 12 12.5V11C10.8334 11 9.66242 11.3745 8.69576 12.1283L9.6182 13.3112ZM12 12.5C12.8477 12.5 13.691 12.772 14.3829 13.3113L15.305 12.1282C14.3379 11.3744 13.1666 11 12 11V12.5ZM19.5 3.75V20.25H21V3.75H19.5ZM20.25 19.5H3.75V21H20.25V19.5ZM4.5 20.25V3.75H3V20.25H4.5ZM3.75 4.5H20.25V3H3.75V4.5Z" fill="black"/>
<path d="M12 16.75C12.4142 16.75 12.75 16.4142 12.75 16C12.75 15.5858 12.4142 15.25 12 15.25C11.5858 15.25 11.25 15.5858 11.25 16C11.25 16.4142 11.5858 16.75 12 16.75Z" fill="black" stroke="black" stroke-width="0.5"/>
</svg>
