<svg width="24" height="24" viewBox="0 0 24 24" fill="none" xmlns="http://www.w3.org/2000/svg">
<path d="M3 10.75H21M2.75 4.75H21.25V19.25H2.75V4.75Z" stroke="black" stroke-width="1.5"/>
<path d="M5.75 8.375C6.09518 8.375 6.375 8.09518 6.375 7.75C6.375 7.40482 6.09518 7.125 5.75 7.125C5.40482 7.125 5.125 7.40482 5.125 7.75C5.125 8.09518 5.40482 8.375 5.75 8.375ZM8.25 8.375C8.59518 8.375 8.875 8.09518 8.875 7.75C8.875 7.40482 8.59518 7.125 8.25 7.125C7.90482 7.125 7.625 7.40482 7.625 7.75C7.625 8.09518 7.90482 8.375 8.25 8.375ZM10.75 8.375C11.0952 8.375 11.375 8.09518 11.375 7.75C11.375 7.40482 11.0952 7.125 10.75 7.125C10.4048 7.125 10.125 7.40482 10.125 7.75C10.125 8.09518 10.4048 8.375 10.75 8.375Z" fill="black" stroke="black" stroke-width="0.25"/>
</svg>
